%TF.GenerationSoftware,KiCad,Pcbnew,8.0.6*%
%TF.CreationDate,2024-10-22T22:59:00-03:00*%
%TF.ProjectId,check_point_1,63686563-6b5f-4706-9f69-6e745f312e6b,rev?*%
%TF.SameCoordinates,Original*%
%TF.FileFunction,Drillmap*%
%TF.FilePolarity,Positive*%
%FSLAX45Y45*%
G04 Gerber Fmt 4.5, Leading zero omitted, Abs format (unit mm)*
G04 Created by KiCad (PCBNEW 8.0.6) date 2024-10-22 22:59:00*
%MOMM*%
%LPD*%
G01*
G04 APERTURE LIST*
%ADD10C,0.050000*%
%ADD11C,0.200000*%
%ADD12C,0.100000*%
%ADD13C,0.110000*%
%ADD14C,0.120000*%
G04 APERTURE END LIST*
D10*
X2000000Y-5002000D02*
X12000000Y-5002000D01*
X12000000Y-15000000D01*
X2000000Y-15000000D01*
X2000000Y-5002000D01*
D11*
D12*
X3654000Y-9482000D02*
X3704000Y-9532000D01*
X3704000Y-9482000D02*
X3654000Y-9532000D01*
X4107000Y-9484000D02*
X4157000Y-9534000D01*
X4157000Y-9484000D02*
X4107000Y-9534000D01*
X5914000Y-11746000D02*
X5964000Y-11796000D01*
X5964000Y-11746000D02*
X5914000Y-11796000D01*
X5914000Y-12066000D02*
X5964000Y-12116000D01*
X5964000Y-12066000D02*
X5914000Y-12116000D01*
X6052000Y-9323000D02*
X6102000Y-9373000D01*
X6102000Y-9323000D02*
X6052000Y-9373000D01*
X6450000Y-9325000D02*
X6500000Y-9375000D01*
X6500000Y-9325000D02*
X6450000Y-9375000D01*
X4464000Y-8776000D02*
G75*
G02*
X4394000Y-8776000I-35000J0D01*
G01*
X4394000Y-8776000D02*
G75*
G02*
X4464000Y-8776000I35000J0D01*
G01*
X4464000Y-9026000D02*
G75*
G02*
X4394000Y-9026000I-35000J0D01*
G01*
X4394000Y-9026000D02*
G75*
G02*
X4464000Y-9026000I35000J0D01*
G01*
X3109000Y-9902500D02*
X3109000Y-9977500D01*
X3071500Y-9940000D02*
X3146500Y-9940000D01*
X3236000Y-10029500D02*
X3236000Y-10104500D01*
X3198500Y-10067000D02*
X3273500Y-10067000D01*
X3363000Y-9902500D02*
X3363000Y-9977500D01*
X3325500Y-9940000D02*
X3400500Y-9940000D01*
X3706000Y-10952500D02*
X3706000Y-11027500D01*
X3668500Y-10990000D02*
X3743500Y-10990000D01*
X3833000Y-11079500D02*
X3833000Y-11154500D01*
X3795500Y-11117000D02*
X3870500Y-11117000D01*
X3960000Y-10952500D02*
X3960000Y-11027500D01*
X3922500Y-10990000D02*
X3997500Y-10990000D01*
X4634000Y-12752500D02*
X4634000Y-12827500D01*
X4596500Y-12790000D02*
X4671500Y-12790000D01*
X4761000Y-12625500D02*
X4761000Y-12700500D01*
X4723500Y-12663000D02*
X4798500Y-12663000D01*
X4761000Y-12879500D02*
X4761000Y-12954500D01*
X4723500Y-12917000D02*
X4798500Y-12917000D01*
X4990000Y-10370500D02*
X4990000Y-10445500D01*
X4952500Y-10408000D02*
X5027500Y-10408000D01*
X4993000Y-11010500D02*
X4993000Y-11085500D01*
X4955500Y-11048000D02*
X5030500Y-11048000D01*
X5117000Y-10243500D02*
X5117000Y-10318500D01*
X5079500Y-10281000D02*
X5154500Y-10281000D01*
X5117000Y-10497500D02*
X5117000Y-10572500D01*
X5079500Y-10535000D02*
X5154500Y-10535000D01*
X5120000Y-10883500D02*
X5120000Y-10958500D01*
X5082500Y-10921000D02*
X5157500Y-10921000D01*
X5120000Y-11137500D02*
X5120000Y-11212500D01*
X5082500Y-11175000D02*
X5157500Y-11175000D01*
X5564000Y-10243500D02*
X5564000Y-10318500D01*
X5526500Y-10281000D02*
X5601500Y-10281000D01*
X5564000Y-10497500D02*
X5564000Y-10572500D01*
X5526500Y-10535000D02*
X5601500Y-10535000D01*
X5571000Y-10883500D02*
X5571000Y-10958500D01*
X5533500Y-10921000D02*
X5608500Y-10921000D01*
X5571000Y-11137500D02*
X5571000Y-11212500D01*
X5533500Y-11175000D02*
X5608500Y-11175000D01*
X5691000Y-10370500D02*
X5691000Y-10445500D01*
X5653500Y-10408000D02*
X5728500Y-10408000D01*
X5698000Y-11010500D02*
X5698000Y-11085500D01*
X5660500Y-11048000D02*
X5735500Y-11048000D01*
X6204000Y-11900000D02*
X6204000Y-11975000D01*
X6166500Y-11937500D02*
X6241500Y-11937500D01*
X6204000Y-12307000D02*
X6204000Y-12382000D01*
X6166500Y-12344500D02*
X6241500Y-12344500D01*
X6331000Y-11773000D02*
X6331000Y-11848000D01*
X6293500Y-11810500D02*
X6368500Y-11810500D01*
X6331000Y-12434000D02*
X6331000Y-12509000D01*
X6293500Y-12471500D02*
X6368500Y-12471500D01*
X6458000Y-11900000D02*
X6458000Y-11975000D01*
X6420500Y-11937500D02*
X6495500Y-11937500D01*
X6458000Y-12307000D02*
X6458000Y-12382000D01*
X6420500Y-12344500D02*
X6495500Y-12344500D01*
X9568000Y-6353500D02*
X9568000Y-6428500D01*
X9530500Y-6391000D02*
X9605500Y-6391000D01*
X9695000Y-6226500D02*
X9695000Y-6301500D01*
X9657500Y-6264000D02*
X9732500Y-6264000D01*
X9695000Y-6480500D02*
X9695000Y-6555500D01*
X9657500Y-6518000D02*
X9732500Y-6518000D01*
X2955284Y-12094284D02*
X2955284Y-12037715D01*
X2898715Y-12037715D01*
X2898715Y-12094284D01*
X2955284Y-12094284D01*
X2960284Y-12596284D02*
X2960284Y-12539715D01*
X2903715Y-12539715D01*
X2903715Y-12596284D01*
X2960284Y-12596284D01*
X3071784Y-10548285D02*
X3071784Y-10491716D01*
X3015215Y-10491716D01*
X3015215Y-10548285D01*
X3071784Y-10548285D01*
X3081784Y-9248285D02*
X3081784Y-9191716D01*
X3025215Y-9191716D01*
X3025215Y-9248285D01*
X3081784Y-9248285D01*
X3091784Y-8258284D02*
X3091784Y-8201715D01*
X3035215Y-8201715D01*
X3035215Y-8258284D01*
X3091784Y-8258284D01*
X3098284Y-8738285D02*
X3098284Y-8681716D01*
X3041715Y-8681716D01*
X3041715Y-8738285D01*
X3098284Y-8738285D01*
X3108284Y-7798284D02*
X3108284Y-7741715D01*
X3051715Y-7741715D01*
X3051715Y-7798284D01*
X3108284Y-7798284D01*
X3268284Y-11558284D02*
X3268284Y-11501715D01*
X3211715Y-11501715D01*
X3211715Y-11558284D01*
X3268284Y-11558284D01*
X3579784Y-10548285D02*
X3579784Y-10491716D01*
X3523215Y-10491716D01*
X3523215Y-10548285D01*
X3579784Y-10548285D01*
X3589784Y-9248285D02*
X3589784Y-9191716D01*
X3533215Y-9191716D01*
X3533215Y-9248285D01*
X3589784Y-9248285D01*
X3598284Y-8738285D02*
X3598284Y-8681716D01*
X3541715Y-8681716D01*
X3541715Y-8738285D01*
X3598284Y-8738285D01*
X3599784Y-8258284D02*
X3599784Y-8201715D01*
X3543215Y-8201715D01*
X3543215Y-8258284D01*
X3599784Y-8258284D01*
X3608284Y-7798284D02*
X3608284Y-7741715D01*
X3551715Y-7741715D01*
X3551715Y-7798284D01*
X3608284Y-7798284D01*
X3776284Y-11558284D02*
X3776284Y-11501715D01*
X3719715Y-11501715D01*
X3719715Y-11558284D01*
X3776284Y-11558284D01*
X3971284Y-12094284D02*
X3971284Y-12037715D01*
X3914715Y-12037715D01*
X3914715Y-12094284D01*
X3971284Y-12094284D01*
X3976284Y-12596284D02*
X3976284Y-12539715D01*
X3919715Y-12539715D01*
X3919715Y-12596284D01*
X3976284Y-12596284D01*
X4809285Y-8519285D02*
X4809285Y-8462716D01*
X4752716Y-8462716D01*
X4752716Y-8519285D01*
X4809285Y-8519285D01*
X5179285Y-8971285D02*
X5179285Y-8914716D01*
X5122716Y-8914716D01*
X5122716Y-8971285D01*
X5179285Y-8971285D01*
X5179285Y-9987285D02*
X5179285Y-9930716D01*
X5122716Y-9930716D01*
X5122716Y-9987285D01*
X5179285Y-9987285D01*
X5207285Y-11491284D02*
X5207285Y-11434715D01*
X5150716Y-11434715D01*
X5150716Y-11491284D01*
X5207285Y-11491284D01*
X5207285Y-12507284D02*
X5207285Y-12450715D01*
X5150716Y-12450715D01*
X5150716Y-12507284D01*
X5207285Y-12507284D01*
X5257285Y-12949284D02*
X5257285Y-12892715D01*
X5200716Y-12892715D01*
X5200716Y-12949284D01*
X5257285Y-12949284D01*
X5291285Y-7799284D02*
X5291285Y-7742715D01*
X5234716Y-7742715D01*
X5234716Y-7799284D01*
X5291285Y-7799284D01*
X5669284Y-8971285D02*
X5669284Y-8914716D01*
X5612715Y-8914716D01*
X5612715Y-8971285D01*
X5669284Y-8971285D01*
X5669284Y-9987285D02*
X5669284Y-9930716D01*
X5612715Y-9930716D01*
X5612715Y-9987285D01*
X5669284Y-9987285D01*
X5677284Y-11491284D02*
X5677284Y-11434715D01*
X5620715Y-11434715D01*
X5620715Y-11491284D01*
X5677284Y-11491284D01*
X5677284Y-12507284D02*
X5677284Y-12450715D01*
X5620715Y-12450715D01*
X5620715Y-12507284D01*
X5677284Y-12507284D01*
X5825284Y-8519285D02*
X5825284Y-8462716D01*
X5768715Y-8462716D01*
X5768715Y-8519285D01*
X5825284Y-8519285D01*
X6273284Y-12949284D02*
X6273284Y-12892715D01*
X6216715Y-12892715D01*
X6216715Y-12949284D01*
X6273284Y-12949284D01*
X6277284Y-8979285D02*
X6277284Y-8922716D01*
X6220715Y-8922716D01*
X6220715Y-8979285D01*
X6277284Y-8979285D01*
X6307284Y-7799284D02*
X6307284Y-7742715D01*
X6250715Y-7742715D01*
X6250715Y-7799284D01*
X6307284Y-7799284D01*
X6542284Y-12907284D02*
X6542284Y-12850715D01*
X6485715Y-12850715D01*
X6485715Y-12907284D01*
X6542284Y-12907284D01*
X6542284Y-13923284D02*
X6542284Y-13866715D01*
X6485715Y-13866715D01*
X6485715Y-13923284D01*
X6542284Y-13923284D01*
X6671284Y-10409285D02*
X6671284Y-10352716D01*
X6614715Y-10352716D01*
X6614715Y-10409285D01*
X6671284Y-10409285D01*
X6671284Y-10909285D02*
X6671284Y-10852716D01*
X6614715Y-10852716D01*
X6614715Y-10909285D01*
X6671284Y-10909285D01*
X6679284Y-7789284D02*
X6679284Y-7732715D01*
X6622715Y-7732715D01*
X6622715Y-7789284D01*
X6679284Y-7789284D01*
X6699284Y-8299284D02*
X6699284Y-8242715D01*
X6642715Y-8242715D01*
X6642715Y-8299284D01*
X6699284Y-8299284D01*
X6777284Y-8979285D02*
X6777284Y-8922716D01*
X6720715Y-8922716D01*
X6720715Y-8979285D01*
X6777284Y-8979285D01*
X6933284Y-12645284D02*
X6933284Y-12588715D01*
X6876715Y-12588715D01*
X6876715Y-12645284D01*
X6933284Y-12645284D01*
X6933284Y-13661284D02*
X6933284Y-13604715D01*
X6876715Y-13604715D01*
X6876715Y-13661284D01*
X6933284Y-13661284D01*
X7147284Y-14119284D02*
X7147284Y-14062715D01*
X7090715Y-14062715D01*
X7090715Y-14119284D01*
X7147284Y-14119284D01*
X7373284Y-12640284D02*
X7373284Y-12583715D01*
X7316715Y-12583715D01*
X7316715Y-12640284D01*
X7373284Y-12640284D01*
X7373284Y-13656284D02*
X7373284Y-13599715D01*
X7316715Y-13599715D01*
X7316715Y-13656284D01*
X7373284Y-13656284D01*
X7392284Y-9239285D02*
X7392284Y-9182716D01*
X7335715Y-9182716D01*
X7335715Y-9239285D01*
X7392284Y-9239285D01*
X7392284Y-10001285D02*
X7392284Y-9944716D01*
X7335715Y-9944716D01*
X7335715Y-10001285D01*
X7392284Y-10001285D01*
X7601284Y-6348284D02*
X7601284Y-6291715D01*
X7544715Y-6291715D01*
X7544715Y-6348284D01*
X7601284Y-6348284D01*
X7601284Y-7364284D02*
X7601284Y-7307715D01*
X7544715Y-7307715D01*
X7544715Y-7364284D01*
X7601284Y-7364284D01*
X7646284Y-9239285D02*
X7646284Y-9182716D01*
X7589715Y-9182716D01*
X7589715Y-9239285D01*
X7646284Y-9239285D01*
X7646284Y-10001285D02*
X7646284Y-9944716D01*
X7589715Y-9944716D01*
X7589715Y-10001285D01*
X7646284Y-10001285D01*
X7647284Y-14119284D02*
X7647284Y-14062715D01*
X7590715Y-14062715D01*
X7590715Y-14119284D01*
X7647284Y-14119284D01*
X7667284Y-8824285D02*
X7667284Y-8767716D01*
X7610715Y-8767716D01*
X7610715Y-8824285D01*
X7667284Y-8824285D01*
X7687284Y-10409285D02*
X7687284Y-10352716D01*
X7630715Y-10352716D01*
X7630715Y-10409285D01*
X7687284Y-10409285D01*
X7687284Y-10909285D02*
X7687284Y-10852716D01*
X7630715Y-10852716D01*
X7630715Y-10909285D01*
X7687284Y-10909285D01*
X7695284Y-7789284D02*
X7695284Y-7732715D01*
X7638715Y-7732715D01*
X7638715Y-7789284D01*
X7695284Y-7789284D01*
X7715284Y-8299284D02*
X7715284Y-8242715D01*
X7658715Y-8242715D01*
X7658715Y-8299284D01*
X7715284Y-8299284D01*
X7900284Y-9239285D02*
X7900284Y-9182716D01*
X7843715Y-9182716D01*
X7843715Y-9239285D01*
X7900284Y-9239285D01*
X7900284Y-10001285D02*
X7900284Y-9944716D01*
X7843715Y-9944716D01*
X7843715Y-10001285D01*
X7900284Y-10001285D01*
X8047284Y-7789284D02*
X8047284Y-7732715D01*
X7990715Y-7732715D01*
X7990715Y-7789284D01*
X8047284Y-7789284D01*
X8049284Y-7309284D02*
X8049284Y-7252715D01*
X7992715Y-7252715D01*
X7992715Y-7309284D01*
X8049284Y-7309284D01*
X8154284Y-9239285D02*
X8154284Y-9182716D01*
X8097715Y-9182716D01*
X8097715Y-9239285D01*
X8154284Y-9239285D01*
X8154284Y-10001285D02*
X8154284Y-9944716D01*
X8097715Y-9944716D01*
X8097715Y-10001285D01*
X8154284Y-10001285D01*
X8167284Y-8824285D02*
X8167284Y-8767716D01*
X8110715Y-8767716D01*
X8110715Y-8824285D01*
X8167284Y-8824285D01*
X8177284Y-10961285D02*
X8177284Y-10904716D01*
X8120715Y-10904716D01*
X8120715Y-10961285D01*
X8177284Y-10961285D01*
X8177284Y-11977284D02*
X8177284Y-11920715D01*
X8120715Y-11920715D01*
X8120715Y-11977284D01*
X8177284Y-11977284D01*
X8235784Y-13049284D02*
X8235784Y-12992715D01*
X8179215Y-12992715D01*
X8179215Y-13049284D01*
X8235784Y-13049284D01*
X8277284Y-6489284D02*
X8277284Y-6432715D01*
X8220715Y-6432715D01*
X8220715Y-6489284D01*
X8277284Y-6489284D01*
X8277284Y-6989284D02*
X8277284Y-6932715D01*
X8220715Y-6932715D01*
X8220715Y-6989284D01*
X8277284Y-6989284D01*
X8408285Y-9239285D02*
X8408285Y-9182716D01*
X8351715Y-9182716D01*
X8351715Y-9239285D01*
X8408285Y-9239285D01*
X8408285Y-10001285D02*
X8408285Y-9944716D01*
X8351715Y-9944716D01*
X8351715Y-10001285D01*
X8408285Y-10001285D01*
X8559285Y-8271284D02*
X8559285Y-8214715D01*
X8502716Y-8214715D01*
X8502716Y-8271284D01*
X8559285Y-8271284D01*
X8630285Y-11346284D02*
X8630285Y-11289715D01*
X8573716Y-11289715D01*
X8573716Y-11346284D01*
X8630285Y-11346284D01*
X8630285Y-12362284D02*
X8630285Y-12305715D01*
X8573716Y-12305715D01*
X8573716Y-12362284D01*
X8630285Y-12362284D01*
X8662285Y-9239285D02*
X8662285Y-9182716D01*
X8605716Y-9182716D01*
X8605716Y-9239285D01*
X8662285Y-9239285D01*
X8662285Y-10001285D02*
X8662285Y-9944716D01*
X8605716Y-9944716D01*
X8605716Y-10001285D01*
X8662285Y-10001285D01*
X8743785Y-13049284D02*
X8743785Y-12992715D01*
X8687216Y-12992715D01*
X8687216Y-13049284D01*
X8743785Y-13049284D01*
X8916285Y-9239285D02*
X8916285Y-9182716D01*
X8859716Y-9182716D01*
X8859716Y-9239285D01*
X8916285Y-9239285D01*
X8916285Y-10001285D02*
X8916285Y-9944716D01*
X8859716Y-9944716D01*
X8859716Y-10001285D01*
X8916285Y-10001285D01*
X9027285Y-5961284D02*
X9027285Y-5904715D01*
X8970716Y-5904715D01*
X8970716Y-5961284D01*
X9027285Y-5961284D01*
X9027285Y-6977284D02*
X9027285Y-6920715D01*
X8970716Y-6920715D01*
X8970716Y-6977284D01*
X9027285Y-6977284D01*
X9050285Y-11006285D02*
X9050285Y-10949716D01*
X8993716Y-10949716D01*
X8993716Y-11006285D01*
X9050285Y-11006285D01*
X9050285Y-11768284D02*
X9050285Y-11711715D01*
X8993716Y-11711715D01*
X8993716Y-11768284D01*
X9050285Y-11768284D01*
X9059285Y-8271284D02*
X9059285Y-8214715D01*
X9002716Y-8214715D01*
X9002716Y-8271284D01*
X9059285Y-8271284D01*
X9063285Y-7789284D02*
X9063285Y-7732715D01*
X9006716Y-7732715D01*
X9006716Y-7789284D01*
X9063285Y-7789284D01*
X9065285Y-7309284D02*
X9065285Y-7252715D01*
X9008716Y-7252715D01*
X9008716Y-7309284D01*
X9065285Y-7309284D01*
X9177285Y-12561284D02*
X9177285Y-12504715D01*
X9120716Y-12504715D01*
X9120716Y-12561284D01*
X9177285Y-12561284D01*
X9177285Y-13577284D02*
X9177285Y-13520715D01*
X9120716Y-13520715D01*
X9120716Y-13577284D01*
X9177285Y-13577284D01*
X9304285Y-11006285D02*
X9304285Y-10949716D01*
X9247716Y-10949716D01*
X9247716Y-11006285D01*
X9304285Y-11006285D01*
X9304285Y-11768284D02*
X9304285Y-11711715D01*
X9247716Y-11711715D01*
X9247716Y-11768284D01*
X9304285Y-11768284D01*
X9558285Y-11006285D02*
X9558285Y-10949716D01*
X9501716Y-10949716D01*
X9501716Y-11006285D01*
X9558285Y-11006285D01*
X9558285Y-11768284D02*
X9558285Y-11711715D01*
X9501716Y-11711715D01*
X9501716Y-11768284D01*
X9558285Y-11768284D01*
X9587285Y-8949285D02*
X9587285Y-8892716D01*
X9530716Y-8892716D01*
X9530716Y-8949285D01*
X9587285Y-8949285D01*
X9587285Y-9449285D02*
X9587285Y-9392716D01*
X9530716Y-9392716D01*
X9530716Y-9449285D01*
X9587285Y-9449285D01*
X9717285Y-6901284D02*
X9717285Y-6844715D01*
X9660716Y-6844715D01*
X9660716Y-6901284D01*
X9717285Y-6901284D01*
X9717285Y-7917284D02*
X9717285Y-7860715D01*
X9660716Y-7860715D01*
X9660716Y-7917284D01*
X9717285Y-7917284D01*
X9812285Y-11006285D02*
X9812285Y-10949716D01*
X9755716Y-10949716D01*
X9755716Y-11006285D01*
X9812285Y-11006285D01*
X9812285Y-11768284D02*
X9812285Y-11711715D01*
X9755716Y-11711715D01*
X9755716Y-11768284D01*
X9812285Y-11768284D01*
X9883285Y-12560284D02*
X9883285Y-12503715D01*
X9826716Y-12503715D01*
X9826716Y-12560284D01*
X9883285Y-12560284D01*
X9883285Y-13576284D02*
X9883285Y-13519715D01*
X9826716Y-13519715D01*
X9826716Y-13576284D01*
X9883285Y-13576284D01*
X9989285Y-12259284D02*
X9989285Y-12202715D01*
X9932716Y-12202715D01*
X9932716Y-12259284D01*
X9989285Y-12259284D01*
X10066285Y-11006285D02*
X10066285Y-10949716D01*
X10009716Y-10949716D01*
X10009716Y-11006285D01*
X10066285Y-11006285D01*
X10066285Y-11768284D02*
X10066285Y-11711715D01*
X10009716Y-11711715D01*
X10009716Y-11768284D01*
X10066285Y-11768284D01*
X10320285Y-11006285D02*
X10320285Y-10949716D01*
X10263716Y-10949716D01*
X10263716Y-11006285D01*
X10320285Y-11006285D01*
X10320285Y-11768284D02*
X10320285Y-11711715D01*
X10263716Y-11711715D01*
X10263716Y-11768284D01*
X10320285Y-11768284D01*
X10327285Y-12869284D02*
X10327285Y-12812715D01*
X10270716Y-12812715D01*
X10270716Y-12869284D01*
X10327285Y-12869284D01*
X10327285Y-13234284D02*
X10327285Y-13177715D01*
X10270716Y-13177715D01*
X10270716Y-13234284D01*
X10327285Y-13234284D01*
X10574285Y-11006285D02*
X10574285Y-10949716D01*
X10517716Y-10949716D01*
X10517716Y-11006285D01*
X10574285Y-11006285D01*
X10574285Y-11768284D02*
X10574285Y-11711715D01*
X10517716Y-11711715D01*
X10517716Y-11768284D01*
X10574285Y-11768284D01*
X10577285Y-12869284D02*
X10577285Y-12812715D01*
X10520716Y-12812715D01*
X10520716Y-12869284D01*
X10577285Y-12869284D01*
X11005285Y-12259284D02*
X11005285Y-12202715D01*
X10948716Y-12202715D01*
X10948716Y-12259284D01*
X11005285Y-12259284D01*
X11147285Y-10851285D02*
X11147285Y-10794716D01*
X11090716Y-10794716D01*
X11090716Y-10851285D01*
X11147285Y-10851285D01*
X11147285Y-11867284D02*
X11147285Y-11810715D01*
X11090716Y-11810715D01*
X11090716Y-11867284D01*
X11147285Y-11867284D01*
X11343284Y-13234284D02*
X11343284Y-13177715D01*
X11286715Y-13177715D01*
X11286715Y-13234284D01*
X11343284Y-13234284D01*
X4139000Y-13571000D02*
X4189000Y-13521000D01*
X4139000Y-13471000D01*
X4089000Y-13521000D01*
X4139000Y-13571000D01*
X4393000Y-13571000D02*
X4443000Y-13521000D01*
X4393000Y-13471000D01*
X4343000Y-13521000D01*
X4393000Y-13571000D01*
X4459000Y-10051000D02*
X4509000Y-10001000D01*
X4459000Y-9951000D01*
X4409000Y-10001000D01*
X4459000Y-10051000D01*
X4459000Y-10305000D02*
X4509000Y-10255000D01*
X4459000Y-10205000D01*
X4409000Y-10255000D01*
X4459000Y-10305000D01*
X4562000Y-7984000D02*
X4612000Y-7934000D01*
X4562000Y-7884000D01*
X4512000Y-7934000D01*
X4562000Y-7984000D01*
X4673000Y-11678000D02*
X4723000Y-11628000D01*
X4673000Y-11578000D01*
X4623000Y-11628000D01*
X4673000Y-11678000D01*
X4673000Y-11932000D02*
X4723000Y-11882000D01*
X4673000Y-11832000D01*
X4623000Y-11882000D01*
X4673000Y-11932000D01*
X4816000Y-7984000D02*
X4866000Y-7934000D01*
X4816000Y-7884000D01*
X4766000Y-7934000D01*
X4816000Y-7984000D01*
X6273000Y-10824000D02*
X6323000Y-10774000D01*
X6273000Y-10724000D01*
X6223000Y-10774000D01*
X6273000Y-10824000D01*
X6273000Y-11078000D02*
X6323000Y-11028000D01*
X6273000Y-10978000D01*
X6223000Y-11028000D01*
X6273000Y-11078000D01*
X6941000Y-11751000D02*
X6991000Y-11701000D01*
X6941000Y-11651000D01*
X6891000Y-11701000D01*
X6941000Y-11751000D01*
X6941000Y-12005000D02*
X6991000Y-11955000D01*
X6941000Y-11905000D01*
X6891000Y-11955000D01*
X6941000Y-12005000D01*
X7599000Y-11737000D02*
X7649000Y-11687000D01*
X7599000Y-11637000D01*
X7549000Y-11687000D01*
X7599000Y-11737000D01*
X7599000Y-11991000D02*
X7649000Y-11941000D01*
X7599000Y-11891000D01*
X7549000Y-11941000D01*
X7599000Y-11991000D01*
X9555000Y-5691000D02*
X9605000Y-5641000D01*
X9555000Y-5591000D01*
X9505000Y-5641000D01*
X9555000Y-5691000D01*
X9809000Y-5691000D02*
X9859000Y-5641000D01*
X9809000Y-5591000D01*
X9759000Y-5641000D01*
X9809000Y-5691000D01*
X10358000Y-9247000D02*
X10408000Y-9197000D01*
X10358000Y-9147000D01*
X10308000Y-9197000D01*
X10358000Y-9247000D01*
X10358000Y-9501000D02*
X10408000Y-9451000D01*
X10358000Y-9401000D01*
X10308000Y-9451000D01*
X10358000Y-9501000D01*
D13*
X3025000Y-6631000D02*
X3135000Y-6741000D01*
X3135000Y-6631000D02*
X3025000Y-6741000D01*
X3135000Y-6686000D02*
G75*
G02*
X3025000Y-6686000I-55000J0D01*
G01*
X3025000Y-6686000D02*
G75*
G02*
X3135000Y-6686000I55000J0D01*
G01*
X3025000Y-6885000D02*
X3135000Y-6995000D01*
X3135000Y-6885000D02*
X3025000Y-6995000D01*
X3135000Y-6940000D02*
G75*
G02*
X3025000Y-6940000I-55000J0D01*
G01*
X3025000Y-6940000D02*
G75*
G02*
X3135000Y-6940000I55000J0D01*
G01*
X3025000Y-7139000D02*
X3135000Y-7249000D01*
X3135000Y-7139000D02*
X3025000Y-7249000D01*
X3135000Y-7194000D02*
G75*
G02*
X3025000Y-7194000I-55000J0D01*
G01*
X3025000Y-7194000D02*
G75*
G02*
X3135000Y-7194000I55000J0D01*
G01*
X5176000Y-5766000D02*
X5286000Y-5876000D01*
X5286000Y-5766000D02*
X5176000Y-5876000D01*
X5286000Y-5821000D02*
G75*
G02*
X5176000Y-5821000I-55000J0D01*
G01*
X5176000Y-5821000D02*
G75*
G02*
X5286000Y-5821000I55000J0D01*
G01*
X6192000Y-5766000D02*
X6302000Y-5876000D01*
X6302000Y-5766000D02*
X6192000Y-5876000D01*
X6302000Y-5821000D02*
G75*
G02*
X6192000Y-5821000I-55000J0D01*
G01*
X6192000Y-5821000D02*
G75*
G02*
X6302000Y-5821000I55000J0D01*
G01*
D14*
X3963000Y-5568000D02*
X4083000Y-5688000D01*
X4083000Y-5568000D02*
X3963000Y-5688000D01*
X4023000Y-5568000D02*
X4023000Y-5688000D01*
X3963000Y-5628000D02*
X4083000Y-5628000D01*
X4309000Y-6761000D02*
X4429000Y-6881000D01*
X4429000Y-6761000D02*
X4309000Y-6881000D01*
X4369000Y-6761000D02*
X4369000Y-6881000D01*
X4309000Y-6821000D02*
X4429000Y-6821000D01*
X4463000Y-5568000D02*
X4583000Y-5688000D01*
X4583000Y-5568000D02*
X4463000Y-5688000D01*
X4523000Y-5568000D02*
X4523000Y-5688000D01*
X4463000Y-5628000D02*
X4583000Y-5628000D01*
X6849000Y-6761000D02*
X6969000Y-6881000D01*
X6969000Y-6761000D02*
X6849000Y-6881000D01*
X6909000Y-6761000D02*
X6909000Y-6881000D01*
X6849000Y-6821000D02*
X6969000Y-6821000D01*
X7263000Y-5568000D02*
X7383000Y-5688000D01*
X7383000Y-5568000D02*
X7263000Y-5688000D01*
X7323000Y-5568000D02*
X7323000Y-5688000D01*
X7263000Y-5628000D02*
X7383000Y-5628000D01*
X7763000Y-5568000D02*
X7883000Y-5688000D01*
X7883000Y-5568000D02*
X7763000Y-5688000D01*
X7823000Y-5568000D02*
X7823000Y-5688000D01*
X7763000Y-5628000D02*
X7883000Y-5628000D01*
D11*
X2258277Y-15313984D02*
X2258277Y-15113984D01*
X2258277Y-15113984D02*
X2305896Y-15113984D01*
X2305896Y-15113984D02*
X2334467Y-15123508D01*
X2334467Y-15123508D02*
X2353515Y-15142555D01*
X2353515Y-15142555D02*
X2363039Y-15161603D01*
X2363039Y-15161603D02*
X2372563Y-15199698D01*
X2372563Y-15199698D02*
X2372563Y-15228269D01*
X2372563Y-15228269D02*
X2363039Y-15266365D01*
X2363039Y-15266365D02*
X2353515Y-15285412D01*
X2353515Y-15285412D02*
X2334467Y-15304460D01*
X2334467Y-15304460D02*
X2305896Y-15313984D01*
X2305896Y-15313984D02*
X2258277Y-15313984D01*
X2458277Y-15313984D02*
X2458277Y-15180650D01*
X2458277Y-15218746D02*
X2467801Y-15199698D01*
X2467801Y-15199698D02*
X2477324Y-15190174D01*
X2477324Y-15190174D02*
X2496372Y-15180650D01*
X2496372Y-15180650D02*
X2515420Y-15180650D01*
X2582086Y-15313984D02*
X2582086Y-15180650D01*
X2582086Y-15113984D02*
X2572563Y-15123508D01*
X2572563Y-15123508D02*
X2582086Y-15133031D01*
X2582086Y-15133031D02*
X2591610Y-15123508D01*
X2591610Y-15123508D02*
X2582086Y-15113984D01*
X2582086Y-15113984D02*
X2582086Y-15133031D01*
X2705896Y-15313984D02*
X2686848Y-15304460D01*
X2686848Y-15304460D02*
X2677324Y-15285412D01*
X2677324Y-15285412D02*
X2677324Y-15113984D01*
X2810658Y-15313984D02*
X2791610Y-15304460D01*
X2791610Y-15304460D02*
X2782086Y-15285412D01*
X2782086Y-15285412D02*
X2782086Y-15113984D01*
X3039229Y-15313984D02*
X3039229Y-15113984D01*
X3039229Y-15113984D02*
X3105896Y-15256841D01*
X3105896Y-15256841D02*
X3172562Y-15113984D01*
X3172562Y-15113984D02*
X3172562Y-15313984D01*
X3353515Y-15313984D02*
X3353515Y-15209222D01*
X3353515Y-15209222D02*
X3343991Y-15190174D01*
X3343991Y-15190174D02*
X3324943Y-15180650D01*
X3324943Y-15180650D02*
X3286848Y-15180650D01*
X3286848Y-15180650D02*
X3267801Y-15190174D01*
X3353515Y-15304460D02*
X3334467Y-15313984D01*
X3334467Y-15313984D02*
X3286848Y-15313984D01*
X3286848Y-15313984D02*
X3267801Y-15304460D01*
X3267801Y-15304460D02*
X3258277Y-15285412D01*
X3258277Y-15285412D02*
X3258277Y-15266365D01*
X3258277Y-15266365D02*
X3267801Y-15247317D01*
X3267801Y-15247317D02*
X3286848Y-15237793D01*
X3286848Y-15237793D02*
X3334467Y-15237793D01*
X3334467Y-15237793D02*
X3353515Y-15228269D01*
X3448753Y-15180650D02*
X3448753Y-15380650D01*
X3448753Y-15190174D02*
X3467801Y-15180650D01*
X3467801Y-15180650D02*
X3505896Y-15180650D01*
X3505896Y-15180650D02*
X3524943Y-15190174D01*
X3524943Y-15190174D02*
X3534467Y-15199698D01*
X3534467Y-15199698D02*
X3543991Y-15218746D01*
X3543991Y-15218746D02*
X3543991Y-15275888D01*
X3543991Y-15275888D02*
X3534467Y-15294936D01*
X3534467Y-15294936D02*
X3524943Y-15304460D01*
X3524943Y-15304460D02*
X3505896Y-15313984D01*
X3505896Y-15313984D02*
X3467801Y-15313984D01*
X3467801Y-15313984D02*
X3448753Y-15304460D01*
X3629705Y-15294936D02*
X3639229Y-15304460D01*
X3639229Y-15304460D02*
X3629705Y-15313984D01*
X3629705Y-15313984D02*
X3620182Y-15304460D01*
X3620182Y-15304460D02*
X3629705Y-15294936D01*
X3629705Y-15294936D02*
X3629705Y-15313984D01*
X3629705Y-15190174D02*
X3639229Y-15199698D01*
X3639229Y-15199698D02*
X3629705Y-15209222D01*
X3629705Y-15209222D02*
X3620182Y-15199698D01*
X3620182Y-15199698D02*
X3629705Y-15190174D01*
X3629705Y-15190174D02*
X3629705Y-15209222D01*
D12*
X1947500Y-15617500D02*
X1997500Y-15667500D01*
X1997500Y-15617500D02*
X1947500Y-15667500D01*
D11*
X2296372Y-15533984D02*
X2315420Y-15533984D01*
X2315420Y-15533984D02*
X2334467Y-15543508D01*
X2334467Y-15543508D02*
X2343991Y-15553031D01*
X2343991Y-15553031D02*
X2353515Y-15572079D01*
X2353515Y-15572079D02*
X2363039Y-15610174D01*
X2363039Y-15610174D02*
X2363039Y-15657793D01*
X2363039Y-15657793D02*
X2353515Y-15695888D01*
X2353515Y-15695888D02*
X2343991Y-15714936D01*
X2343991Y-15714936D02*
X2334467Y-15724460D01*
X2334467Y-15724460D02*
X2315420Y-15733984D01*
X2315420Y-15733984D02*
X2296372Y-15733984D01*
X2296372Y-15733984D02*
X2277324Y-15724460D01*
X2277324Y-15724460D02*
X2267801Y-15714936D01*
X2267801Y-15714936D02*
X2258277Y-15695888D01*
X2258277Y-15695888D02*
X2248753Y-15657793D01*
X2248753Y-15657793D02*
X2248753Y-15610174D01*
X2248753Y-15610174D02*
X2258277Y-15572079D01*
X2258277Y-15572079D02*
X2267801Y-15553031D01*
X2267801Y-15553031D02*
X2277324Y-15543508D01*
X2277324Y-15543508D02*
X2296372Y-15533984D01*
X2448753Y-15714936D02*
X2458277Y-15724460D01*
X2458277Y-15724460D02*
X2448753Y-15733984D01*
X2448753Y-15733984D02*
X2439229Y-15724460D01*
X2439229Y-15724460D02*
X2448753Y-15714936D01*
X2448753Y-15714936D02*
X2448753Y-15733984D01*
X2639229Y-15533984D02*
X2543991Y-15533984D01*
X2543991Y-15533984D02*
X2534467Y-15629222D01*
X2534467Y-15629222D02*
X2543991Y-15619698D01*
X2543991Y-15619698D02*
X2563039Y-15610174D01*
X2563039Y-15610174D02*
X2610658Y-15610174D01*
X2610658Y-15610174D02*
X2629705Y-15619698D01*
X2629705Y-15619698D02*
X2639229Y-15629222D01*
X2639229Y-15629222D02*
X2648753Y-15648269D01*
X2648753Y-15648269D02*
X2648753Y-15695888D01*
X2648753Y-15695888D02*
X2639229Y-15714936D01*
X2639229Y-15714936D02*
X2629705Y-15724460D01*
X2629705Y-15724460D02*
X2610658Y-15733984D01*
X2610658Y-15733984D02*
X2563039Y-15733984D01*
X2563039Y-15733984D02*
X2543991Y-15724460D01*
X2543991Y-15724460D02*
X2534467Y-15714936D01*
X2772563Y-15533984D02*
X2791610Y-15533984D01*
X2791610Y-15533984D02*
X2810658Y-15543508D01*
X2810658Y-15543508D02*
X2820182Y-15553031D01*
X2820182Y-15553031D02*
X2829705Y-15572079D01*
X2829705Y-15572079D02*
X2839229Y-15610174D01*
X2839229Y-15610174D02*
X2839229Y-15657793D01*
X2839229Y-15657793D02*
X2829705Y-15695888D01*
X2829705Y-15695888D02*
X2820182Y-15714936D01*
X2820182Y-15714936D02*
X2810658Y-15724460D01*
X2810658Y-15724460D02*
X2791610Y-15733984D01*
X2791610Y-15733984D02*
X2772563Y-15733984D01*
X2772563Y-15733984D02*
X2753515Y-15724460D01*
X2753515Y-15724460D02*
X2743991Y-15714936D01*
X2743991Y-15714936D02*
X2734467Y-15695888D01*
X2734467Y-15695888D02*
X2724944Y-15657793D01*
X2724944Y-15657793D02*
X2724944Y-15610174D01*
X2724944Y-15610174D02*
X2734467Y-15572079D01*
X2734467Y-15572079D02*
X2743991Y-15553031D01*
X2743991Y-15553031D02*
X2753515Y-15543508D01*
X2753515Y-15543508D02*
X2772563Y-15533984D01*
X2963039Y-15533984D02*
X2982086Y-15533984D01*
X2982086Y-15533984D02*
X3001134Y-15543508D01*
X3001134Y-15543508D02*
X3010658Y-15553031D01*
X3010658Y-15553031D02*
X3020182Y-15572079D01*
X3020182Y-15572079D02*
X3029705Y-15610174D01*
X3029705Y-15610174D02*
X3029705Y-15657793D01*
X3029705Y-15657793D02*
X3020182Y-15695888D01*
X3020182Y-15695888D02*
X3010658Y-15714936D01*
X3010658Y-15714936D02*
X3001134Y-15724460D01*
X3001134Y-15724460D02*
X2982086Y-15733984D01*
X2982086Y-15733984D02*
X2963039Y-15733984D01*
X2963039Y-15733984D02*
X2943991Y-15724460D01*
X2943991Y-15724460D02*
X2934467Y-15714936D01*
X2934467Y-15714936D02*
X2924943Y-15695888D01*
X2924943Y-15695888D02*
X2915420Y-15657793D01*
X2915420Y-15657793D02*
X2915420Y-15610174D01*
X2915420Y-15610174D02*
X2924943Y-15572079D01*
X2924943Y-15572079D02*
X2934467Y-15553031D01*
X2934467Y-15553031D02*
X2943991Y-15543508D01*
X2943991Y-15543508D02*
X2963039Y-15533984D01*
X3115420Y-15733984D02*
X3115420Y-15600650D01*
X3115420Y-15619698D02*
X3124943Y-15610174D01*
X3124943Y-15610174D02*
X3143991Y-15600650D01*
X3143991Y-15600650D02*
X3172563Y-15600650D01*
X3172563Y-15600650D02*
X3191610Y-15610174D01*
X3191610Y-15610174D02*
X3201134Y-15629222D01*
X3201134Y-15629222D02*
X3201134Y-15733984D01*
X3201134Y-15629222D02*
X3210658Y-15610174D01*
X3210658Y-15610174D02*
X3229705Y-15600650D01*
X3229705Y-15600650D02*
X3258277Y-15600650D01*
X3258277Y-15600650D02*
X3277324Y-15610174D01*
X3277324Y-15610174D02*
X3286848Y-15629222D01*
X3286848Y-15629222D02*
X3286848Y-15733984D01*
X3382086Y-15733984D02*
X3382086Y-15600650D01*
X3382086Y-15619698D02*
X3391610Y-15610174D01*
X3391610Y-15610174D02*
X3410658Y-15600650D01*
X3410658Y-15600650D02*
X3439229Y-15600650D01*
X3439229Y-15600650D02*
X3458277Y-15610174D01*
X3458277Y-15610174D02*
X3467801Y-15629222D01*
X3467801Y-15629222D02*
X3467801Y-15733984D01*
X3467801Y-15629222D02*
X3477324Y-15610174D01*
X3477324Y-15610174D02*
X3496372Y-15600650D01*
X3496372Y-15600650D02*
X3524943Y-15600650D01*
X3524943Y-15600650D02*
X3543991Y-15610174D01*
X3543991Y-15610174D02*
X3553515Y-15629222D01*
X3553515Y-15629222D02*
X3553515Y-15733984D01*
X3943991Y-15524460D02*
X3772563Y-15781603D01*
X4201134Y-15533984D02*
X4220182Y-15533984D01*
X4220182Y-15533984D02*
X4239229Y-15543508D01*
X4239229Y-15543508D02*
X4248753Y-15553031D01*
X4248753Y-15553031D02*
X4258277Y-15572079D01*
X4258277Y-15572079D02*
X4267801Y-15610174D01*
X4267801Y-15610174D02*
X4267801Y-15657793D01*
X4267801Y-15657793D02*
X4258277Y-15695888D01*
X4258277Y-15695888D02*
X4248753Y-15714936D01*
X4248753Y-15714936D02*
X4239229Y-15724460D01*
X4239229Y-15724460D02*
X4220182Y-15733984D01*
X4220182Y-15733984D02*
X4201134Y-15733984D01*
X4201134Y-15733984D02*
X4182086Y-15724460D01*
X4182086Y-15724460D02*
X4172563Y-15714936D01*
X4172563Y-15714936D02*
X4163039Y-15695888D01*
X4163039Y-15695888D02*
X4153515Y-15657793D01*
X4153515Y-15657793D02*
X4153515Y-15610174D01*
X4153515Y-15610174D02*
X4163039Y-15572079D01*
X4163039Y-15572079D02*
X4172563Y-15553031D01*
X4172563Y-15553031D02*
X4182086Y-15543508D01*
X4182086Y-15543508D02*
X4201134Y-15533984D01*
X4353515Y-15714936D02*
X4363039Y-15724460D01*
X4363039Y-15724460D02*
X4353515Y-15733984D01*
X4353515Y-15733984D02*
X4343991Y-15724460D01*
X4343991Y-15724460D02*
X4353515Y-15714936D01*
X4353515Y-15714936D02*
X4353515Y-15733984D01*
X4486848Y-15533984D02*
X4505896Y-15533984D01*
X4505896Y-15533984D02*
X4524944Y-15543508D01*
X4524944Y-15543508D02*
X4534468Y-15553031D01*
X4534468Y-15553031D02*
X4543991Y-15572079D01*
X4543991Y-15572079D02*
X4553515Y-15610174D01*
X4553515Y-15610174D02*
X4553515Y-15657793D01*
X4553515Y-15657793D02*
X4543991Y-15695888D01*
X4543991Y-15695888D02*
X4534468Y-15714936D01*
X4534468Y-15714936D02*
X4524944Y-15724460D01*
X4524944Y-15724460D02*
X4505896Y-15733984D01*
X4505896Y-15733984D02*
X4486848Y-15733984D01*
X4486848Y-15733984D02*
X4467801Y-15724460D01*
X4467801Y-15724460D02*
X4458277Y-15714936D01*
X4458277Y-15714936D02*
X4448753Y-15695888D01*
X4448753Y-15695888D02*
X4439229Y-15657793D01*
X4439229Y-15657793D02*
X4439229Y-15610174D01*
X4439229Y-15610174D02*
X4448753Y-15572079D01*
X4448753Y-15572079D02*
X4458277Y-15553031D01*
X4458277Y-15553031D02*
X4467801Y-15543508D01*
X4467801Y-15543508D02*
X4486848Y-15533984D01*
X4743991Y-15733984D02*
X4629706Y-15733984D01*
X4686848Y-15733984D02*
X4686848Y-15533984D01*
X4686848Y-15533984D02*
X4667801Y-15562555D01*
X4667801Y-15562555D02*
X4648753Y-15581603D01*
X4648753Y-15581603D02*
X4629706Y-15591127D01*
X4839229Y-15733984D02*
X4877325Y-15733984D01*
X4877325Y-15733984D02*
X4896372Y-15724460D01*
X4896372Y-15724460D02*
X4905896Y-15714936D01*
X4905896Y-15714936D02*
X4924944Y-15686365D01*
X4924944Y-15686365D02*
X4934468Y-15648269D01*
X4934468Y-15648269D02*
X4934468Y-15572079D01*
X4934468Y-15572079D02*
X4924944Y-15553031D01*
X4924944Y-15553031D02*
X4915420Y-15543508D01*
X4915420Y-15543508D02*
X4896372Y-15533984D01*
X4896372Y-15533984D02*
X4858277Y-15533984D01*
X4858277Y-15533984D02*
X4839229Y-15543508D01*
X4839229Y-15543508D02*
X4829706Y-15553031D01*
X4829706Y-15553031D02*
X4820182Y-15572079D01*
X4820182Y-15572079D02*
X4820182Y-15619698D01*
X4820182Y-15619698D02*
X4829706Y-15638746D01*
X4829706Y-15638746D02*
X4839229Y-15648269D01*
X4839229Y-15648269D02*
X4858277Y-15657793D01*
X4858277Y-15657793D02*
X4896372Y-15657793D01*
X4896372Y-15657793D02*
X4915420Y-15648269D01*
X4915420Y-15648269D02*
X4924944Y-15638746D01*
X4924944Y-15638746D02*
X4934468Y-15619698D01*
X5001134Y-15533984D02*
X5134468Y-15533984D01*
X5134468Y-15533984D02*
X5048753Y-15733984D01*
X5201134Y-15533984D02*
X5201134Y-15572079D01*
X5277325Y-15533984D02*
X5277325Y-15572079D01*
X5572563Y-15810174D02*
X5563039Y-15800650D01*
X5563039Y-15800650D02*
X5543991Y-15772079D01*
X5543991Y-15772079D02*
X5534468Y-15753031D01*
X5534468Y-15753031D02*
X5524944Y-15724460D01*
X5524944Y-15724460D02*
X5515420Y-15676841D01*
X5515420Y-15676841D02*
X5515420Y-15638746D01*
X5515420Y-15638746D02*
X5524944Y-15591127D01*
X5524944Y-15591127D02*
X5534468Y-15562555D01*
X5534468Y-15562555D02*
X5543991Y-15543508D01*
X5543991Y-15543508D02*
X5563039Y-15514936D01*
X5563039Y-15514936D02*
X5572563Y-15505412D01*
X5734468Y-15533984D02*
X5696372Y-15533984D01*
X5696372Y-15533984D02*
X5677325Y-15543508D01*
X5677325Y-15543508D02*
X5667801Y-15553031D01*
X5667801Y-15553031D02*
X5648753Y-15581603D01*
X5648753Y-15581603D02*
X5639229Y-15619698D01*
X5639229Y-15619698D02*
X5639229Y-15695888D01*
X5639229Y-15695888D02*
X5648753Y-15714936D01*
X5648753Y-15714936D02*
X5658277Y-15724460D01*
X5658277Y-15724460D02*
X5677325Y-15733984D01*
X5677325Y-15733984D02*
X5715420Y-15733984D01*
X5715420Y-15733984D02*
X5734468Y-15724460D01*
X5734468Y-15724460D02*
X5743991Y-15714936D01*
X5743991Y-15714936D02*
X5753515Y-15695888D01*
X5753515Y-15695888D02*
X5753515Y-15648269D01*
X5753515Y-15648269D02*
X5743991Y-15629222D01*
X5743991Y-15629222D02*
X5734468Y-15619698D01*
X5734468Y-15619698D02*
X5715420Y-15610174D01*
X5715420Y-15610174D02*
X5677325Y-15610174D01*
X5677325Y-15610174D02*
X5658277Y-15619698D01*
X5658277Y-15619698D02*
X5648753Y-15629222D01*
X5648753Y-15629222D02*
X5639229Y-15648269D01*
X5991610Y-15733984D02*
X5991610Y-15533984D01*
X6077325Y-15733984D02*
X6077325Y-15629222D01*
X6077325Y-15629222D02*
X6067801Y-15610174D01*
X6067801Y-15610174D02*
X6048753Y-15600650D01*
X6048753Y-15600650D02*
X6020182Y-15600650D01*
X6020182Y-15600650D02*
X6001134Y-15610174D01*
X6001134Y-15610174D02*
X5991610Y-15619698D01*
X6201134Y-15733984D02*
X6182087Y-15724460D01*
X6182087Y-15724460D02*
X6172563Y-15714936D01*
X6172563Y-15714936D02*
X6163039Y-15695888D01*
X6163039Y-15695888D02*
X6163039Y-15638746D01*
X6163039Y-15638746D02*
X6172563Y-15619698D01*
X6172563Y-15619698D02*
X6182087Y-15610174D01*
X6182087Y-15610174D02*
X6201134Y-15600650D01*
X6201134Y-15600650D02*
X6229706Y-15600650D01*
X6229706Y-15600650D02*
X6248753Y-15610174D01*
X6248753Y-15610174D02*
X6258277Y-15619698D01*
X6258277Y-15619698D02*
X6267801Y-15638746D01*
X6267801Y-15638746D02*
X6267801Y-15695888D01*
X6267801Y-15695888D02*
X6258277Y-15714936D01*
X6258277Y-15714936D02*
X6248753Y-15724460D01*
X6248753Y-15724460D02*
X6229706Y-15733984D01*
X6229706Y-15733984D02*
X6201134Y-15733984D01*
X6382087Y-15733984D02*
X6363039Y-15724460D01*
X6363039Y-15724460D02*
X6353515Y-15705412D01*
X6353515Y-15705412D02*
X6353515Y-15533984D01*
X6534468Y-15724460D02*
X6515420Y-15733984D01*
X6515420Y-15733984D02*
X6477325Y-15733984D01*
X6477325Y-15733984D02*
X6458277Y-15724460D01*
X6458277Y-15724460D02*
X6448753Y-15705412D01*
X6448753Y-15705412D02*
X6448753Y-15629222D01*
X6448753Y-15629222D02*
X6458277Y-15610174D01*
X6458277Y-15610174D02*
X6477325Y-15600650D01*
X6477325Y-15600650D02*
X6515420Y-15600650D01*
X6515420Y-15600650D02*
X6534468Y-15610174D01*
X6534468Y-15610174D02*
X6543991Y-15629222D01*
X6543991Y-15629222D02*
X6543991Y-15648269D01*
X6543991Y-15648269D02*
X6448753Y-15667317D01*
X6620182Y-15724460D02*
X6639230Y-15733984D01*
X6639230Y-15733984D02*
X6677325Y-15733984D01*
X6677325Y-15733984D02*
X6696372Y-15724460D01*
X6696372Y-15724460D02*
X6705896Y-15705412D01*
X6705896Y-15705412D02*
X6705896Y-15695888D01*
X6705896Y-15695888D02*
X6696372Y-15676841D01*
X6696372Y-15676841D02*
X6677325Y-15667317D01*
X6677325Y-15667317D02*
X6648753Y-15667317D01*
X6648753Y-15667317D02*
X6629706Y-15657793D01*
X6629706Y-15657793D02*
X6620182Y-15638746D01*
X6620182Y-15638746D02*
X6620182Y-15629222D01*
X6620182Y-15629222D02*
X6629706Y-15610174D01*
X6629706Y-15610174D02*
X6648753Y-15600650D01*
X6648753Y-15600650D02*
X6677325Y-15600650D01*
X6677325Y-15600650D02*
X6696372Y-15610174D01*
X6772563Y-15810174D02*
X6782087Y-15800650D01*
X6782087Y-15800650D02*
X6801134Y-15772079D01*
X6801134Y-15772079D02*
X6810658Y-15753031D01*
X6810658Y-15753031D02*
X6820182Y-15724460D01*
X6820182Y-15724460D02*
X6829706Y-15676841D01*
X6829706Y-15676841D02*
X6829706Y-15638746D01*
X6829706Y-15638746D02*
X6820182Y-15591127D01*
X6820182Y-15591127D02*
X6810658Y-15562555D01*
X6810658Y-15562555D02*
X6801134Y-15543508D01*
X6801134Y-15543508D02*
X6782087Y-15514936D01*
X6782087Y-15514936D02*
X6772563Y-15505412D01*
D12*
X1997500Y-15906500D02*
G75*
G02*
X1927500Y-15906500I-35000J0D01*
G01*
X1927500Y-15906500D02*
G75*
G02*
X1997500Y-15906500I35000J0D01*
G01*
D11*
X2296372Y-15797984D02*
X2315420Y-15797984D01*
X2315420Y-15797984D02*
X2334467Y-15807508D01*
X2334467Y-15807508D02*
X2343991Y-15817031D01*
X2343991Y-15817031D02*
X2353515Y-15836079D01*
X2353515Y-15836079D02*
X2363039Y-15874174D01*
X2363039Y-15874174D02*
X2363039Y-15921793D01*
X2363039Y-15921793D02*
X2353515Y-15959888D01*
X2353515Y-15959888D02*
X2343991Y-15978936D01*
X2343991Y-15978936D02*
X2334467Y-15988460D01*
X2334467Y-15988460D02*
X2315420Y-15997984D01*
X2315420Y-15997984D02*
X2296372Y-15997984D01*
X2296372Y-15997984D02*
X2277324Y-15988460D01*
X2277324Y-15988460D02*
X2267801Y-15978936D01*
X2267801Y-15978936D02*
X2258277Y-15959888D01*
X2258277Y-15959888D02*
X2248753Y-15921793D01*
X2248753Y-15921793D02*
X2248753Y-15874174D01*
X2248753Y-15874174D02*
X2258277Y-15836079D01*
X2258277Y-15836079D02*
X2267801Y-15817031D01*
X2267801Y-15817031D02*
X2277324Y-15807508D01*
X2277324Y-15807508D02*
X2296372Y-15797984D01*
X2448753Y-15978936D02*
X2458277Y-15988460D01*
X2458277Y-15988460D02*
X2448753Y-15997984D01*
X2448753Y-15997984D02*
X2439229Y-15988460D01*
X2439229Y-15988460D02*
X2448753Y-15978936D01*
X2448753Y-15978936D02*
X2448753Y-15997984D01*
X2524944Y-15797984D02*
X2658277Y-15797984D01*
X2658277Y-15797984D02*
X2572563Y-15997984D01*
X2772563Y-15797984D02*
X2791610Y-15797984D01*
X2791610Y-15797984D02*
X2810658Y-15807508D01*
X2810658Y-15807508D02*
X2820182Y-15817031D01*
X2820182Y-15817031D02*
X2829705Y-15836079D01*
X2829705Y-15836079D02*
X2839229Y-15874174D01*
X2839229Y-15874174D02*
X2839229Y-15921793D01*
X2839229Y-15921793D02*
X2829705Y-15959888D01*
X2829705Y-15959888D02*
X2820182Y-15978936D01*
X2820182Y-15978936D02*
X2810658Y-15988460D01*
X2810658Y-15988460D02*
X2791610Y-15997984D01*
X2791610Y-15997984D02*
X2772563Y-15997984D01*
X2772563Y-15997984D02*
X2753515Y-15988460D01*
X2753515Y-15988460D02*
X2743991Y-15978936D01*
X2743991Y-15978936D02*
X2734467Y-15959888D01*
X2734467Y-15959888D02*
X2724944Y-15921793D01*
X2724944Y-15921793D02*
X2724944Y-15874174D01*
X2724944Y-15874174D02*
X2734467Y-15836079D01*
X2734467Y-15836079D02*
X2743991Y-15817031D01*
X2743991Y-15817031D02*
X2753515Y-15807508D01*
X2753515Y-15807508D02*
X2772563Y-15797984D01*
X2963039Y-15797984D02*
X2982086Y-15797984D01*
X2982086Y-15797984D02*
X3001134Y-15807508D01*
X3001134Y-15807508D02*
X3010658Y-15817031D01*
X3010658Y-15817031D02*
X3020182Y-15836079D01*
X3020182Y-15836079D02*
X3029705Y-15874174D01*
X3029705Y-15874174D02*
X3029705Y-15921793D01*
X3029705Y-15921793D02*
X3020182Y-15959888D01*
X3020182Y-15959888D02*
X3010658Y-15978936D01*
X3010658Y-15978936D02*
X3001134Y-15988460D01*
X3001134Y-15988460D02*
X2982086Y-15997984D01*
X2982086Y-15997984D02*
X2963039Y-15997984D01*
X2963039Y-15997984D02*
X2943991Y-15988460D01*
X2943991Y-15988460D02*
X2934467Y-15978936D01*
X2934467Y-15978936D02*
X2924943Y-15959888D01*
X2924943Y-15959888D02*
X2915420Y-15921793D01*
X2915420Y-15921793D02*
X2915420Y-15874174D01*
X2915420Y-15874174D02*
X2924943Y-15836079D01*
X2924943Y-15836079D02*
X2934467Y-15817031D01*
X2934467Y-15817031D02*
X2943991Y-15807508D01*
X2943991Y-15807508D02*
X2963039Y-15797984D01*
X3115420Y-15997984D02*
X3115420Y-15864650D01*
X3115420Y-15883698D02*
X3124943Y-15874174D01*
X3124943Y-15874174D02*
X3143991Y-15864650D01*
X3143991Y-15864650D02*
X3172563Y-15864650D01*
X3172563Y-15864650D02*
X3191610Y-15874174D01*
X3191610Y-15874174D02*
X3201134Y-15893222D01*
X3201134Y-15893222D02*
X3201134Y-15997984D01*
X3201134Y-15893222D02*
X3210658Y-15874174D01*
X3210658Y-15874174D02*
X3229705Y-15864650D01*
X3229705Y-15864650D02*
X3258277Y-15864650D01*
X3258277Y-15864650D02*
X3277324Y-15874174D01*
X3277324Y-15874174D02*
X3286848Y-15893222D01*
X3286848Y-15893222D02*
X3286848Y-15997984D01*
X3382086Y-15997984D02*
X3382086Y-15864650D01*
X3382086Y-15883698D02*
X3391610Y-15874174D01*
X3391610Y-15874174D02*
X3410658Y-15864650D01*
X3410658Y-15864650D02*
X3439229Y-15864650D01*
X3439229Y-15864650D02*
X3458277Y-15874174D01*
X3458277Y-15874174D02*
X3467801Y-15893222D01*
X3467801Y-15893222D02*
X3467801Y-15997984D01*
X3467801Y-15893222D02*
X3477324Y-15874174D01*
X3477324Y-15874174D02*
X3496372Y-15864650D01*
X3496372Y-15864650D02*
X3524943Y-15864650D01*
X3524943Y-15864650D02*
X3543991Y-15874174D01*
X3543991Y-15874174D02*
X3553515Y-15893222D01*
X3553515Y-15893222D02*
X3553515Y-15997984D01*
X3943991Y-15788460D02*
X3772563Y-16045603D01*
X4201134Y-15797984D02*
X4220182Y-15797984D01*
X4220182Y-15797984D02*
X4239229Y-15807508D01*
X4239229Y-15807508D02*
X4248753Y-15817031D01*
X4248753Y-15817031D02*
X4258277Y-15836079D01*
X4258277Y-15836079D02*
X4267801Y-15874174D01*
X4267801Y-15874174D02*
X4267801Y-15921793D01*
X4267801Y-15921793D02*
X4258277Y-15959888D01*
X4258277Y-15959888D02*
X4248753Y-15978936D01*
X4248753Y-15978936D02*
X4239229Y-15988460D01*
X4239229Y-15988460D02*
X4220182Y-15997984D01*
X4220182Y-15997984D02*
X4201134Y-15997984D01*
X4201134Y-15997984D02*
X4182086Y-15988460D01*
X4182086Y-15988460D02*
X4172563Y-15978936D01*
X4172563Y-15978936D02*
X4163039Y-15959888D01*
X4163039Y-15959888D02*
X4153515Y-15921793D01*
X4153515Y-15921793D02*
X4153515Y-15874174D01*
X4153515Y-15874174D02*
X4163039Y-15836079D01*
X4163039Y-15836079D02*
X4172563Y-15817031D01*
X4172563Y-15817031D02*
X4182086Y-15807508D01*
X4182086Y-15807508D02*
X4201134Y-15797984D01*
X4353515Y-15978936D02*
X4363039Y-15988460D01*
X4363039Y-15988460D02*
X4353515Y-15997984D01*
X4353515Y-15997984D02*
X4343991Y-15988460D01*
X4343991Y-15988460D02*
X4353515Y-15978936D01*
X4353515Y-15978936D02*
X4353515Y-15997984D01*
X4486848Y-15797984D02*
X4505896Y-15797984D01*
X4505896Y-15797984D02*
X4524944Y-15807508D01*
X4524944Y-15807508D02*
X4534468Y-15817031D01*
X4534468Y-15817031D02*
X4543991Y-15836079D01*
X4543991Y-15836079D02*
X4553515Y-15874174D01*
X4553515Y-15874174D02*
X4553515Y-15921793D01*
X4553515Y-15921793D02*
X4543991Y-15959888D01*
X4543991Y-15959888D02*
X4534468Y-15978936D01*
X4534468Y-15978936D02*
X4524944Y-15988460D01*
X4524944Y-15988460D02*
X4505896Y-15997984D01*
X4505896Y-15997984D02*
X4486848Y-15997984D01*
X4486848Y-15997984D02*
X4467801Y-15988460D01*
X4467801Y-15988460D02*
X4458277Y-15978936D01*
X4458277Y-15978936D02*
X4448753Y-15959888D01*
X4448753Y-15959888D02*
X4439229Y-15921793D01*
X4439229Y-15921793D02*
X4439229Y-15874174D01*
X4439229Y-15874174D02*
X4448753Y-15836079D01*
X4448753Y-15836079D02*
X4458277Y-15817031D01*
X4458277Y-15817031D02*
X4467801Y-15807508D01*
X4467801Y-15807508D02*
X4486848Y-15797984D01*
X4629706Y-15817031D02*
X4639229Y-15807508D01*
X4639229Y-15807508D02*
X4658277Y-15797984D01*
X4658277Y-15797984D02*
X4705896Y-15797984D01*
X4705896Y-15797984D02*
X4724944Y-15807508D01*
X4724944Y-15807508D02*
X4734468Y-15817031D01*
X4734468Y-15817031D02*
X4743991Y-15836079D01*
X4743991Y-15836079D02*
X4743991Y-15855127D01*
X4743991Y-15855127D02*
X4734468Y-15883698D01*
X4734468Y-15883698D02*
X4620182Y-15997984D01*
X4620182Y-15997984D02*
X4743991Y-15997984D01*
X4810658Y-15797984D02*
X4943991Y-15797984D01*
X4943991Y-15797984D02*
X4858277Y-15997984D01*
X5105896Y-15797984D02*
X5067801Y-15797984D01*
X5067801Y-15797984D02*
X5048753Y-15807508D01*
X5048753Y-15807508D02*
X5039229Y-15817031D01*
X5039229Y-15817031D02*
X5020182Y-15845603D01*
X5020182Y-15845603D02*
X5010658Y-15883698D01*
X5010658Y-15883698D02*
X5010658Y-15959888D01*
X5010658Y-15959888D02*
X5020182Y-15978936D01*
X5020182Y-15978936D02*
X5029706Y-15988460D01*
X5029706Y-15988460D02*
X5048753Y-15997984D01*
X5048753Y-15997984D02*
X5086849Y-15997984D01*
X5086849Y-15997984D02*
X5105896Y-15988460D01*
X5105896Y-15988460D02*
X5115420Y-15978936D01*
X5115420Y-15978936D02*
X5124944Y-15959888D01*
X5124944Y-15959888D02*
X5124944Y-15912269D01*
X5124944Y-15912269D02*
X5115420Y-15893222D01*
X5115420Y-15893222D02*
X5105896Y-15883698D01*
X5105896Y-15883698D02*
X5086849Y-15874174D01*
X5086849Y-15874174D02*
X5048753Y-15874174D01*
X5048753Y-15874174D02*
X5029706Y-15883698D01*
X5029706Y-15883698D02*
X5020182Y-15893222D01*
X5020182Y-15893222D02*
X5010658Y-15912269D01*
X5201134Y-15797984D02*
X5201134Y-15836079D01*
X5277325Y-15797984D02*
X5277325Y-15836079D01*
X5572563Y-16074174D02*
X5563039Y-16064650D01*
X5563039Y-16064650D02*
X5543991Y-16036079D01*
X5543991Y-16036079D02*
X5534468Y-16017031D01*
X5534468Y-16017031D02*
X5524944Y-15988460D01*
X5524944Y-15988460D02*
X5515420Y-15940841D01*
X5515420Y-15940841D02*
X5515420Y-15902746D01*
X5515420Y-15902746D02*
X5524944Y-15855127D01*
X5524944Y-15855127D02*
X5534468Y-15826555D01*
X5534468Y-15826555D02*
X5543991Y-15807508D01*
X5543991Y-15807508D02*
X5563039Y-15778936D01*
X5563039Y-15778936D02*
X5572563Y-15769412D01*
X5639229Y-15817031D02*
X5648753Y-15807508D01*
X5648753Y-15807508D02*
X5667801Y-15797984D01*
X5667801Y-15797984D02*
X5715420Y-15797984D01*
X5715420Y-15797984D02*
X5734468Y-15807508D01*
X5734468Y-15807508D02*
X5743991Y-15817031D01*
X5743991Y-15817031D02*
X5753515Y-15836079D01*
X5753515Y-15836079D02*
X5753515Y-15855127D01*
X5753515Y-15855127D02*
X5743991Y-15883698D01*
X5743991Y-15883698D02*
X5629706Y-15997984D01*
X5629706Y-15997984D02*
X5753515Y-15997984D01*
X5991610Y-15997984D02*
X5991610Y-15797984D01*
X6077325Y-15997984D02*
X6077325Y-15893222D01*
X6077325Y-15893222D02*
X6067801Y-15874174D01*
X6067801Y-15874174D02*
X6048753Y-15864650D01*
X6048753Y-15864650D02*
X6020182Y-15864650D01*
X6020182Y-15864650D02*
X6001134Y-15874174D01*
X6001134Y-15874174D02*
X5991610Y-15883698D01*
X6201134Y-15997984D02*
X6182087Y-15988460D01*
X6182087Y-15988460D02*
X6172563Y-15978936D01*
X6172563Y-15978936D02*
X6163039Y-15959888D01*
X6163039Y-15959888D02*
X6163039Y-15902746D01*
X6163039Y-15902746D02*
X6172563Y-15883698D01*
X6172563Y-15883698D02*
X6182087Y-15874174D01*
X6182087Y-15874174D02*
X6201134Y-15864650D01*
X6201134Y-15864650D02*
X6229706Y-15864650D01*
X6229706Y-15864650D02*
X6248753Y-15874174D01*
X6248753Y-15874174D02*
X6258277Y-15883698D01*
X6258277Y-15883698D02*
X6267801Y-15902746D01*
X6267801Y-15902746D02*
X6267801Y-15959888D01*
X6267801Y-15959888D02*
X6258277Y-15978936D01*
X6258277Y-15978936D02*
X6248753Y-15988460D01*
X6248753Y-15988460D02*
X6229706Y-15997984D01*
X6229706Y-15997984D02*
X6201134Y-15997984D01*
X6382087Y-15997984D02*
X6363039Y-15988460D01*
X6363039Y-15988460D02*
X6353515Y-15969412D01*
X6353515Y-15969412D02*
X6353515Y-15797984D01*
X6534468Y-15988460D02*
X6515420Y-15997984D01*
X6515420Y-15997984D02*
X6477325Y-15997984D01*
X6477325Y-15997984D02*
X6458277Y-15988460D01*
X6458277Y-15988460D02*
X6448753Y-15969412D01*
X6448753Y-15969412D02*
X6448753Y-15893222D01*
X6448753Y-15893222D02*
X6458277Y-15874174D01*
X6458277Y-15874174D02*
X6477325Y-15864650D01*
X6477325Y-15864650D02*
X6515420Y-15864650D01*
X6515420Y-15864650D02*
X6534468Y-15874174D01*
X6534468Y-15874174D02*
X6543991Y-15893222D01*
X6543991Y-15893222D02*
X6543991Y-15912269D01*
X6543991Y-15912269D02*
X6448753Y-15931317D01*
X6620182Y-15988460D02*
X6639230Y-15997984D01*
X6639230Y-15997984D02*
X6677325Y-15997984D01*
X6677325Y-15997984D02*
X6696372Y-15988460D01*
X6696372Y-15988460D02*
X6705896Y-15969412D01*
X6705896Y-15969412D02*
X6705896Y-15959888D01*
X6705896Y-15959888D02*
X6696372Y-15940841D01*
X6696372Y-15940841D02*
X6677325Y-15931317D01*
X6677325Y-15931317D02*
X6648753Y-15931317D01*
X6648753Y-15931317D02*
X6629706Y-15921793D01*
X6629706Y-15921793D02*
X6620182Y-15902746D01*
X6620182Y-15902746D02*
X6620182Y-15893222D01*
X6620182Y-15893222D02*
X6629706Y-15874174D01*
X6629706Y-15874174D02*
X6648753Y-15864650D01*
X6648753Y-15864650D02*
X6677325Y-15864650D01*
X6677325Y-15864650D02*
X6696372Y-15874174D01*
X6772563Y-16074174D02*
X6782087Y-16064650D01*
X6782087Y-16064650D02*
X6801134Y-16036079D01*
X6801134Y-16036079D02*
X6810658Y-16017031D01*
X6810658Y-16017031D02*
X6820182Y-15988460D01*
X6820182Y-15988460D02*
X6829706Y-15940841D01*
X6829706Y-15940841D02*
X6829706Y-15902746D01*
X6829706Y-15902746D02*
X6820182Y-15855127D01*
X6820182Y-15855127D02*
X6810658Y-15826555D01*
X6810658Y-15826555D02*
X6801134Y-15807508D01*
X6801134Y-15807508D02*
X6782087Y-15778936D01*
X6782087Y-15778936D02*
X6772563Y-15769412D01*
D12*
X1960000Y-16133000D02*
X1960000Y-16208000D01*
X1922500Y-16170500D02*
X1997500Y-16170500D01*
D11*
X2296372Y-16061984D02*
X2315420Y-16061984D01*
X2315420Y-16061984D02*
X2334467Y-16071508D01*
X2334467Y-16071508D02*
X2343991Y-16081031D01*
X2343991Y-16081031D02*
X2353515Y-16100079D01*
X2353515Y-16100079D02*
X2363039Y-16138174D01*
X2363039Y-16138174D02*
X2363039Y-16185793D01*
X2363039Y-16185793D02*
X2353515Y-16223888D01*
X2353515Y-16223888D02*
X2343991Y-16242936D01*
X2343991Y-16242936D02*
X2334467Y-16252460D01*
X2334467Y-16252460D02*
X2315420Y-16261984D01*
X2315420Y-16261984D02*
X2296372Y-16261984D01*
X2296372Y-16261984D02*
X2277324Y-16252460D01*
X2277324Y-16252460D02*
X2267801Y-16242936D01*
X2267801Y-16242936D02*
X2258277Y-16223888D01*
X2258277Y-16223888D02*
X2248753Y-16185793D01*
X2248753Y-16185793D02*
X2248753Y-16138174D01*
X2248753Y-16138174D02*
X2258277Y-16100079D01*
X2258277Y-16100079D02*
X2267801Y-16081031D01*
X2267801Y-16081031D02*
X2277324Y-16071508D01*
X2277324Y-16071508D02*
X2296372Y-16061984D01*
X2448753Y-16242936D02*
X2458277Y-16252460D01*
X2458277Y-16252460D02*
X2448753Y-16261984D01*
X2448753Y-16261984D02*
X2439229Y-16252460D01*
X2439229Y-16252460D02*
X2448753Y-16242936D01*
X2448753Y-16242936D02*
X2448753Y-16261984D01*
X2524944Y-16061984D02*
X2658277Y-16061984D01*
X2658277Y-16061984D02*
X2572563Y-16261984D01*
X2829705Y-16061984D02*
X2734467Y-16061984D01*
X2734467Y-16061984D02*
X2724944Y-16157222D01*
X2724944Y-16157222D02*
X2734467Y-16147698D01*
X2734467Y-16147698D02*
X2753515Y-16138174D01*
X2753515Y-16138174D02*
X2801134Y-16138174D01*
X2801134Y-16138174D02*
X2820182Y-16147698D01*
X2820182Y-16147698D02*
X2829705Y-16157222D01*
X2829705Y-16157222D02*
X2839229Y-16176269D01*
X2839229Y-16176269D02*
X2839229Y-16223888D01*
X2839229Y-16223888D02*
X2829705Y-16242936D01*
X2829705Y-16242936D02*
X2820182Y-16252460D01*
X2820182Y-16252460D02*
X2801134Y-16261984D01*
X2801134Y-16261984D02*
X2753515Y-16261984D01*
X2753515Y-16261984D02*
X2734467Y-16252460D01*
X2734467Y-16252460D02*
X2724944Y-16242936D01*
X2963039Y-16061984D02*
X2982086Y-16061984D01*
X2982086Y-16061984D02*
X3001134Y-16071508D01*
X3001134Y-16071508D02*
X3010658Y-16081031D01*
X3010658Y-16081031D02*
X3020182Y-16100079D01*
X3020182Y-16100079D02*
X3029705Y-16138174D01*
X3029705Y-16138174D02*
X3029705Y-16185793D01*
X3029705Y-16185793D02*
X3020182Y-16223888D01*
X3020182Y-16223888D02*
X3010658Y-16242936D01*
X3010658Y-16242936D02*
X3001134Y-16252460D01*
X3001134Y-16252460D02*
X2982086Y-16261984D01*
X2982086Y-16261984D02*
X2963039Y-16261984D01*
X2963039Y-16261984D02*
X2943991Y-16252460D01*
X2943991Y-16252460D02*
X2934467Y-16242936D01*
X2934467Y-16242936D02*
X2924943Y-16223888D01*
X2924943Y-16223888D02*
X2915420Y-16185793D01*
X2915420Y-16185793D02*
X2915420Y-16138174D01*
X2915420Y-16138174D02*
X2924943Y-16100079D01*
X2924943Y-16100079D02*
X2934467Y-16081031D01*
X2934467Y-16081031D02*
X2943991Y-16071508D01*
X2943991Y-16071508D02*
X2963039Y-16061984D01*
X3115420Y-16261984D02*
X3115420Y-16128650D01*
X3115420Y-16147698D02*
X3124943Y-16138174D01*
X3124943Y-16138174D02*
X3143991Y-16128650D01*
X3143991Y-16128650D02*
X3172563Y-16128650D01*
X3172563Y-16128650D02*
X3191610Y-16138174D01*
X3191610Y-16138174D02*
X3201134Y-16157222D01*
X3201134Y-16157222D02*
X3201134Y-16261984D01*
X3201134Y-16157222D02*
X3210658Y-16138174D01*
X3210658Y-16138174D02*
X3229705Y-16128650D01*
X3229705Y-16128650D02*
X3258277Y-16128650D01*
X3258277Y-16128650D02*
X3277324Y-16138174D01*
X3277324Y-16138174D02*
X3286848Y-16157222D01*
X3286848Y-16157222D02*
X3286848Y-16261984D01*
X3382086Y-16261984D02*
X3382086Y-16128650D01*
X3382086Y-16147698D02*
X3391610Y-16138174D01*
X3391610Y-16138174D02*
X3410658Y-16128650D01*
X3410658Y-16128650D02*
X3439229Y-16128650D01*
X3439229Y-16128650D02*
X3458277Y-16138174D01*
X3458277Y-16138174D02*
X3467801Y-16157222D01*
X3467801Y-16157222D02*
X3467801Y-16261984D01*
X3467801Y-16157222D02*
X3477324Y-16138174D01*
X3477324Y-16138174D02*
X3496372Y-16128650D01*
X3496372Y-16128650D02*
X3524943Y-16128650D01*
X3524943Y-16128650D02*
X3543991Y-16138174D01*
X3543991Y-16138174D02*
X3553515Y-16157222D01*
X3553515Y-16157222D02*
X3553515Y-16261984D01*
X3943991Y-16052460D02*
X3772563Y-16309603D01*
X4201134Y-16061984D02*
X4220182Y-16061984D01*
X4220182Y-16061984D02*
X4239229Y-16071508D01*
X4239229Y-16071508D02*
X4248753Y-16081031D01*
X4248753Y-16081031D02*
X4258277Y-16100079D01*
X4258277Y-16100079D02*
X4267801Y-16138174D01*
X4267801Y-16138174D02*
X4267801Y-16185793D01*
X4267801Y-16185793D02*
X4258277Y-16223888D01*
X4258277Y-16223888D02*
X4248753Y-16242936D01*
X4248753Y-16242936D02*
X4239229Y-16252460D01*
X4239229Y-16252460D02*
X4220182Y-16261984D01*
X4220182Y-16261984D02*
X4201134Y-16261984D01*
X4201134Y-16261984D02*
X4182086Y-16252460D01*
X4182086Y-16252460D02*
X4172563Y-16242936D01*
X4172563Y-16242936D02*
X4163039Y-16223888D01*
X4163039Y-16223888D02*
X4153515Y-16185793D01*
X4153515Y-16185793D02*
X4153515Y-16138174D01*
X4153515Y-16138174D02*
X4163039Y-16100079D01*
X4163039Y-16100079D02*
X4172563Y-16081031D01*
X4172563Y-16081031D02*
X4182086Y-16071508D01*
X4182086Y-16071508D02*
X4201134Y-16061984D01*
X4353515Y-16242936D02*
X4363039Y-16252460D01*
X4363039Y-16252460D02*
X4353515Y-16261984D01*
X4353515Y-16261984D02*
X4343991Y-16252460D01*
X4343991Y-16252460D02*
X4353515Y-16242936D01*
X4353515Y-16242936D02*
X4353515Y-16261984D01*
X4486848Y-16061984D02*
X4505896Y-16061984D01*
X4505896Y-16061984D02*
X4524944Y-16071508D01*
X4524944Y-16071508D02*
X4534468Y-16081031D01*
X4534468Y-16081031D02*
X4543991Y-16100079D01*
X4543991Y-16100079D02*
X4553515Y-16138174D01*
X4553515Y-16138174D02*
X4553515Y-16185793D01*
X4553515Y-16185793D02*
X4543991Y-16223888D01*
X4543991Y-16223888D02*
X4534468Y-16242936D01*
X4534468Y-16242936D02*
X4524944Y-16252460D01*
X4524944Y-16252460D02*
X4505896Y-16261984D01*
X4505896Y-16261984D02*
X4486848Y-16261984D01*
X4486848Y-16261984D02*
X4467801Y-16252460D01*
X4467801Y-16252460D02*
X4458277Y-16242936D01*
X4458277Y-16242936D02*
X4448753Y-16223888D01*
X4448753Y-16223888D02*
X4439229Y-16185793D01*
X4439229Y-16185793D02*
X4439229Y-16138174D01*
X4439229Y-16138174D02*
X4448753Y-16100079D01*
X4448753Y-16100079D02*
X4458277Y-16081031D01*
X4458277Y-16081031D02*
X4467801Y-16071508D01*
X4467801Y-16071508D02*
X4486848Y-16061984D01*
X4629706Y-16081031D02*
X4639229Y-16071508D01*
X4639229Y-16071508D02*
X4658277Y-16061984D01*
X4658277Y-16061984D02*
X4705896Y-16061984D01*
X4705896Y-16061984D02*
X4724944Y-16071508D01*
X4724944Y-16071508D02*
X4734468Y-16081031D01*
X4734468Y-16081031D02*
X4743991Y-16100079D01*
X4743991Y-16100079D02*
X4743991Y-16119127D01*
X4743991Y-16119127D02*
X4734468Y-16147698D01*
X4734468Y-16147698D02*
X4620182Y-16261984D01*
X4620182Y-16261984D02*
X4743991Y-16261984D01*
X4839229Y-16261984D02*
X4877325Y-16261984D01*
X4877325Y-16261984D02*
X4896372Y-16252460D01*
X4896372Y-16252460D02*
X4905896Y-16242936D01*
X4905896Y-16242936D02*
X4924944Y-16214365D01*
X4924944Y-16214365D02*
X4934468Y-16176269D01*
X4934468Y-16176269D02*
X4934468Y-16100079D01*
X4934468Y-16100079D02*
X4924944Y-16081031D01*
X4924944Y-16081031D02*
X4915420Y-16071508D01*
X4915420Y-16071508D02*
X4896372Y-16061984D01*
X4896372Y-16061984D02*
X4858277Y-16061984D01*
X4858277Y-16061984D02*
X4839229Y-16071508D01*
X4839229Y-16071508D02*
X4829706Y-16081031D01*
X4829706Y-16081031D02*
X4820182Y-16100079D01*
X4820182Y-16100079D02*
X4820182Y-16147698D01*
X4820182Y-16147698D02*
X4829706Y-16166746D01*
X4829706Y-16166746D02*
X4839229Y-16176269D01*
X4839229Y-16176269D02*
X4858277Y-16185793D01*
X4858277Y-16185793D02*
X4896372Y-16185793D01*
X4896372Y-16185793D02*
X4915420Y-16176269D01*
X4915420Y-16176269D02*
X4924944Y-16166746D01*
X4924944Y-16166746D02*
X4934468Y-16147698D01*
X5115420Y-16061984D02*
X5020182Y-16061984D01*
X5020182Y-16061984D02*
X5010658Y-16157222D01*
X5010658Y-16157222D02*
X5020182Y-16147698D01*
X5020182Y-16147698D02*
X5039229Y-16138174D01*
X5039229Y-16138174D02*
X5086849Y-16138174D01*
X5086849Y-16138174D02*
X5105896Y-16147698D01*
X5105896Y-16147698D02*
X5115420Y-16157222D01*
X5115420Y-16157222D02*
X5124944Y-16176269D01*
X5124944Y-16176269D02*
X5124944Y-16223888D01*
X5124944Y-16223888D02*
X5115420Y-16242936D01*
X5115420Y-16242936D02*
X5105896Y-16252460D01*
X5105896Y-16252460D02*
X5086849Y-16261984D01*
X5086849Y-16261984D02*
X5039229Y-16261984D01*
X5039229Y-16261984D02*
X5020182Y-16252460D01*
X5020182Y-16252460D02*
X5010658Y-16242936D01*
X5201134Y-16061984D02*
X5201134Y-16100079D01*
X5277325Y-16061984D02*
X5277325Y-16100079D01*
X5572563Y-16338174D02*
X5563039Y-16328650D01*
X5563039Y-16328650D02*
X5543991Y-16300079D01*
X5543991Y-16300079D02*
X5534468Y-16281031D01*
X5534468Y-16281031D02*
X5524944Y-16252460D01*
X5524944Y-16252460D02*
X5515420Y-16204841D01*
X5515420Y-16204841D02*
X5515420Y-16166746D01*
X5515420Y-16166746D02*
X5524944Y-16119127D01*
X5524944Y-16119127D02*
X5534468Y-16090555D01*
X5534468Y-16090555D02*
X5543991Y-16071508D01*
X5543991Y-16071508D02*
X5563039Y-16042936D01*
X5563039Y-16042936D02*
X5572563Y-16033412D01*
X5629706Y-16061984D02*
X5753515Y-16061984D01*
X5753515Y-16061984D02*
X5686848Y-16138174D01*
X5686848Y-16138174D02*
X5715420Y-16138174D01*
X5715420Y-16138174D02*
X5734468Y-16147698D01*
X5734468Y-16147698D02*
X5743991Y-16157222D01*
X5743991Y-16157222D02*
X5753515Y-16176269D01*
X5753515Y-16176269D02*
X5753515Y-16223888D01*
X5753515Y-16223888D02*
X5743991Y-16242936D01*
X5743991Y-16242936D02*
X5734468Y-16252460D01*
X5734468Y-16252460D02*
X5715420Y-16261984D01*
X5715420Y-16261984D02*
X5658277Y-16261984D01*
X5658277Y-16261984D02*
X5639229Y-16252460D01*
X5639229Y-16252460D02*
X5629706Y-16242936D01*
X5877325Y-16061984D02*
X5896372Y-16061984D01*
X5896372Y-16061984D02*
X5915420Y-16071508D01*
X5915420Y-16071508D02*
X5924944Y-16081031D01*
X5924944Y-16081031D02*
X5934468Y-16100079D01*
X5934468Y-16100079D02*
X5943991Y-16138174D01*
X5943991Y-16138174D02*
X5943991Y-16185793D01*
X5943991Y-16185793D02*
X5934468Y-16223888D01*
X5934468Y-16223888D02*
X5924944Y-16242936D01*
X5924944Y-16242936D02*
X5915420Y-16252460D01*
X5915420Y-16252460D02*
X5896372Y-16261984D01*
X5896372Y-16261984D02*
X5877325Y-16261984D01*
X5877325Y-16261984D02*
X5858277Y-16252460D01*
X5858277Y-16252460D02*
X5848753Y-16242936D01*
X5848753Y-16242936D02*
X5839229Y-16223888D01*
X5839229Y-16223888D02*
X5829706Y-16185793D01*
X5829706Y-16185793D02*
X5829706Y-16138174D01*
X5829706Y-16138174D02*
X5839229Y-16100079D01*
X5839229Y-16100079D02*
X5848753Y-16081031D01*
X5848753Y-16081031D02*
X5858277Y-16071508D01*
X5858277Y-16071508D02*
X5877325Y-16061984D01*
X6182087Y-16261984D02*
X6182087Y-16061984D01*
X6267801Y-16261984D02*
X6267801Y-16157222D01*
X6267801Y-16157222D02*
X6258277Y-16138174D01*
X6258277Y-16138174D02*
X6239230Y-16128650D01*
X6239230Y-16128650D02*
X6210658Y-16128650D01*
X6210658Y-16128650D02*
X6191610Y-16138174D01*
X6191610Y-16138174D02*
X6182087Y-16147698D01*
X6391610Y-16261984D02*
X6372563Y-16252460D01*
X6372563Y-16252460D02*
X6363039Y-16242936D01*
X6363039Y-16242936D02*
X6353515Y-16223888D01*
X6353515Y-16223888D02*
X6353515Y-16166746D01*
X6353515Y-16166746D02*
X6363039Y-16147698D01*
X6363039Y-16147698D02*
X6372563Y-16138174D01*
X6372563Y-16138174D02*
X6391610Y-16128650D01*
X6391610Y-16128650D02*
X6420182Y-16128650D01*
X6420182Y-16128650D02*
X6439230Y-16138174D01*
X6439230Y-16138174D02*
X6448753Y-16147698D01*
X6448753Y-16147698D02*
X6458277Y-16166746D01*
X6458277Y-16166746D02*
X6458277Y-16223888D01*
X6458277Y-16223888D02*
X6448753Y-16242936D01*
X6448753Y-16242936D02*
X6439230Y-16252460D01*
X6439230Y-16252460D02*
X6420182Y-16261984D01*
X6420182Y-16261984D02*
X6391610Y-16261984D01*
X6572563Y-16261984D02*
X6553515Y-16252460D01*
X6553515Y-16252460D02*
X6543991Y-16233412D01*
X6543991Y-16233412D02*
X6543991Y-16061984D01*
X6724944Y-16252460D02*
X6705896Y-16261984D01*
X6705896Y-16261984D02*
X6667801Y-16261984D01*
X6667801Y-16261984D02*
X6648753Y-16252460D01*
X6648753Y-16252460D02*
X6639230Y-16233412D01*
X6639230Y-16233412D02*
X6639230Y-16157222D01*
X6639230Y-16157222D02*
X6648753Y-16138174D01*
X6648753Y-16138174D02*
X6667801Y-16128650D01*
X6667801Y-16128650D02*
X6705896Y-16128650D01*
X6705896Y-16128650D02*
X6724944Y-16138174D01*
X6724944Y-16138174D02*
X6734468Y-16157222D01*
X6734468Y-16157222D02*
X6734468Y-16176269D01*
X6734468Y-16176269D02*
X6639230Y-16195317D01*
X6810658Y-16252460D02*
X6829706Y-16261984D01*
X6829706Y-16261984D02*
X6867801Y-16261984D01*
X6867801Y-16261984D02*
X6886849Y-16252460D01*
X6886849Y-16252460D02*
X6896372Y-16233412D01*
X6896372Y-16233412D02*
X6896372Y-16223888D01*
X6896372Y-16223888D02*
X6886849Y-16204841D01*
X6886849Y-16204841D02*
X6867801Y-16195317D01*
X6867801Y-16195317D02*
X6839230Y-16195317D01*
X6839230Y-16195317D02*
X6820182Y-16185793D01*
X6820182Y-16185793D02*
X6810658Y-16166746D01*
X6810658Y-16166746D02*
X6810658Y-16157222D01*
X6810658Y-16157222D02*
X6820182Y-16138174D01*
X6820182Y-16138174D02*
X6839230Y-16128650D01*
X6839230Y-16128650D02*
X6867801Y-16128650D01*
X6867801Y-16128650D02*
X6886849Y-16138174D01*
X6963039Y-16338174D02*
X6972563Y-16328650D01*
X6972563Y-16328650D02*
X6991611Y-16300079D01*
X6991611Y-16300079D02*
X7001134Y-16281031D01*
X7001134Y-16281031D02*
X7010658Y-16252460D01*
X7010658Y-16252460D02*
X7020182Y-16204841D01*
X7020182Y-16204841D02*
X7020182Y-16166746D01*
X7020182Y-16166746D02*
X7010658Y-16119127D01*
X7010658Y-16119127D02*
X7001134Y-16090555D01*
X7001134Y-16090555D02*
X6991611Y-16071508D01*
X6991611Y-16071508D02*
X6972563Y-16042936D01*
X6972563Y-16042936D02*
X6963039Y-16033412D01*
D12*
X1985784Y-16462784D02*
X1985784Y-16406215D01*
X1929215Y-16406215D01*
X1929215Y-16462784D01*
X1985784Y-16462784D01*
D11*
X2296372Y-16325984D02*
X2315420Y-16325984D01*
X2315420Y-16325984D02*
X2334467Y-16335508D01*
X2334467Y-16335508D02*
X2343991Y-16345031D01*
X2343991Y-16345031D02*
X2353515Y-16364079D01*
X2353515Y-16364079D02*
X2363039Y-16402174D01*
X2363039Y-16402174D02*
X2363039Y-16449793D01*
X2363039Y-16449793D02*
X2353515Y-16487888D01*
X2353515Y-16487888D02*
X2343991Y-16506936D01*
X2343991Y-16506936D02*
X2334467Y-16516460D01*
X2334467Y-16516460D02*
X2315420Y-16525984D01*
X2315420Y-16525984D02*
X2296372Y-16525984D01*
X2296372Y-16525984D02*
X2277324Y-16516460D01*
X2277324Y-16516460D02*
X2267801Y-16506936D01*
X2267801Y-16506936D02*
X2258277Y-16487888D01*
X2258277Y-16487888D02*
X2248753Y-16449793D01*
X2248753Y-16449793D02*
X2248753Y-16402174D01*
X2248753Y-16402174D02*
X2258277Y-16364079D01*
X2258277Y-16364079D02*
X2267801Y-16345031D01*
X2267801Y-16345031D02*
X2277324Y-16335508D01*
X2277324Y-16335508D02*
X2296372Y-16325984D01*
X2448753Y-16506936D02*
X2458277Y-16516460D01*
X2458277Y-16516460D02*
X2448753Y-16525984D01*
X2448753Y-16525984D02*
X2439229Y-16516460D01*
X2439229Y-16516460D02*
X2448753Y-16506936D01*
X2448753Y-16506936D02*
X2448753Y-16525984D01*
X2572563Y-16411698D02*
X2553515Y-16402174D01*
X2553515Y-16402174D02*
X2543991Y-16392650D01*
X2543991Y-16392650D02*
X2534467Y-16373603D01*
X2534467Y-16373603D02*
X2534467Y-16364079D01*
X2534467Y-16364079D02*
X2543991Y-16345031D01*
X2543991Y-16345031D02*
X2553515Y-16335508D01*
X2553515Y-16335508D02*
X2572563Y-16325984D01*
X2572563Y-16325984D02*
X2610658Y-16325984D01*
X2610658Y-16325984D02*
X2629705Y-16335508D01*
X2629705Y-16335508D02*
X2639229Y-16345031D01*
X2639229Y-16345031D02*
X2648753Y-16364079D01*
X2648753Y-16364079D02*
X2648753Y-16373603D01*
X2648753Y-16373603D02*
X2639229Y-16392650D01*
X2639229Y-16392650D02*
X2629705Y-16402174D01*
X2629705Y-16402174D02*
X2610658Y-16411698D01*
X2610658Y-16411698D02*
X2572563Y-16411698D01*
X2572563Y-16411698D02*
X2553515Y-16421222D01*
X2553515Y-16421222D02*
X2543991Y-16430746D01*
X2543991Y-16430746D02*
X2534467Y-16449793D01*
X2534467Y-16449793D02*
X2534467Y-16487888D01*
X2534467Y-16487888D02*
X2543991Y-16506936D01*
X2543991Y-16506936D02*
X2553515Y-16516460D01*
X2553515Y-16516460D02*
X2572563Y-16525984D01*
X2572563Y-16525984D02*
X2610658Y-16525984D01*
X2610658Y-16525984D02*
X2629705Y-16516460D01*
X2629705Y-16516460D02*
X2639229Y-16506936D01*
X2639229Y-16506936D02*
X2648753Y-16487888D01*
X2648753Y-16487888D02*
X2648753Y-16449793D01*
X2648753Y-16449793D02*
X2639229Y-16430746D01*
X2639229Y-16430746D02*
X2629705Y-16421222D01*
X2629705Y-16421222D02*
X2610658Y-16411698D01*
X2772563Y-16325984D02*
X2791610Y-16325984D01*
X2791610Y-16325984D02*
X2810658Y-16335508D01*
X2810658Y-16335508D02*
X2820182Y-16345031D01*
X2820182Y-16345031D02*
X2829705Y-16364079D01*
X2829705Y-16364079D02*
X2839229Y-16402174D01*
X2839229Y-16402174D02*
X2839229Y-16449793D01*
X2839229Y-16449793D02*
X2829705Y-16487888D01*
X2829705Y-16487888D02*
X2820182Y-16506936D01*
X2820182Y-16506936D02*
X2810658Y-16516460D01*
X2810658Y-16516460D02*
X2791610Y-16525984D01*
X2791610Y-16525984D02*
X2772563Y-16525984D01*
X2772563Y-16525984D02*
X2753515Y-16516460D01*
X2753515Y-16516460D02*
X2743991Y-16506936D01*
X2743991Y-16506936D02*
X2734467Y-16487888D01*
X2734467Y-16487888D02*
X2724944Y-16449793D01*
X2724944Y-16449793D02*
X2724944Y-16402174D01*
X2724944Y-16402174D02*
X2734467Y-16364079D01*
X2734467Y-16364079D02*
X2743991Y-16345031D01*
X2743991Y-16345031D02*
X2753515Y-16335508D01*
X2753515Y-16335508D02*
X2772563Y-16325984D01*
X2963039Y-16325984D02*
X2982086Y-16325984D01*
X2982086Y-16325984D02*
X3001134Y-16335508D01*
X3001134Y-16335508D02*
X3010658Y-16345031D01*
X3010658Y-16345031D02*
X3020182Y-16364079D01*
X3020182Y-16364079D02*
X3029705Y-16402174D01*
X3029705Y-16402174D02*
X3029705Y-16449793D01*
X3029705Y-16449793D02*
X3020182Y-16487888D01*
X3020182Y-16487888D02*
X3010658Y-16506936D01*
X3010658Y-16506936D02*
X3001134Y-16516460D01*
X3001134Y-16516460D02*
X2982086Y-16525984D01*
X2982086Y-16525984D02*
X2963039Y-16525984D01*
X2963039Y-16525984D02*
X2943991Y-16516460D01*
X2943991Y-16516460D02*
X2934467Y-16506936D01*
X2934467Y-16506936D02*
X2924943Y-16487888D01*
X2924943Y-16487888D02*
X2915420Y-16449793D01*
X2915420Y-16449793D02*
X2915420Y-16402174D01*
X2915420Y-16402174D02*
X2924943Y-16364079D01*
X2924943Y-16364079D02*
X2934467Y-16345031D01*
X2934467Y-16345031D02*
X2943991Y-16335508D01*
X2943991Y-16335508D02*
X2963039Y-16325984D01*
X3115420Y-16525984D02*
X3115420Y-16392650D01*
X3115420Y-16411698D02*
X3124943Y-16402174D01*
X3124943Y-16402174D02*
X3143991Y-16392650D01*
X3143991Y-16392650D02*
X3172563Y-16392650D01*
X3172563Y-16392650D02*
X3191610Y-16402174D01*
X3191610Y-16402174D02*
X3201134Y-16421222D01*
X3201134Y-16421222D02*
X3201134Y-16525984D01*
X3201134Y-16421222D02*
X3210658Y-16402174D01*
X3210658Y-16402174D02*
X3229705Y-16392650D01*
X3229705Y-16392650D02*
X3258277Y-16392650D01*
X3258277Y-16392650D02*
X3277324Y-16402174D01*
X3277324Y-16402174D02*
X3286848Y-16421222D01*
X3286848Y-16421222D02*
X3286848Y-16525984D01*
X3382086Y-16525984D02*
X3382086Y-16392650D01*
X3382086Y-16411698D02*
X3391610Y-16402174D01*
X3391610Y-16402174D02*
X3410658Y-16392650D01*
X3410658Y-16392650D02*
X3439229Y-16392650D01*
X3439229Y-16392650D02*
X3458277Y-16402174D01*
X3458277Y-16402174D02*
X3467801Y-16421222D01*
X3467801Y-16421222D02*
X3467801Y-16525984D01*
X3467801Y-16421222D02*
X3477324Y-16402174D01*
X3477324Y-16402174D02*
X3496372Y-16392650D01*
X3496372Y-16392650D02*
X3524943Y-16392650D01*
X3524943Y-16392650D02*
X3543991Y-16402174D01*
X3543991Y-16402174D02*
X3553515Y-16421222D01*
X3553515Y-16421222D02*
X3553515Y-16525984D01*
X3943991Y-16316460D02*
X3772563Y-16573603D01*
X4201134Y-16325984D02*
X4220182Y-16325984D01*
X4220182Y-16325984D02*
X4239229Y-16335508D01*
X4239229Y-16335508D02*
X4248753Y-16345031D01*
X4248753Y-16345031D02*
X4258277Y-16364079D01*
X4258277Y-16364079D02*
X4267801Y-16402174D01*
X4267801Y-16402174D02*
X4267801Y-16449793D01*
X4267801Y-16449793D02*
X4258277Y-16487888D01*
X4258277Y-16487888D02*
X4248753Y-16506936D01*
X4248753Y-16506936D02*
X4239229Y-16516460D01*
X4239229Y-16516460D02*
X4220182Y-16525984D01*
X4220182Y-16525984D02*
X4201134Y-16525984D01*
X4201134Y-16525984D02*
X4182086Y-16516460D01*
X4182086Y-16516460D02*
X4172563Y-16506936D01*
X4172563Y-16506936D02*
X4163039Y-16487888D01*
X4163039Y-16487888D02*
X4153515Y-16449793D01*
X4153515Y-16449793D02*
X4153515Y-16402174D01*
X4153515Y-16402174D02*
X4163039Y-16364079D01*
X4163039Y-16364079D02*
X4172563Y-16345031D01*
X4172563Y-16345031D02*
X4182086Y-16335508D01*
X4182086Y-16335508D02*
X4201134Y-16325984D01*
X4353515Y-16506936D02*
X4363039Y-16516460D01*
X4363039Y-16516460D02*
X4353515Y-16525984D01*
X4353515Y-16525984D02*
X4343991Y-16516460D01*
X4343991Y-16516460D02*
X4353515Y-16506936D01*
X4353515Y-16506936D02*
X4353515Y-16525984D01*
X4486848Y-16325984D02*
X4505896Y-16325984D01*
X4505896Y-16325984D02*
X4524944Y-16335508D01*
X4524944Y-16335508D02*
X4534468Y-16345031D01*
X4534468Y-16345031D02*
X4543991Y-16364079D01*
X4543991Y-16364079D02*
X4553515Y-16402174D01*
X4553515Y-16402174D02*
X4553515Y-16449793D01*
X4553515Y-16449793D02*
X4543991Y-16487888D01*
X4543991Y-16487888D02*
X4534468Y-16506936D01*
X4534468Y-16506936D02*
X4524944Y-16516460D01*
X4524944Y-16516460D02*
X4505896Y-16525984D01*
X4505896Y-16525984D02*
X4486848Y-16525984D01*
X4486848Y-16525984D02*
X4467801Y-16516460D01*
X4467801Y-16516460D02*
X4458277Y-16506936D01*
X4458277Y-16506936D02*
X4448753Y-16487888D01*
X4448753Y-16487888D02*
X4439229Y-16449793D01*
X4439229Y-16449793D02*
X4439229Y-16402174D01*
X4439229Y-16402174D02*
X4448753Y-16364079D01*
X4448753Y-16364079D02*
X4458277Y-16345031D01*
X4458277Y-16345031D02*
X4467801Y-16335508D01*
X4467801Y-16335508D02*
X4486848Y-16325984D01*
X4620182Y-16325984D02*
X4743991Y-16325984D01*
X4743991Y-16325984D02*
X4677325Y-16402174D01*
X4677325Y-16402174D02*
X4705896Y-16402174D01*
X4705896Y-16402174D02*
X4724944Y-16411698D01*
X4724944Y-16411698D02*
X4734468Y-16421222D01*
X4734468Y-16421222D02*
X4743991Y-16440269D01*
X4743991Y-16440269D02*
X4743991Y-16487888D01*
X4743991Y-16487888D02*
X4734468Y-16506936D01*
X4734468Y-16506936D02*
X4724944Y-16516460D01*
X4724944Y-16516460D02*
X4705896Y-16525984D01*
X4705896Y-16525984D02*
X4648753Y-16525984D01*
X4648753Y-16525984D02*
X4629706Y-16516460D01*
X4629706Y-16516460D02*
X4620182Y-16506936D01*
X4934468Y-16525984D02*
X4820182Y-16525984D01*
X4877325Y-16525984D02*
X4877325Y-16325984D01*
X4877325Y-16325984D02*
X4858277Y-16354555D01*
X4858277Y-16354555D02*
X4839229Y-16373603D01*
X4839229Y-16373603D02*
X4820182Y-16383127D01*
X5115420Y-16325984D02*
X5020182Y-16325984D01*
X5020182Y-16325984D02*
X5010658Y-16421222D01*
X5010658Y-16421222D02*
X5020182Y-16411698D01*
X5020182Y-16411698D02*
X5039229Y-16402174D01*
X5039229Y-16402174D02*
X5086849Y-16402174D01*
X5086849Y-16402174D02*
X5105896Y-16411698D01*
X5105896Y-16411698D02*
X5115420Y-16421222D01*
X5115420Y-16421222D02*
X5124944Y-16440269D01*
X5124944Y-16440269D02*
X5124944Y-16487888D01*
X5124944Y-16487888D02*
X5115420Y-16506936D01*
X5115420Y-16506936D02*
X5105896Y-16516460D01*
X5105896Y-16516460D02*
X5086849Y-16525984D01*
X5086849Y-16525984D02*
X5039229Y-16525984D01*
X5039229Y-16525984D02*
X5020182Y-16516460D01*
X5020182Y-16516460D02*
X5010658Y-16506936D01*
X5201134Y-16325984D02*
X5201134Y-16364079D01*
X5277325Y-16325984D02*
X5277325Y-16364079D01*
X5572563Y-16602174D02*
X5563039Y-16592650D01*
X5563039Y-16592650D02*
X5543991Y-16564079D01*
X5543991Y-16564079D02*
X5534468Y-16545031D01*
X5534468Y-16545031D02*
X5524944Y-16516460D01*
X5524944Y-16516460D02*
X5515420Y-16468841D01*
X5515420Y-16468841D02*
X5515420Y-16430746D01*
X5515420Y-16430746D02*
X5524944Y-16383127D01*
X5524944Y-16383127D02*
X5534468Y-16354555D01*
X5534468Y-16354555D02*
X5543991Y-16335508D01*
X5543991Y-16335508D02*
X5563039Y-16306936D01*
X5563039Y-16306936D02*
X5572563Y-16297412D01*
X5753515Y-16525984D02*
X5639229Y-16525984D01*
X5696372Y-16525984D02*
X5696372Y-16325984D01*
X5696372Y-16325984D02*
X5677325Y-16354555D01*
X5677325Y-16354555D02*
X5658277Y-16373603D01*
X5658277Y-16373603D02*
X5639229Y-16383127D01*
X5943991Y-16525984D02*
X5829706Y-16525984D01*
X5886848Y-16525984D02*
X5886848Y-16325984D01*
X5886848Y-16325984D02*
X5867801Y-16354555D01*
X5867801Y-16354555D02*
X5848753Y-16373603D01*
X5848753Y-16373603D02*
X5829706Y-16383127D01*
X6020182Y-16345031D02*
X6029706Y-16335508D01*
X6029706Y-16335508D02*
X6048753Y-16325984D01*
X6048753Y-16325984D02*
X6096372Y-16325984D01*
X6096372Y-16325984D02*
X6115420Y-16335508D01*
X6115420Y-16335508D02*
X6124944Y-16345031D01*
X6124944Y-16345031D02*
X6134468Y-16364079D01*
X6134468Y-16364079D02*
X6134468Y-16383127D01*
X6134468Y-16383127D02*
X6124944Y-16411698D01*
X6124944Y-16411698D02*
X6010658Y-16525984D01*
X6010658Y-16525984D02*
X6134468Y-16525984D01*
X6372563Y-16525984D02*
X6372563Y-16325984D01*
X6458277Y-16525984D02*
X6458277Y-16421222D01*
X6458277Y-16421222D02*
X6448753Y-16402174D01*
X6448753Y-16402174D02*
X6429706Y-16392650D01*
X6429706Y-16392650D02*
X6401134Y-16392650D01*
X6401134Y-16392650D02*
X6382087Y-16402174D01*
X6382087Y-16402174D02*
X6372563Y-16411698D01*
X6582087Y-16525984D02*
X6563039Y-16516460D01*
X6563039Y-16516460D02*
X6553515Y-16506936D01*
X6553515Y-16506936D02*
X6543991Y-16487888D01*
X6543991Y-16487888D02*
X6543991Y-16430746D01*
X6543991Y-16430746D02*
X6553515Y-16411698D01*
X6553515Y-16411698D02*
X6563039Y-16402174D01*
X6563039Y-16402174D02*
X6582087Y-16392650D01*
X6582087Y-16392650D02*
X6610658Y-16392650D01*
X6610658Y-16392650D02*
X6629706Y-16402174D01*
X6629706Y-16402174D02*
X6639230Y-16411698D01*
X6639230Y-16411698D02*
X6648753Y-16430746D01*
X6648753Y-16430746D02*
X6648753Y-16487888D01*
X6648753Y-16487888D02*
X6639230Y-16506936D01*
X6639230Y-16506936D02*
X6629706Y-16516460D01*
X6629706Y-16516460D02*
X6610658Y-16525984D01*
X6610658Y-16525984D02*
X6582087Y-16525984D01*
X6763039Y-16525984D02*
X6743991Y-16516460D01*
X6743991Y-16516460D02*
X6734468Y-16497412D01*
X6734468Y-16497412D02*
X6734468Y-16325984D01*
X6915420Y-16516460D02*
X6896372Y-16525984D01*
X6896372Y-16525984D02*
X6858277Y-16525984D01*
X6858277Y-16525984D02*
X6839230Y-16516460D01*
X6839230Y-16516460D02*
X6829706Y-16497412D01*
X6829706Y-16497412D02*
X6829706Y-16421222D01*
X6829706Y-16421222D02*
X6839230Y-16402174D01*
X6839230Y-16402174D02*
X6858277Y-16392650D01*
X6858277Y-16392650D02*
X6896372Y-16392650D01*
X6896372Y-16392650D02*
X6915420Y-16402174D01*
X6915420Y-16402174D02*
X6924944Y-16421222D01*
X6924944Y-16421222D02*
X6924944Y-16440269D01*
X6924944Y-16440269D02*
X6829706Y-16459317D01*
X7001134Y-16516460D02*
X7020182Y-16525984D01*
X7020182Y-16525984D02*
X7058277Y-16525984D01*
X7058277Y-16525984D02*
X7077325Y-16516460D01*
X7077325Y-16516460D02*
X7086849Y-16497412D01*
X7086849Y-16497412D02*
X7086849Y-16487888D01*
X7086849Y-16487888D02*
X7077325Y-16468841D01*
X7077325Y-16468841D02*
X7058277Y-16459317D01*
X7058277Y-16459317D02*
X7029706Y-16459317D01*
X7029706Y-16459317D02*
X7010658Y-16449793D01*
X7010658Y-16449793D02*
X7001134Y-16430746D01*
X7001134Y-16430746D02*
X7001134Y-16421222D01*
X7001134Y-16421222D02*
X7010658Y-16402174D01*
X7010658Y-16402174D02*
X7029706Y-16392650D01*
X7029706Y-16392650D02*
X7058277Y-16392650D01*
X7058277Y-16392650D02*
X7077325Y-16402174D01*
X7153515Y-16602174D02*
X7163039Y-16592650D01*
X7163039Y-16592650D02*
X7182087Y-16564079D01*
X7182087Y-16564079D02*
X7191611Y-16545031D01*
X7191611Y-16545031D02*
X7201134Y-16516460D01*
X7201134Y-16516460D02*
X7210658Y-16468841D01*
X7210658Y-16468841D02*
X7210658Y-16430746D01*
X7210658Y-16430746D02*
X7201134Y-16383127D01*
X7201134Y-16383127D02*
X7191611Y-16354555D01*
X7191611Y-16354555D02*
X7182087Y-16335508D01*
X7182087Y-16335508D02*
X7163039Y-16306936D01*
X7163039Y-16306936D02*
X7153515Y-16297412D01*
D12*
X1947500Y-16748500D02*
X1997500Y-16698500D01*
X1947500Y-16648500D01*
X1897500Y-16698500D01*
X1947500Y-16748500D01*
D11*
X2363039Y-16789984D02*
X2248753Y-16789984D01*
X2305896Y-16789984D02*
X2305896Y-16589984D01*
X2305896Y-16589984D02*
X2286848Y-16618555D01*
X2286848Y-16618555D02*
X2267801Y-16637603D01*
X2267801Y-16637603D02*
X2248753Y-16647127D01*
X2448753Y-16770936D02*
X2458277Y-16780460D01*
X2458277Y-16780460D02*
X2448753Y-16789984D01*
X2448753Y-16789984D02*
X2439229Y-16780460D01*
X2439229Y-16780460D02*
X2448753Y-16770936D01*
X2448753Y-16770936D02*
X2448753Y-16789984D01*
X2582086Y-16589984D02*
X2601134Y-16589984D01*
X2601134Y-16589984D02*
X2620182Y-16599508D01*
X2620182Y-16599508D02*
X2629705Y-16609031D01*
X2629705Y-16609031D02*
X2639229Y-16628079D01*
X2639229Y-16628079D02*
X2648753Y-16666174D01*
X2648753Y-16666174D02*
X2648753Y-16713793D01*
X2648753Y-16713793D02*
X2639229Y-16751888D01*
X2639229Y-16751888D02*
X2629705Y-16770936D01*
X2629705Y-16770936D02*
X2620182Y-16780460D01*
X2620182Y-16780460D02*
X2601134Y-16789984D01*
X2601134Y-16789984D02*
X2582086Y-16789984D01*
X2582086Y-16789984D02*
X2563039Y-16780460D01*
X2563039Y-16780460D02*
X2553515Y-16770936D01*
X2553515Y-16770936D02*
X2543991Y-16751888D01*
X2543991Y-16751888D02*
X2534467Y-16713793D01*
X2534467Y-16713793D02*
X2534467Y-16666174D01*
X2534467Y-16666174D02*
X2543991Y-16628079D01*
X2543991Y-16628079D02*
X2553515Y-16609031D01*
X2553515Y-16609031D02*
X2563039Y-16599508D01*
X2563039Y-16599508D02*
X2582086Y-16589984D01*
X2772563Y-16589984D02*
X2791610Y-16589984D01*
X2791610Y-16589984D02*
X2810658Y-16599508D01*
X2810658Y-16599508D02*
X2820182Y-16609031D01*
X2820182Y-16609031D02*
X2829705Y-16628079D01*
X2829705Y-16628079D02*
X2839229Y-16666174D01*
X2839229Y-16666174D02*
X2839229Y-16713793D01*
X2839229Y-16713793D02*
X2829705Y-16751888D01*
X2829705Y-16751888D02*
X2820182Y-16770936D01*
X2820182Y-16770936D02*
X2810658Y-16780460D01*
X2810658Y-16780460D02*
X2791610Y-16789984D01*
X2791610Y-16789984D02*
X2772563Y-16789984D01*
X2772563Y-16789984D02*
X2753515Y-16780460D01*
X2753515Y-16780460D02*
X2743991Y-16770936D01*
X2743991Y-16770936D02*
X2734467Y-16751888D01*
X2734467Y-16751888D02*
X2724944Y-16713793D01*
X2724944Y-16713793D02*
X2724944Y-16666174D01*
X2724944Y-16666174D02*
X2734467Y-16628079D01*
X2734467Y-16628079D02*
X2743991Y-16609031D01*
X2743991Y-16609031D02*
X2753515Y-16599508D01*
X2753515Y-16599508D02*
X2772563Y-16589984D01*
X2963039Y-16589984D02*
X2982086Y-16589984D01*
X2982086Y-16589984D02*
X3001134Y-16599508D01*
X3001134Y-16599508D02*
X3010658Y-16609031D01*
X3010658Y-16609031D02*
X3020182Y-16628079D01*
X3020182Y-16628079D02*
X3029705Y-16666174D01*
X3029705Y-16666174D02*
X3029705Y-16713793D01*
X3029705Y-16713793D02*
X3020182Y-16751888D01*
X3020182Y-16751888D02*
X3010658Y-16770936D01*
X3010658Y-16770936D02*
X3001134Y-16780460D01*
X3001134Y-16780460D02*
X2982086Y-16789984D01*
X2982086Y-16789984D02*
X2963039Y-16789984D01*
X2963039Y-16789984D02*
X2943991Y-16780460D01*
X2943991Y-16780460D02*
X2934467Y-16770936D01*
X2934467Y-16770936D02*
X2924943Y-16751888D01*
X2924943Y-16751888D02*
X2915420Y-16713793D01*
X2915420Y-16713793D02*
X2915420Y-16666174D01*
X2915420Y-16666174D02*
X2924943Y-16628079D01*
X2924943Y-16628079D02*
X2934467Y-16609031D01*
X2934467Y-16609031D02*
X2943991Y-16599508D01*
X2943991Y-16599508D02*
X2963039Y-16589984D01*
X3115420Y-16789984D02*
X3115420Y-16656650D01*
X3115420Y-16675698D02*
X3124943Y-16666174D01*
X3124943Y-16666174D02*
X3143991Y-16656650D01*
X3143991Y-16656650D02*
X3172563Y-16656650D01*
X3172563Y-16656650D02*
X3191610Y-16666174D01*
X3191610Y-16666174D02*
X3201134Y-16685222D01*
X3201134Y-16685222D02*
X3201134Y-16789984D01*
X3201134Y-16685222D02*
X3210658Y-16666174D01*
X3210658Y-16666174D02*
X3229705Y-16656650D01*
X3229705Y-16656650D02*
X3258277Y-16656650D01*
X3258277Y-16656650D02*
X3277324Y-16666174D01*
X3277324Y-16666174D02*
X3286848Y-16685222D01*
X3286848Y-16685222D02*
X3286848Y-16789984D01*
X3382086Y-16789984D02*
X3382086Y-16656650D01*
X3382086Y-16675698D02*
X3391610Y-16666174D01*
X3391610Y-16666174D02*
X3410658Y-16656650D01*
X3410658Y-16656650D02*
X3439229Y-16656650D01*
X3439229Y-16656650D02*
X3458277Y-16666174D01*
X3458277Y-16666174D02*
X3467801Y-16685222D01*
X3467801Y-16685222D02*
X3467801Y-16789984D01*
X3467801Y-16685222D02*
X3477324Y-16666174D01*
X3477324Y-16666174D02*
X3496372Y-16656650D01*
X3496372Y-16656650D02*
X3524943Y-16656650D01*
X3524943Y-16656650D02*
X3543991Y-16666174D01*
X3543991Y-16666174D02*
X3553515Y-16685222D01*
X3553515Y-16685222D02*
X3553515Y-16789984D01*
X3943991Y-16580460D02*
X3772563Y-16837603D01*
X4201134Y-16589984D02*
X4220182Y-16589984D01*
X4220182Y-16589984D02*
X4239229Y-16599508D01*
X4239229Y-16599508D02*
X4248753Y-16609031D01*
X4248753Y-16609031D02*
X4258277Y-16628079D01*
X4258277Y-16628079D02*
X4267801Y-16666174D01*
X4267801Y-16666174D02*
X4267801Y-16713793D01*
X4267801Y-16713793D02*
X4258277Y-16751888D01*
X4258277Y-16751888D02*
X4248753Y-16770936D01*
X4248753Y-16770936D02*
X4239229Y-16780460D01*
X4239229Y-16780460D02*
X4220182Y-16789984D01*
X4220182Y-16789984D02*
X4201134Y-16789984D01*
X4201134Y-16789984D02*
X4182086Y-16780460D01*
X4182086Y-16780460D02*
X4172563Y-16770936D01*
X4172563Y-16770936D02*
X4163039Y-16751888D01*
X4163039Y-16751888D02*
X4153515Y-16713793D01*
X4153515Y-16713793D02*
X4153515Y-16666174D01*
X4153515Y-16666174D02*
X4163039Y-16628079D01*
X4163039Y-16628079D02*
X4172563Y-16609031D01*
X4172563Y-16609031D02*
X4182086Y-16599508D01*
X4182086Y-16599508D02*
X4201134Y-16589984D01*
X4353515Y-16770936D02*
X4363039Y-16780460D01*
X4363039Y-16780460D02*
X4353515Y-16789984D01*
X4353515Y-16789984D02*
X4343991Y-16780460D01*
X4343991Y-16780460D02*
X4353515Y-16770936D01*
X4353515Y-16770936D02*
X4353515Y-16789984D01*
X4486848Y-16589984D02*
X4505896Y-16589984D01*
X4505896Y-16589984D02*
X4524944Y-16599508D01*
X4524944Y-16599508D02*
X4534468Y-16609031D01*
X4534468Y-16609031D02*
X4543991Y-16628079D01*
X4543991Y-16628079D02*
X4553515Y-16666174D01*
X4553515Y-16666174D02*
X4553515Y-16713793D01*
X4553515Y-16713793D02*
X4543991Y-16751888D01*
X4543991Y-16751888D02*
X4534468Y-16770936D01*
X4534468Y-16770936D02*
X4524944Y-16780460D01*
X4524944Y-16780460D02*
X4505896Y-16789984D01*
X4505896Y-16789984D02*
X4486848Y-16789984D01*
X4486848Y-16789984D02*
X4467801Y-16780460D01*
X4467801Y-16780460D02*
X4458277Y-16770936D01*
X4458277Y-16770936D02*
X4448753Y-16751888D01*
X4448753Y-16751888D02*
X4439229Y-16713793D01*
X4439229Y-16713793D02*
X4439229Y-16666174D01*
X4439229Y-16666174D02*
X4448753Y-16628079D01*
X4448753Y-16628079D02*
X4458277Y-16609031D01*
X4458277Y-16609031D02*
X4467801Y-16599508D01*
X4467801Y-16599508D02*
X4486848Y-16589984D01*
X4620182Y-16589984D02*
X4743991Y-16589984D01*
X4743991Y-16589984D02*
X4677325Y-16666174D01*
X4677325Y-16666174D02*
X4705896Y-16666174D01*
X4705896Y-16666174D02*
X4724944Y-16675698D01*
X4724944Y-16675698D02*
X4734468Y-16685222D01*
X4734468Y-16685222D02*
X4743991Y-16704269D01*
X4743991Y-16704269D02*
X4743991Y-16751888D01*
X4743991Y-16751888D02*
X4734468Y-16770936D01*
X4734468Y-16770936D02*
X4724944Y-16780460D01*
X4724944Y-16780460D02*
X4705896Y-16789984D01*
X4705896Y-16789984D02*
X4648753Y-16789984D01*
X4648753Y-16789984D02*
X4629706Y-16780460D01*
X4629706Y-16780460D02*
X4620182Y-16770936D01*
X4839229Y-16789984D02*
X4877325Y-16789984D01*
X4877325Y-16789984D02*
X4896372Y-16780460D01*
X4896372Y-16780460D02*
X4905896Y-16770936D01*
X4905896Y-16770936D02*
X4924944Y-16742365D01*
X4924944Y-16742365D02*
X4934468Y-16704269D01*
X4934468Y-16704269D02*
X4934468Y-16628079D01*
X4934468Y-16628079D02*
X4924944Y-16609031D01*
X4924944Y-16609031D02*
X4915420Y-16599508D01*
X4915420Y-16599508D02*
X4896372Y-16589984D01*
X4896372Y-16589984D02*
X4858277Y-16589984D01*
X4858277Y-16589984D02*
X4839229Y-16599508D01*
X4839229Y-16599508D02*
X4829706Y-16609031D01*
X4829706Y-16609031D02*
X4820182Y-16628079D01*
X4820182Y-16628079D02*
X4820182Y-16675698D01*
X4820182Y-16675698D02*
X4829706Y-16694746D01*
X4829706Y-16694746D02*
X4839229Y-16704269D01*
X4839229Y-16704269D02*
X4858277Y-16713793D01*
X4858277Y-16713793D02*
X4896372Y-16713793D01*
X4896372Y-16713793D02*
X4915420Y-16704269D01*
X4915420Y-16704269D02*
X4924944Y-16694746D01*
X4924944Y-16694746D02*
X4934468Y-16675698D01*
X5105896Y-16656650D02*
X5105896Y-16789984D01*
X5058277Y-16580460D02*
X5010658Y-16723317D01*
X5010658Y-16723317D02*
X5134468Y-16723317D01*
X5201134Y-16589984D02*
X5201134Y-16628079D01*
X5277325Y-16589984D02*
X5277325Y-16628079D01*
X5572563Y-16866174D02*
X5563039Y-16856650D01*
X5563039Y-16856650D02*
X5543991Y-16828079D01*
X5543991Y-16828079D02*
X5534468Y-16809031D01*
X5534468Y-16809031D02*
X5524944Y-16780460D01*
X5524944Y-16780460D02*
X5515420Y-16732841D01*
X5515420Y-16732841D02*
X5515420Y-16694746D01*
X5515420Y-16694746D02*
X5524944Y-16647127D01*
X5524944Y-16647127D02*
X5534468Y-16618555D01*
X5534468Y-16618555D02*
X5543991Y-16599508D01*
X5543991Y-16599508D02*
X5563039Y-16570936D01*
X5563039Y-16570936D02*
X5572563Y-16561412D01*
X5753515Y-16789984D02*
X5639229Y-16789984D01*
X5696372Y-16789984D02*
X5696372Y-16589984D01*
X5696372Y-16589984D02*
X5677325Y-16618555D01*
X5677325Y-16618555D02*
X5658277Y-16637603D01*
X5658277Y-16637603D02*
X5639229Y-16647127D01*
X5867801Y-16675698D02*
X5848753Y-16666174D01*
X5848753Y-16666174D02*
X5839229Y-16656650D01*
X5839229Y-16656650D02*
X5829706Y-16637603D01*
X5829706Y-16637603D02*
X5829706Y-16628079D01*
X5829706Y-16628079D02*
X5839229Y-16609031D01*
X5839229Y-16609031D02*
X5848753Y-16599508D01*
X5848753Y-16599508D02*
X5867801Y-16589984D01*
X5867801Y-16589984D02*
X5905896Y-16589984D01*
X5905896Y-16589984D02*
X5924944Y-16599508D01*
X5924944Y-16599508D02*
X5934468Y-16609031D01*
X5934468Y-16609031D02*
X5943991Y-16628079D01*
X5943991Y-16628079D02*
X5943991Y-16637603D01*
X5943991Y-16637603D02*
X5934468Y-16656650D01*
X5934468Y-16656650D02*
X5924944Y-16666174D01*
X5924944Y-16666174D02*
X5905896Y-16675698D01*
X5905896Y-16675698D02*
X5867801Y-16675698D01*
X5867801Y-16675698D02*
X5848753Y-16685222D01*
X5848753Y-16685222D02*
X5839229Y-16694746D01*
X5839229Y-16694746D02*
X5829706Y-16713793D01*
X5829706Y-16713793D02*
X5829706Y-16751888D01*
X5829706Y-16751888D02*
X5839229Y-16770936D01*
X5839229Y-16770936D02*
X5848753Y-16780460D01*
X5848753Y-16780460D02*
X5867801Y-16789984D01*
X5867801Y-16789984D02*
X5905896Y-16789984D01*
X5905896Y-16789984D02*
X5924944Y-16780460D01*
X5924944Y-16780460D02*
X5934468Y-16770936D01*
X5934468Y-16770936D02*
X5943991Y-16751888D01*
X5943991Y-16751888D02*
X5943991Y-16713793D01*
X5943991Y-16713793D02*
X5934468Y-16694746D01*
X5934468Y-16694746D02*
X5924944Y-16685222D01*
X5924944Y-16685222D02*
X5905896Y-16675698D01*
X6182087Y-16789984D02*
X6182087Y-16589984D01*
X6267801Y-16789984D02*
X6267801Y-16685222D01*
X6267801Y-16685222D02*
X6258277Y-16666174D01*
X6258277Y-16666174D02*
X6239230Y-16656650D01*
X6239230Y-16656650D02*
X6210658Y-16656650D01*
X6210658Y-16656650D02*
X6191610Y-16666174D01*
X6191610Y-16666174D02*
X6182087Y-16675698D01*
X6391610Y-16789984D02*
X6372563Y-16780460D01*
X6372563Y-16780460D02*
X6363039Y-16770936D01*
X6363039Y-16770936D02*
X6353515Y-16751888D01*
X6353515Y-16751888D02*
X6353515Y-16694746D01*
X6353515Y-16694746D02*
X6363039Y-16675698D01*
X6363039Y-16675698D02*
X6372563Y-16666174D01*
X6372563Y-16666174D02*
X6391610Y-16656650D01*
X6391610Y-16656650D02*
X6420182Y-16656650D01*
X6420182Y-16656650D02*
X6439230Y-16666174D01*
X6439230Y-16666174D02*
X6448753Y-16675698D01*
X6448753Y-16675698D02*
X6458277Y-16694746D01*
X6458277Y-16694746D02*
X6458277Y-16751888D01*
X6458277Y-16751888D02*
X6448753Y-16770936D01*
X6448753Y-16770936D02*
X6439230Y-16780460D01*
X6439230Y-16780460D02*
X6420182Y-16789984D01*
X6420182Y-16789984D02*
X6391610Y-16789984D01*
X6572563Y-16789984D02*
X6553515Y-16780460D01*
X6553515Y-16780460D02*
X6543991Y-16761412D01*
X6543991Y-16761412D02*
X6543991Y-16589984D01*
X6724944Y-16780460D02*
X6705896Y-16789984D01*
X6705896Y-16789984D02*
X6667801Y-16789984D01*
X6667801Y-16789984D02*
X6648753Y-16780460D01*
X6648753Y-16780460D02*
X6639230Y-16761412D01*
X6639230Y-16761412D02*
X6639230Y-16685222D01*
X6639230Y-16685222D02*
X6648753Y-16666174D01*
X6648753Y-16666174D02*
X6667801Y-16656650D01*
X6667801Y-16656650D02*
X6705896Y-16656650D01*
X6705896Y-16656650D02*
X6724944Y-16666174D01*
X6724944Y-16666174D02*
X6734468Y-16685222D01*
X6734468Y-16685222D02*
X6734468Y-16704269D01*
X6734468Y-16704269D02*
X6639230Y-16723317D01*
X6810658Y-16780460D02*
X6829706Y-16789984D01*
X6829706Y-16789984D02*
X6867801Y-16789984D01*
X6867801Y-16789984D02*
X6886849Y-16780460D01*
X6886849Y-16780460D02*
X6896372Y-16761412D01*
X6896372Y-16761412D02*
X6896372Y-16751888D01*
X6896372Y-16751888D02*
X6886849Y-16732841D01*
X6886849Y-16732841D02*
X6867801Y-16723317D01*
X6867801Y-16723317D02*
X6839230Y-16723317D01*
X6839230Y-16723317D02*
X6820182Y-16713793D01*
X6820182Y-16713793D02*
X6810658Y-16694746D01*
X6810658Y-16694746D02*
X6810658Y-16685222D01*
X6810658Y-16685222D02*
X6820182Y-16666174D01*
X6820182Y-16666174D02*
X6839230Y-16656650D01*
X6839230Y-16656650D02*
X6867801Y-16656650D01*
X6867801Y-16656650D02*
X6886849Y-16666174D01*
X6963039Y-16866174D02*
X6972563Y-16856650D01*
X6972563Y-16856650D02*
X6991611Y-16828079D01*
X6991611Y-16828079D02*
X7001134Y-16809031D01*
X7001134Y-16809031D02*
X7010658Y-16780460D01*
X7010658Y-16780460D02*
X7020182Y-16732841D01*
X7020182Y-16732841D02*
X7020182Y-16694746D01*
X7020182Y-16694746D02*
X7010658Y-16647127D01*
X7010658Y-16647127D02*
X7001134Y-16618555D01*
X7001134Y-16618555D02*
X6991611Y-16599508D01*
X6991611Y-16599508D02*
X6972563Y-16570936D01*
X6972563Y-16570936D02*
X6963039Y-16561412D01*
D13*
X1887500Y-16907500D02*
X1997500Y-17017500D01*
X1997500Y-16907500D02*
X1887500Y-17017500D01*
X1997500Y-16962500D02*
G75*
G02*
X1887500Y-16962500I-55000J0D01*
G01*
X1887500Y-16962500D02*
G75*
G02*
X1997500Y-16962500I55000J0D01*
G01*
D11*
X2363039Y-17053984D02*
X2248753Y-17053984D01*
X2305896Y-17053984D02*
X2305896Y-16853984D01*
X2305896Y-16853984D02*
X2286848Y-16882555D01*
X2286848Y-16882555D02*
X2267801Y-16901603D01*
X2267801Y-16901603D02*
X2248753Y-16911127D01*
X2448753Y-17034936D02*
X2458277Y-17044460D01*
X2458277Y-17044460D02*
X2448753Y-17053984D01*
X2448753Y-17053984D02*
X2439229Y-17044460D01*
X2439229Y-17044460D02*
X2448753Y-17034936D01*
X2448753Y-17034936D02*
X2448753Y-17053984D01*
X2648753Y-17053984D02*
X2534467Y-17053984D01*
X2591610Y-17053984D02*
X2591610Y-16853984D01*
X2591610Y-16853984D02*
X2572563Y-16882555D01*
X2572563Y-16882555D02*
X2553515Y-16901603D01*
X2553515Y-16901603D02*
X2534467Y-16911127D01*
X2772563Y-16853984D02*
X2791610Y-16853984D01*
X2791610Y-16853984D02*
X2810658Y-16863508D01*
X2810658Y-16863508D02*
X2820182Y-16873031D01*
X2820182Y-16873031D02*
X2829705Y-16892079D01*
X2829705Y-16892079D02*
X2839229Y-16930174D01*
X2839229Y-16930174D02*
X2839229Y-16977793D01*
X2839229Y-16977793D02*
X2829705Y-17015889D01*
X2829705Y-17015889D02*
X2820182Y-17034936D01*
X2820182Y-17034936D02*
X2810658Y-17044460D01*
X2810658Y-17044460D02*
X2791610Y-17053984D01*
X2791610Y-17053984D02*
X2772563Y-17053984D01*
X2772563Y-17053984D02*
X2753515Y-17044460D01*
X2753515Y-17044460D02*
X2743991Y-17034936D01*
X2743991Y-17034936D02*
X2734467Y-17015889D01*
X2734467Y-17015889D02*
X2724944Y-16977793D01*
X2724944Y-16977793D02*
X2724944Y-16930174D01*
X2724944Y-16930174D02*
X2734467Y-16892079D01*
X2734467Y-16892079D02*
X2743991Y-16873031D01*
X2743991Y-16873031D02*
X2753515Y-16863508D01*
X2753515Y-16863508D02*
X2772563Y-16853984D01*
X2963039Y-16853984D02*
X2982086Y-16853984D01*
X2982086Y-16853984D02*
X3001134Y-16863508D01*
X3001134Y-16863508D02*
X3010658Y-16873031D01*
X3010658Y-16873031D02*
X3020182Y-16892079D01*
X3020182Y-16892079D02*
X3029705Y-16930174D01*
X3029705Y-16930174D02*
X3029705Y-16977793D01*
X3029705Y-16977793D02*
X3020182Y-17015889D01*
X3020182Y-17015889D02*
X3010658Y-17034936D01*
X3010658Y-17034936D02*
X3001134Y-17044460D01*
X3001134Y-17044460D02*
X2982086Y-17053984D01*
X2982086Y-17053984D02*
X2963039Y-17053984D01*
X2963039Y-17053984D02*
X2943991Y-17044460D01*
X2943991Y-17044460D02*
X2934467Y-17034936D01*
X2934467Y-17034936D02*
X2924943Y-17015889D01*
X2924943Y-17015889D02*
X2915420Y-16977793D01*
X2915420Y-16977793D02*
X2915420Y-16930174D01*
X2915420Y-16930174D02*
X2924943Y-16892079D01*
X2924943Y-16892079D02*
X2934467Y-16873031D01*
X2934467Y-16873031D02*
X2943991Y-16863508D01*
X2943991Y-16863508D02*
X2963039Y-16853984D01*
X3115420Y-17053984D02*
X3115420Y-16920650D01*
X3115420Y-16939698D02*
X3124943Y-16930174D01*
X3124943Y-16930174D02*
X3143991Y-16920650D01*
X3143991Y-16920650D02*
X3172563Y-16920650D01*
X3172563Y-16920650D02*
X3191610Y-16930174D01*
X3191610Y-16930174D02*
X3201134Y-16949222D01*
X3201134Y-16949222D02*
X3201134Y-17053984D01*
X3201134Y-16949222D02*
X3210658Y-16930174D01*
X3210658Y-16930174D02*
X3229705Y-16920650D01*
X3229705Y-16920650D02*
X3258277Y-16920650D01*
X3258277Y-16920650D02*
X3277324Y-16930174D01*
X3277324Y-16930174D02*
X3286848Y-16949222D01*
X3286848Y-16949222D02*
X3286848Y-17053984D01*
X3382086Y-17053984D02*
X3382086Y-16920650D01*
X3382086Y-16939698D02*
X3391610Y-16930174D01*
X3391610Y-16930174D02*
X3410658Y-16920650D01*
X3410658Y-16920650D02*
X3439229Y-16920650D01*
X3439229Y-16920650D02*
X3458277Y-16930174D01*
X3458277Y-16930174D02*
X3467801Y-16949222D01*
X3467801Y-16949222D02*
X3467801Y-17053984D01*
X3467801Y-16949222D02*
X3477324Y-16930174D01*
X3477324Y-16930174D02*
X3496372Y-16920650D01*
X3496372Y-16920650D02*
X3524943Y-16920650D01*
X3524943Y-16920650D02*
X3543991Y-16930174D01*
X3543991Y-16930174D02*
X3553515Y-16949222D01*
X3553515Y-16949222D02*
X3553515Y-17053984D01*
X3943991Y-16844460D02*
X3772563Y-17101603D01*
X4201134Y-16853984D02*
X4220182Y-16853984D01*
X4220182Y-16853984D02*
X4239229Y-16863508D01*
X4239229Y-16863508D02*
X4248753Y-16873031D01*
X4248753Y-16873031D02*
X4258277Y-16892079D01*
X4258277Y-16892079D02*
X4267801Y-16930174D01*
X4267801Y-16930174D02*
X4267801Y-16977793D01*
X4267801Y-16977793D02*
X4258277Y-17015889D01*
X4258277Y-17015889D02*
X4248753Y-17034936D01*
X4248753Y-17034936D02*
X4239229Y-17044460D01*
X4239229Y-17044460D02*
X4220182Y-17053984D01*
X4220182Y-17053984D02*
X4201134Y-17053984D01*
X4201134Y-17053984D02*
X4182086Y-17044460D01*
X4182086Y-17044460D02*
X4172563Y-17034936D01*
X4172563Y-17034936D02*
X4163039Y-17015889D01*
X4163039Y-17015889D02*
X4153515Y-16977793D01*
X4153515Y-16977793D02*
X4153515Y-16930174D01*
X4153515Y-16930174D02*
X4163039Y-16892079D01*
X4163039Y-16892079D02*
X4172563Y-16873031D01*
X4172563Y-16873031D02*
X4182086Y-16863508D01*
X4182086Y-16863508D02*
X4201134Y-16853984D01*
X4353515Y-17034936D02*
X4363039Y-17044460D01*
X4363039Y-17044460D02*
X4353515Y-17053984D01*
X4353515Y-17053984D02*
X4343991Y-17044460D01*
X4343991Y-17044460D02*
X4353515Y-17034936D01*
X4353515Y-17034936D02*
X4353515Y-17053984D01*
X4486848Y-16853984D02*
X4505896Y-16853984D01*
X4505896Y-16853984D02*
X4524944Y-16863508D01*
X4524944Y-16863508D02*
X4534468Y-16873031D01*
X4534468Y-16873031D02*
X4543991Y-16892079D01*
X4543991Y-16892079D02*
X4553515Y-16930174D01*
X4553515Y-16930174D02*
X4553515Y-16977793D01*
X4553515Y-16977793D02*
X4543991Y-17015889D01*
X4543991Y-17015889D02*
X4534468Y-17034936D01*
X4534468Y-17034936D02*
X4524944Y-17044460D01*
X4524944Y-17044460D02*
X4505896Y-17053984D01*
X4505896Y-17053984D02*
X4486848Y-17053984D01*
X4486848Y-17053984D02*
X4467801Y-17044460D01*
X4467801Y-17044460D02*
X4458277Y-17034936D01*
X4458277Y-17034936D02*
X4448753Y-17015889D01*
X4448753Y-17015889D02*
X4439229Y-16977793D01*
X4439229Y-16977793D02*
X4439229Y-16930174D01*
X4439229Y-16930174D02*
X4448753Y-16892079D01*
X4448753Y-16892079D02*
X4458277Y-16873031D01*
X4458277Y-16873031D02*
X4467801Y-16863508D01*
X4467801Y-16863508D02*
X4486848Y-16853984D01*
X4724944Y-16920650D02*
X4724944Y-17053984D01*
X4677325Y-16844460D02*
X4629706Y-16987317D01*
X4629706Y-16987317D02*
X4753515Y-16987317D01*
X4810658Y-16853984D02*
X4934468Y-16853984D01*
X4934468Y-16853984D02*
X4867801Y-16930174D01*
X4867801Y-16930174D02*
X4896372Y-16930174D01*
X4896372Y-16930174D02*
X4915420Y-16939698D01*
X4915420Y-16939698D02*
X4924944Y-16949222D01*
X4924944Y-16949222D02*
X4934468Y-16968270D01*
X4934468Y-16968270D02*
X4934468Y-17015889D01*
X4934468Y-17015889D02*
X4924944Y-17034936D01*
X4924944Y-17034936D02*
X4915420Y-17044460D01*
X4915420Y-17044460D02*
X4896372Y-17053984D01*
X4896372Y-17053984D02*
X4839229Y-17053984D01*
X4839229Y-17053984D02*
X4820182Y-17044460D01*
X4820182Y-17044460D02*
X4810658Y-17034936D01*
X5001134Y-16853984D02*
X5124944Y-16853984D01*
X5124944Y-16853984D02*
X5058277Y-16930174D01*
X5058277Y-16930174D02*
X5086849Y-16930174D01*
X5086849Y-16930174D02*
X5105896Y-16939698D01*
X5105896Y-16939698D02*
X5115420Y-16949222D01*
X5115420Y-16949222D02*
X5124944Y-16968270D01*
X5124944Y-16968270D02*
X5124944Y-17015889D01*
X5124944Y-17015889D02*
X5115420Y-17034936D01*
X5115420Y-17034936D02*
X5105896Y-17044460D01*
X5105896Y-17044460D02*
X5086849Y-17053984D01*
X5086849Y-17053984D02*
X5029706Y-17053984D01*
X5029706Y-17053984D02*
X5010658Y-17044460D01*
X5010658Y-17044460D02*
X5001134Y-17034936D01*
X5201134Y-16853984D02*
X5201134Y-16892079D01*
X5277325Y-16853984D02*
X5277325Y-16892079D01*
X5572563Y-17130174D02*
X5563039Y-17120650D01*
X5563039Y-17120650D02*
X5543991Y-17092079D01*
X5543991Y-17092079D02*
X5534468Y-17073031D01*
X5534468Y-17073031D02*
X5524944Y-17044460D01*
X5524944Y-17044460D02*
X5515420Y-16996841D01*
X5515420Y-16996841D02*
X5515420Y-16958746D01*
X5515420Y-16958746D02*
X5524944Y-16911127D01*
X5524944Y-16911127D02*
X5534468Y-16882555D01*
X5534468Y-16882555D02*
X5543991Y-16863508D01*
X5543991Y-16863508D02*
X5563039Y-16834936D01*
X5563039Y-16834936D02*
X5572563Y-16825412D01*
X5743991Y-16853984D02*
X5648753Y-16853984D01*
X5648753Y-16853984D02*
X5639229Y-16949222D01*
X5639229Y-16949222D02*
X5648753Y-16939698D01*
X5648753Y-16939698D02*
X5667801Y-16930174D01*
X5667801Y-16930174D02*
X5715420Y-16930174D01*
X5715420Y-16930174D02*
X5734468Y-16939698D01*
X5734468Y-16939698D02*
X5743991Y-16949222D01*
X5743991Y-16949222D02*
X5753515Y-16968270D01*
X5753515Y-16968270D02*
X5753515Y-17015889D01*
X5753515Y-17015889D02*
X5743991Y-17034936D01*
X5743991Y-17034936D02*
X5734468Y-17044460D01*
X5734468Y-17044460D02*
X5715420Y-17053984D01*
X5715420Y-17053984D02*
X5667801Y-17053984D01*
X5667801Y-17053984D02*
X5648753Y-17044460D01*
X5648753Y-17044460D02*
X5639229Y-17034936D01*
X5991610Y-17053984D02*
X5991610Y-16853984D01*
X6077325Y-17053984D02*
X6077325Y-16949222D01*
X6077325Y-16949222D02*
X6067801Y-16930174D01*
X6067801Y-16930174D02*
X6048753Y-16920650D01*
X6048753Y-16920650D02*
X6020182Y-16920650D01*
X6020182Y-16920650D02*
X6001134Y-16930174D01*
X6001134Y-16930174D02*
X5991610Y-16939698D01*
X6201134Y-17053984D02*
X6182087Y-17044460D01*
X6182087Y-17044460D02*
X6172563Y-17034936D01*
X6172563Y-17034936D02*
X6163039Y-17015889D01*
X6163039Y-17015889D02*
X6163039Y-16958746D01*
X6163039Y-16958746D02*
X6172563Y-16939698D01*
X6172563Y-16939698D02*
X6182087Y-16930174D01*
X6182087Y-16930174D02*
X6201134Y-16920650D01*
X6201134Y-16920650D02*
X6229706Y-16920650D01*
X6229706Y-16920650D02*
X6248753Y-16930174D01*
X6248753Y-16930174D02*
X6258277Y-16939698D01*
X6258277Y-16939698D02*
X6267801Y-16958746D01*
X6267801Y-16958746D02*
X6267801Y-17015889D01*
X6267801Y-17015889D02*
X6258277Y-17034936D01*
X6258277Y-17034936D02*
X6248753Y-17044460D01*
X6248753Y-17044460D02*
X6229706Y-17053984D01*
X6229706Y-17053984D02*
X6201134Y-17053984D01*
X6382087Y-17053984D02*
X6363039Y-17044460D01*
X6363039Y-17044460D02*
X6353515Y-17025412D01*
X6353515Y-17025412D02*
X6353515Y-16853984D01*
X6534468Y-17044460D02*
X6515420Y-17053984D01*
X6515420Y-17053984D02*
X6477325Y-17053984D01*
X6477325Y-17053984D02*
X6458277Y-17044460D01*
X6458277Y-17044460D02*
X6448753Y-17025412D01*
X6448753Y-17025412D02*
X6448753Y-16949222D01*
X6448753Y-16949222D02*
X6458277Y-16930174D01*
X6458277Y-16930174D02*
X6477325Y-16920650D01*
X6477325Y-16920650D02*
X6515420Y-16920650D01*
X6515420Y-16920650D02*
X6534468Y-16930174D01*
X6534468Y-16930174D02*
X6543991Y-16949222D01*
X6543991Y-16949222D02*
X6543991Y-16968270D01*
X6543991Y-16968270D02*
X6448753Y-16987317D01*
X6620182Y-17044460D02*
X6639230Y-17053984D01*
X6639230Y-17053984D02*
X6677325Y-17053984D01*
X6677325Y-17053984D02*
X6696372Y-17044460D01*
X6696372Y-17044460D02*
X6705896Y-17025412D01*
X6705896Y-17025412D02*
X6705896Y-17015889D01*
X6705896Y-17015889D02*
X6696372Y-16996841D01*
X6696372Y-16996841D02*
X6677325Y-16987317D01*
X6677325Y-16987317D02*
X6648753Y-16987317D01*
X6648753Y-16987317D02*
X6629706Y-16977793D01*
X6629706Y-16977793D02*
X6620182Y-16958746D01*
X6620182Y-16958746D02*
X6620182Y-16949222D01*
X6620182Y-16949222D02*
X6629706Y-16930174D01*
X6629706Y-16930174D02*
X6648753Y-16920650D01*
X6648753Y-16920650D02*
X6677325Y-16920650D01*
X6677325Y-16920650D02*
X6696372Y-16930174D01*
X6772563Y-17130174D02*
X6782087Y-17120650D01*
X6782087Y-17120650D02*
X6801134Y-17092079D01*
X6801134Y-17092079D02*
X6810658Y-17073031D01*
X6810658Y-17073031D02*
X6820182Y-17044460D01*
X6820182Y-17044460D02*
X6829706Y-16996841D01*
X6829706Y-16996841D02*
X6829706Y-16958746D01*
X6829706Y-16958746D02*
X6820182Y-16911127D01*
X6820182Y-16911127D02*
X6810658Y-16882555D01*
X6810658Y-16882555D02*
X6801134Y-16863508D01*
X6801134Y-16863508D02*
X6782087Y-16834936D01*
X6782087Y-16834936D02*
X6772563Y-16825412D01*
D14*
X1877500Y-17166500D02*
X1997500Y-17286500D01*
X1997500Y-17166500D02*
X1877500Y-17286500D01*
X1937500Y-17166500D02*
X1937500Y-17286500D01*
X1877500Y-17226500D02*
X1997500Y-17226500D01*
D11*
X2363039Y-17317984D02*
X2248753Y-17317984D01*
X2305896Y-17317984D02*
X2305896Y-17117984D01*
X2305896Y-17117984D02*
X2286848Y-17146555D01*
X2286848Y-17146555D02*
X2267801Y-17165603D01*
X2267801Y-17165603D02*
X2248753Y-17175127D01*
X2448753Y-17298936D02*
X2458277Y-17308460D01*
X2458277Y-17308460D02*
X2448753Y-17317984D01*
X2448753Y-17317984D02*
X2439229Y-17308460D01*
X2439229Y-17308460D02*
X2448753Y-17298936D01*
X2448753Y-17298936D02*
X2448753Y-17317984D01*
X2534467Y-17137031D02*
X2543991Y-17127508D01*
X2543991Y-17127508D02*
X2563039Y-17117984D01*
X2563039Y-17117984D02*
X2610658Y-17117984D01*
X2610658Y-17117984D02*
X2629705Y-17127508D01*
X2629705Y-17127508D02*
X2639229Y-17137031D01*
X2639229Y-17137031D02*
X2648753Y-17156079D01*
X2648753Y-17156079D02*
X2648753Y-17175127D01*
X2648753Y-17175127D02*
X2639229Y-17203698D01*
X2639229Y-17203698D02*
X2524944Y-17317984D01*
X2524944Y-17317984D02*
X2648753Y-17317984D01*
X2772563Y-17117984D02*
X2791610Y-17117984D01*
X2791610Y-17117984D02*
X2810658Y-17127508D01*
X2810658Y-17127508D02*
X2820182Y-17137031D01*
X2820182Y-17137031D02*
X2829705Y-17156079D01*
X2829705Y-17156079D02*
X2839229Y-17194174D01*
X2839229Y-17194174D02*
X2839229Y-17241793D01*
X2839229Y-17241793D02*
X2829705Y-17279889D01*
X2829705Y-17279889D02*
X2820182Y-17298936D01*
X2820182Y-17298936D02*
X2810658Y-17308460D01*
X2810658Y-17308460D02*
X2791610Y-17317984D01*
X2791610Y-17317984D02*
X2772563Y-17317984D01*
X2772563Y-17317984D02*
X2753515Y-17308460D01*
X2753515Y-17308460D02*
X2743991Y-17298936D01*
X2743991Y-17298936D02*
X2734467Y-17279889D01*
X2734467Y-17279889D02*
X2724944Y-17241793D01*
X2724944Y-17241793D02*
X2724944Y-17194174D01*
X2724944Y-17194174D02*
X2734467Y-17156079D01*
X2734467Y-17156079D02*
X2743991Y-17137031D01*
X2743991Y-17137031D02*
X2753515Y-17127508D01*
X2753515Y-17127508D02*
X2772563Y-17117984D01*
X2963039Y-17117984D02*
X2982086Y-17117984D01*
X2982086Y-17117984D02*
X3001134Y-17127508D01*
X3001134Y-17127508D02*
X3010658Y-17137031D01*
X3010658Y-17137031D02*
X3020182Y-17156079D01*
X3020182Y-17156079D02*
X3029705Y-17194174D01*
X3029705Y-17194174D02*
X3029705Y-17241793D01*
X3029705Y-17241793D02*
X3020182Y-17279889D01*
X3020182Y-17279889D02*
X3010658Y-17298936D01*
X3010658Y-17298936D02*
X3001134Y-17308460D01*
X3001134Y-17308460D02*
X2982086Y-17317984D01*
X2982086Y-17317984D02*
X2963039Y-17317984D01*
X2963039Y-17317984D02*
X2943991Y-17308460D01*
X2943991Y-17308460D02*
X2934467Y-17298936D01*
X2934467Y-17298936D02*
X2924943Y-17279889D01*
X2924943Y-17279889D02*
X2915420Y-17241793D01*
X2915420Y-17241793D02*
X2915420Y-17194174D01*
X2915420Y-17194174D02*
X2924943Y-17156079D01*
X2924943Y-17156079D02*
X2934467Y-17137031D01*
X2934467Y-17137031D02*
X2943991Y-17127508D01*
X2943991Y-17127508D02*
X2963039Y-17117984D01*
X3115420Y-17317984D02*
X3115420Y-17184650D01*
X3115420Y-17203698D02*
X3124943Y-17194174D01*
X3124943Y-17194174D02*
X3143991Y-17184650D01*
X3143991Y-17184650D02*
X3172563Y-17184650D01*
X3172563Y-17184650D02*
X3191610Y-17194174D01*
X3191610Y-17194174D02*
X3201134Y-17213222D01*
X3201134Y-17213222D02*
X3201134Y-17317984D01*
X3201134Y-17213222D02*
X3210658Y-17194174D01*
X3210658Y-17194174D02*
X3229705Y-17184650D01*
X3229705Y-17184650D02*
X3258277Y-17184650D01*
X3258277Y-17184650D02*
X3277324Y-17194174D01*
X3277324Y-17194174D02*
X3286848Y-17213222D01*
X3286848Y-17213222D02*
X3286848Y-17317984D01*
X3382086Y-17317984D02*
X3382086Y-17184650D01*
X3382086Y-17203698D02*
X3391610Y-17194174D01*
X3391610Y-17194174D02*
X3410658Y-17184650D01*
X3410658Y-17184650D02*
X3439229Y-17184650D01*
X3439229Y-17184650D02*
X3458277Y-17194174D01*
X3458277Y-17194174D02*
X3467801Y-17213222D01*
X3467801Y-17213222D02*
X3467801Y-17317984D01*
X3467801Y-17213222D02*
X3477324Y-17194174D01*
X3477324Y-17194174D02*
X3496372Y-17184650D01*
X3496372Y-17184650D02*
X3524943Y-17184650D01*
X3524943Y-17184650D02*
X3543991Y-17194174D01*
X3543991Y-17194174D02*
X3553515Y-17213222D01*
X3553515Y-17213222D02*
X3553515Y-17317984D01*
X3943991Y-17108460D02*
X3772563Y-17365603D01*
X4201134Y-17117984D02*
X4220182Y-17117984D01*
X4220182Y-17117984D02*
X4239229Y-17127508D01*
X4239229Y-17127508D02*
X4248753Y-17137031D01*
X4248753Y-17137031D02*
X4258277Y-17156079D01*
X4258277Y-17156079D02*
X4267801Y-17194174D01*
X4267801Y-17194174D02*
X4267801Y-17241793D01*
X4267801Y-17241793D02*
X4258277Y-17279889D01*
X4258277Y-17279889D02*
X4248753Y-17298936D01*
X4248753Y-17298936D02*
X4239229Y-17308460D01*
X4239229Y-17308460D02*
X4220182Y-17317984D01*
X4220182Y-17317984D02*
X4201134Y-17317984D01*
X4201134Y-17317984D02*
X4182086Y-17308460D01*
X4182086Y-17308460D02*
X4172563Y-17298936D01*
X4172563Y-17298936D02*
X4163039Y-17279889D01*
X4163039Y-17279889D02*
X4153515Y-17241793D01*
X4153515Y-17241793D02*
X4153515Y-17194174D01*
X4153515Y-17194174D02*
X4163039Y-17156079D01*
X4163039Y-17156079D02*
X4172563Y-17137031D01*
X4172563Y-17137031D02*
X4182086Y-17127508D01*
X4182086Y-17127508D02*
X4201134Y-17117984D01*
X4353515Y-17298936D02*
X4363039Y-17308460D01*
X4363039Y-17308460D02*
X4353515Y-17317984D01*
X4353515Y-17317984D02*
X4343991Y-17308460D01*
X4343991Y-17308460D02*
X4353515Y-17298936D01*
X4353515Y-17298936D02*
X4353515Y-17317984D01*
X4486848Y-17117984D02*
X4505896Y-17117984D01*
X4505896Y-17117984D02*
X4524944Y-17127508D01*
X4524944Y-17127508D02*
X4534468Y-17137031D01*
X4534468Y-17137031D02*
X4543991Y-17156079D01*
X4543991Y-17156079D02*
X4553515Y-17194174D01*
X4553515Y-17194174D02*
X4553515Y-17241793D01*
X4553515Y-17241793D02*
X4543991Y-17279889D01*
X4543991Y-17279889D02*
X4534468Y-17298936D01*
X4534468Y-17298936D02*
X4524944Y-17308460D01*
X4524944Y-17308460D02*
X4505896Y-17317984D01*
X4505896Y-17317984D02*
X4486848Y-17317984D01*
X4486848Y-17317984D02*
X4467801Y-17308460D01*
X4467801Y-17308460D02*
X4458277Y-17298936D01*
X4458277Y-17298936D02*
X4448753Y-17279889D01*
X4448753Y-17279889D02*
X4439229Y-17241793D01*
X4439229Y-17241793D02*
X4439229Y-17194174D01*
X4439229Y-17194174D02*
X4448753Y-17156079D01*
X4448753Y-17156079D02*
X4458277Y-17137031D01*
X4458277Y-17137031D02*
X4467801Y-17127508D01*
X4467801Y-17127508D02*
X4486848Y-17117984D01*
X4724944Y-17184650D02*
X4724944Y-17317984D01*
X4677325Y-17108460D02*
X4629706Y-17251317D01*
X4629706Y-17251317D02*
X4753515Y-17251317D01*
X4810658Y-17117984D02*
X4943991Y-17117984D01*
X4943991Y-17117984D02*
X4858277Y-17317984D01*
X5010658Y-17137031D02*
X5020182Y-17127508D01*
X5020182Y-17127508D02*
X5039229Y-17117984D01*
X5039229Y-17117984D02*
X5086849Y-17117984D01*
X5086849Y-17117984D02*
X5105896Y-17127508D01*
X5105896Y-17127508D02*
X5115420Y-17137031D01*
X5115420Y-17137031D02*
X5124944Y-17156079D01*
X5124944Y-17156079D02*
X5124944Y-17175127D01*
X5124944Y-17175127D02*
X5115420Y-17203698D01*
X5115420Y-17203698D02*
X5001134Y-17317984D01*
X5001134Y-17317984D02*
X5124944Y-17317984D01*
X5201134Y-17117984D02*
X5201134Y-17156079D01*
X5277325Y-17117984D02*
X5277325Y-17156079D01*
X5572563Y-17394174D02*
X5563039Y-17384650D01*
X5563039Y-17384650D02*
X5543991Y-17356079D01*
X5543991Y-17356079D02*
X5534468Y-17337031D01*
X5534468Y-17337031D02*
X5524944Y-17308460D01*
X5524944Y-17308460D02*
X5515420Y-17260841D01*
X5515420Y-17260841D02*
X5515420Y-17222746D01*
X5515420Y-17222746D02*
X5524944Y-17175127D01*
X5524944Y-17175127D02*
X5534468Y-17146555D01*
X5534468Y-17146555D02*
X5543991Y-17127508D01*
X5543991Y-17127508D02*
X5563039Y-17098936D01*
X5563039Y-17098936D02*
X5572563Y-17089412D01*
X5734468Y-17117984D02*
X5696372Y-17117984D01*
X5696372Y-17117984D02*
X5677325Y-17127508D01*
X5677325Y-17127508D02*
X5667801Y-17137031D01*
X5667801Y-17137031D02*
X5648753Y-17165603D01*
X5648753Y-17165603D02*
X5639229Y-17203698D01*
X5639229Y-17203698D02*
X5639229Y-17279889D01*
X5639229Y-17279889D02*
X5648753Y-17298936D01*
X5648753Y-17298936D02*
X5658277Y-17308460D01*
X5658277Y-17308460D02*
X5677325Y-17317984D01*
X5677325Y-17317984D02*
X5715420Y-17317984D01*
X5715420Y-17317984D02*
X5734468Y-17308460D01*
X5734468Y-17308460D02*
X5743991Y-17298936D01*
X5743991Y-17298936D02*
X5753515Y-17279889D01*
X5753515Y-17279889D02*
X5753515Y-17232270D01*
X5753515Y-17232270D02*
X5743991Y-17213222D01*
X5743991Y-17213222D02*
X5734468Y-17203698D01*
X5734468Y-17203698D02*
X5715420Y-17194174D01*
X5715420Y-17194174D02*
X5677325Y-17194174D01*
X5677325Y-17194174D02*
X5658277Y-17203698D01*
X5658277Y-17203698D02*
X5648753Y-17213222D01*
X5648753Y-17213222D02*
X5639229Y-17232270D01*
X5991610Y-17317984D02*
X5991610Y-17117984D01*
X6077325Y-17317984D02*
X6077325Y-17213222D01*
X6077325Y-17213222D02*
X6067801Y-17194174D01*
X6067801Y-17194174D02*
X6048753Y-17184650D01*
X6048753Y-17184650D02*
X6020182Y-17184650D01*
X6020182Y-17184650D02*
X6001134Y-17194174D01*
X6001134Y-17194174D02*
X5991610Y-17203698D01*
X6201134Y-17317984D02*
X6182087Y-17308460D01*
X6182087Y-17308460D02*
X6172563Y-17298936D01*
X6172563Y-17298936D02*
X6163039Y-17279889D01*
X6163039Y-17279889D02*
X6163039Y-17222746D01*
X6163039Y-17222746D02*
X6172563Y-17203698D01*
X6172563Y-17203698D02*
X6182087Y-17194174D01*
X6182087Y-17194174D02*
X6201134Y-17184650D01*
X6201134Y-17184650D02*
X6229706Y-17184650D01*
X6229706Y-17184650D02*
X6248753Y-17194174D01*
X6248753Y-17194174D02*
X6258277Y-17203698D01*
X6258277Y-17203698D02*
X6267801Y-17222746D01*
X6267801Y-17222746D02*
X6267801Y-17279889D01*
X6267801Y-17279889D02*
X6258277Y-17298936D01*
X6258277Y-17298936D02*
X6248753Y-17308460D01*
X6248753Y-17308460D02*
X6229706Y-17317984D01*
X6229706Y-17317984D02*
X6201134Y-17317984D01*
X6382087Y-17317984D02*
X6363039Y-17308460D01*
X6363039Y-17308460D02*
X6353515Y-17289412D01*
X6353515Y-17289412D02*
X6353515Y-17117984D01*
X6534468Y-17308460D02*
X6515420Y-17317984D01*
X6515420Y-17317984D02*
X6477325Y-17317984D01*
X6477325Y-17317984D02*
X6458277Y-17308460D01*
X6458277Y-17308460D02*
X6448753Y-17289412D01*
X6448753Y-17289412D02*
X6448753Y-17213222D01*
X6448753Y-17213222D02*
X6458277Y-17194174D01*
X6458277Y-17194174D02*
X6477325Y-17184650D01*
X6477325Y-17184650D02*
X6515420Y-17184650D01*
X6515420Y-17184650D02*
X6534468Y-17194174D01*
X6534468Y-17194174D02*
X6543991Y-17213222D01*
X6543991Y-17213222D02*
X6543991Y-17232270D01*
X6543991Y-17232270D02*
X6448753Y-17251317D01*
X6620182Y-17308460D02*
X6639230Y-17317984D01*
X6639230Y-17317984D02*
X6677325Y-17317984D01*
X6677325Y-17317984D02*
X6696372Y-17308460D01*
X6696372Y-17308460D02*
X6705896Y-17289412D01*
X6705896Y-17289412D02*
X6705896Y-17279889D01*
X6705896Y-17279889D02*
X6696372Y-17260841D01*
X6696372Y-17260841D02*
X6677325Y-17251317D01*
X6677325Y-17251317D02*
X6648753Y-17251317D01*
X6648753Y-17251317D02*
X6629706Y-17241793D01*
X6629706Y-17241793D02*
X6620182Y-17222746D01*
X6620182Y-17222746D02*
X6620182Y-17213222D01*
X6620182Y-17213222D02*
X6629706Y-17194174D01*
X6629706Y-17194174D02*
X6648753Y-17184650D01*
X6648753Y-17184650D02*
X6677325Y-17184650D01*
X6677325Y-17184650D02*
X6696372Y-17194174D01*
X6772563Y-17394174D02*
X6782087Y-17384650D01*
X6782087Y-17384650D02*
X6801134Y-17356079D01*
X6801134Y-17356079D02*
X6810658Y-17337031D01*
X6810658Y-17337031D02*
X6820182Y-17308460D01*
X6820182Y-17308460D02*
X6829706Y-17260841D01*
X6829706Y-17260841D02*
X6829706Y-17222746D01*
X6829706Y-17222746D02*
X6820182Y-17175127D01*
X6820182Y-17175127D02*
X6810658Y-17146555D01*
X6810658Y-17146555D02*
X6801134Y-17127508D01*
X6801134Y-17127508D02*
X6782087Y-17098936D01*
X6782087Y-17098936D02*
X6772563Y-17089412D01*
M02*
