M48
; DRILL file {KiCad 8.0.6} date 2024-10-22T22:58:47-0300
; FORMAT={-:-/ absolute / inch / decimal}
; #@! TF.CreationDate,2024-10-22T22:58:47-03:00
; #@! TF.GenerationSoftware,Kicad,Pcbnew,8.0.6
; #@! TF.FileFunction,Plated,1,2,PTH
FMAT,2
INCH
; #@! TA.AperFunction,Plated,PTH,ViaDrill
T1C0.0197
; #@! TA.AperFunction,Plated,PTH,ComponentDrill
T2C0.0276
; #@! TA.AperFunction,Plated,PTH,ComponentDrill
T3C0.0295
; #@! TA.AperFunction,Plated,PTH,ComponentDrill
T4C0.0315
; #@! TA.AperFunction,Plated,PTH,ComponentDrill
T5C0.0394
; #@! TA.AperFunction,Plated,PTH,ComponentDrill
T6C0.0433
; #@! TA.AperFunction,Plated,PTH,ComponentDrill
T7C0.0472
%
G90
G05
T1
X1.4484Y-3.7429
X1.6268Y-3.7437
X2.3382Y-4.6343
X2.3382Y-4.7602
X2.3925Y-3.6803
X2.5492Y-3.6811
T2
X1.7437Y-3.4551
X1.7437Y-3.5535
T3
X1.224Y-3.9134
X1.274Y-3.9634
X1.324Y-3.9134
X1.4591Y-4.3268
X1.5091Y-4.3768
X1.5591Y-4.3268
X1.8244Y-5.0354
X1.8744Y-4.9854
X1.8744Y-5.0854
X1.9646Y-4.0976
X1.9657Y-4.3496
X2.0146Y-4.0476
X2.0146Y-4.1476
X2.0157Y-4.2996
X2.0157Y-4.3996
X2.1906Y-4.0476
X2.1906Y-4.1476
X2.1933Y-4.2996
X2.1933Y-4.3996
X2.2406Y-4.0976
X2.2433Y-4.3496
X2.4425Y-4.6998
X2.4425Y-4.86
X2.4925Y-4.6498
X2.4925Y-4.91
X2.5425Y-4.6998
X2.5425Y-4.86
X3.7669Y-2.5161
X3.8169Y-2.4661
X3.8169Y-2.5661
T4
X1.1524Y-4.7504
X1.1543Y-4.948
X1.1982Y-4.1417
X1.2022Y-3.6299
X1.2061Y-3.2402
X1.2087Y-3.4291
X1.2126Y-3.0591
X1.2756Y-4.5394
X1.3982Y-4.1417
X1.4022Y-3.6299
X1.4055Y-3.4291
X1.4061Y-3.2402
X1.4094Y-3.0591
X1.4756Y-4.5394
X1.5524Y-4.7504
X1.5543Y-4.948
X1.8823Y-3.3429
X2.028Y-3.5209
X2.028Y-3.9209
X2.039Y-4.513
X2.039Y-4.913
X2.0587Y-5.087
X2.072Y-3.0594
X2.2209Y-3.5209
X2.2209Y-3.9209
X2.224Y-4.513
X2.224Y-4.913
X2.2823Y-3.3429
X2.4587Y-5.087
X2.4602Y-3.524
X2.472Y-3.0594
X2.5646Y-5.0705
X2.5646Y-5.4705
X2.6154Y-4.087
X2.6154Y-4.2839
X2.6185Y-3.0555
X2.6264Y-3.2563
X2.6571Y-3.524
X2.7185Y-4.9673
X2.7185Y-5.3673
X2.8028Y-5.5476
X2.8917Y-4.9654
X2.8917Y-5.3654
X2.8992Y-3.6264
X2.8992Y-3.9264
X2.9815Y-2.4882
X2.9815Y-2.8882
X2.9992Y-3.6264
X2.9992Y-3.9264
X2.9996Y-5.5476
X3.0075Y-3.463
X3.0154Y-4.087
X3.0154Y-4.2839
X3.0185Y-3.0555
X3.0264Y-3.2563
X3.0992Y-3.6264
X3.0992Y-3.9264
X3.1571Y-3.0555
X3.1579Y-2.8665
X3.1992Y-3.6264
X3.1992Y-3.9264
X3.2043Y-3.463
X3.2083Y-4.3043
X3.2083Y-4.7043
X3.2313Y-5.1264
X3.2476Y-2.5437
X3.2476Y-2.7406
X3.2992Y-3.6264
X3.2992Y-3.9264
X3.3587Y-3.2453
X3.3866Y-4.4559
X3.3866Y-4.8559
X3.3992Y-3.6264
X3.3992Y-3.9264
X3.4313Y-5.1264
X3.4992Y-3.6264
X3.4992Y-3.9264
X3.5429Y-2.3358
X3.5429Y-2.7358
X3.552Y-4.322
X3.552Y-4.622
X3.5555Y-3.2453
X3.5571Y-3.0555
X3.5579Y-2.8665
X3.602Y-4.9343
X3.602Y-5.3343
X3.652Y-4.322
X3.652Y-4.622
X3.752Y-4.322
X3.752Y-4.622
X3.7634Y-3.5122
X3.7634Y-3.7091
X3.8146Y-2.7059
X3.8146Y-3.1059
X3.852Y-4.322
X3.852Y-4.622
X3.8799Y-4.9339
X3.8799Y-5.3339
X3.9217Y-4.8154
X3.952Y-4.322
X3.952Y-4.622
X4.052Y-4.322
X4.052Y-4.622
X4.0547Y-5.0555
X4.0547Y-5.1992
X4.152Y-4.322
X4.152Y-4.622
X4.1531Y-5.0555
X4.3217Y-4.8154
X4.3776Y-4.261
X4.3776Y-4.661
X4.4547Y-5.1992
T5
X1.6295Y-5.3232
X1.7295Y-5.3232
X1.7555Y-3.9374
X1.7555Y-4.0374
X1.7961Y-3.1236
X1.8398Y-4.578
X1.8398Y-4.678
X1.8961Y-3.1236
X2.4697Y-4.2417
X2.4697Y-4.3417
X2.7327Y-4.6067
X2.7327Y-4.7067
X2.9917Y-4.6012
X2.9917Y-4.7012
X3.7618Y-2.2209
X3.8618Y-2.2209
X4.078Y-3.6209
X4.078Y-3.7209
T6
X1.2126Y-2.6323
X1.2126Y-2.7323
X1.2126Y-2.8323
X2.0594Y-2.2917
X2.4594Y-2.2917
T7
X1.5839Y-2.2157
X1.7201Y-2.6854
X1.7807Y-2.2157
X2.7201Y-2.6854
X2.8831Y-2.2157
X3.0799Y-2.2157
M30
