M48
; DRILL file {KiCad 8.0.3} date 2024-10-03T16:40:52-0300
; FORMAT={-:-/ absolute / inch / decimal}
; #@! TF.CreationDate,2024-10-03T16:40:52-03:00
; #@! TF.GenerationSoftware,Kicad,Pcbnew,8.0.3
; #@! TF.FileFunction,Plated,1,2,PTH
FMAT,2
INCH
; #@! TA.AperFunction,Plated,PTH,ComponentDrill
T1C0.0276
; #@! TA.AperFunction,Plated,PTH,ComponentDrill
T2C0.0295
; #@! TA.AperFunction,Plated,PTH,ViaDrill
T3C0.0315
; #@! TA.AperFunction,Plated,PTH,ComponentDrill
T4C0.0315
; #@! TA.AperFunction,Plated,PTH,ComponentDrill
T5C0.0394
; #@! TA.AperFunction,Plated,PTH,ComponentDrill
T6C0.0433
; #@! TA.AperFunction,Plated,PTH,ComponentDrill
T7C0.0472
%
G90
G05
T1
X2.1579Y-2.5736
X2.1579Y-2.672
T2
X1.1882Y-3.3744
X1.1882Y-3.4244
X1.1882Y-3.4744
X1.1945Y-3.6736
X1.2445Y-3.6736
X1.2945Y-3.6736
X1.476Y-3.8744
X1.526Y-3.8744
X1.576Y-3.8744
X1.7098Y-3.848
X1.7598Y-3.848
X1.8098Y-3.848
X2.0114Y-3.663
X2.0614Y-3.663
X2.1114Y-3.663
X2.1945Y-3.3744
X2.1945Y-3.4244
X2.1945Y-3.4744
X2.2622Y-3.6831
X2.3122Y-3.6831
X2.3622Y-3.6831
X2.5961Y-3.3508
X2.6461Y-3.3508
X2.6961Y-3.3508
T3
X1.1472Y-2.4382
X1.1669Y-2.6756
X1.4114Y-4.3575
X1.6878Y-4.3567
X2.5992Y-3.9516
X3.0154Y-3.9516
X3.6484Y-2.4949
X3.6484Y-2.7606
X3.6516Y-2.1091
T4
X1.2437Y-3.0476
X1.2669Y-3.9276
X1.2669Y-4.3276
X1.2898Y-4.4972
X1.4669Y-2.924
X1.585Y-3.2701
X1.585Y-3.6701
X1.6437Y-3.0476
X1.6638Y-2.924
X1.6898Y-4.4972
X1.7295Y-3.0476
X1.7543Y-3.3839
X1.8335Y-4.4732
X1.8335Y-4.8732
X1.8543Y-3.3839
X1.9516Y-3.9898
X1.9516Y-4.1866
X1.9543Y-3.3839
X2.1012Y-4.3256
X2.1012Y-4.7256
X2.1181Y-4.1276
X2.1295Y-3.0476
X2.2425Y-2.3969
X2.4315Y-2.878
X2.4681Y-3.0709
X2.5181Y-4.1276
X2.6283Y-2.878
X2.6425Y-2.3969
X2.7504Y-3.7445
X2.7504Y-4.1445
X2.8681Y-3.0709
X2.8992Y-3.2335
X2.8992Y-3.4303
X2.9831Y-2.5921
X2.9831Y-2.9921
X3.0634Y-3.7504
X3.1953Y-3.95
X3.1953Y-4.35
X3.2524Y-2.5236
X3.2524Y-3.1236
X3.2602Y-3.7504
X3.422Y-4.3114
X3.422Y-4.4098
X3.4311Y-2.4878
X3.4311Y-2.6878
X3.4311Y-2.8028
X3.4311Y-3.2028
X3.5886Y-3.3209
X3.5886Y-3.7209
X3.6004Y-3.8362
X3.6004Y-4.2362
X3.7161Y-4.2343
X3.7657Y-2.8047
X3.7657Y-3.2047
X3.7657Y-3.3669
X3.7657Y-3.5638
X3.8244Y-4.3925
X3.8244Y-4.6925
X3.9217Y-4.987
X3.9244Y-4.3925
X3.9244Y-4.6925
X3.9469Y-2.7346
X3.9469Y-3.1346
X4.0244Y-4.3925
X4.0244Y-4.6925
X4.1106Y-4.011
X4.1161Y-4.2343
X4.1217Y-4.826
X4.1244Y-4.3925
X4.1244Y-4.6925
X4.1248Y-3.1575
X4.1248Y-3.4575
X4.2244Y-4.3925
X4.2244Y-4.6925
X4.2248Y-3.1575
X4.2248Y-3.4575
X4.3185Y-4.826
X4.3217Y-4.987
X4.3244Y-4.3925
X4.3244Y-4.6925
X4.3248Y-3.1575
X4.3248Y-3.4575
X4.3413Y-4.1705
X4.4201Y-4.8217
X4.4244Y-4.3925
X4.4244Y-4.6925
X4.4248Y-3.1575
X4.4248Y-3.4575
X4.4378Y-3.5866
X4.5106Y-4.011
X4.5248Y-3.1575
X4.5248Y-3.4575
X4.5323Y-4.6016
X4.6248Y-3.1575
X4.6248Y-3.4575
X4.6346Y-3.5866
X4.7248Y-3.1575
X4.7248Y-3.4575
X4.7413Y-4.1705
X4.8201Y-4.8217
X4.9323Y-4.6016
T5
X1.3008Y-4.6654
X1.3008Y-4.7654
X1.5213Y-4.1352
X1.5213Y-4.2352
X1.739Y-4.135
X1.739Y-4.235
X2.2409Y-3.9209
X2.2591Y-4.8071
X2.2591Y-4.9071
X2.3409Y-3.9209
X2.4165Y-3.2974
X2.4165Y-3.3974
X2.4409Y-3.9209
X2.7374Y-4.4409
X2.7374Y-4.5409
X3.4154Y-3.7691
X3.4154Y-3.8691
X4.7537Y-4.3331
X4.813Y-3.7661
X4.813Y-3.8661
X4.8537Y-4.3331
T6
X2.326Y-4.311
X2.4087Y-2.6685
X2.426Y-4.311
X2.5087Y-2.6685
X2.526Y-4.311
X2.6087Y-2.6685
T7
X1.348Y-2.3122
X1.5449Y-2.3122
X5.0811Y-2.6004
X5.0811Y-2.7972
M30
