%TF.GenerationSoftware,KiCad,Pcbnew,8.0.3*%
%TF.CreationDate,2024-10-03T16:40:50-03:00*%
%TF.ProjectId,check_point_1,63686563-6b5f-4706-9f69-6e745f312e6b,rev?*%
%TF.SameCoordinates,Original*%
%TF.FileFunction,Drillmap*%
%TF.FilePolarity,Positive*%
%FSLAX45Y45*%
G04 Gerber Fmt 4.5, Leading zero omitted, Abs format (unit mm)*
G04 Created by KiCad (PCBNEW 8.0.3) date 2024-10-03 16:40:50*
%MOMM*%
%LPD*%
G01*
G04 APERTURE LIST*
%ADD10C,0.050000*%
%ADD11C,0.200000*%
%ADD12C,0.210000*%
G04 APERTURE END LIST*
D10*
X2638000Y-5092000D02*
X13308000Y-5092000D01*
X13308000Y-13228000D01*
X2638000Y-13228000D01*
X2638000Y-5092000D01*
D11*
D12*
X2913000Y-5319000D02*
X3123000Y-5529000D01*
X3123000Y-5319000D02*
X2913000Y-5529000D01*
X2913000Y-12741000D02*
X3123000Y-12951000D01*
X3123000Y-12741000D02*
X2913000Y-12951000D01*
X12820000Y-5357000D02*
X13030000Y-5567000D01*
X13030000Y-5357000D02*
X12820000Y-5567000D01*
X12830000Y-12741000D02*
X13040000Y-12951000D01*
X13040000Y-12741000D02*
X12830000Y-12951000D01*
D11*
X2896277Y-13541984D02*
X2896277Y-13341984D01*
X2896277Y-13341984D02*
X2943896Y-13341984D01*
X2943896Y-13341984D02*
X2972467Y-13351508D01*
X2972467Y-13351508D02*
X2991515Y-13370555D01*
X2991515Y-13370555D02*
X3001039Y-13389603D01*
X3001039Y-13389603D02*
X3010562Y-13427698D01*
X3010562Y-13427698D02*
X3010562Y-13456269D01*
X3010562Y-13456269D02*
X3001039Y-13494365D01*
X3001039Y-13494365D02*
X2991515Y-13513412D01*
X2991515Y-13513412D02*
X2972467Y-13532460D01*
X2972467Y-13532460D02*
X2943896Y-13541984D01*
X2943896Y-13541984D02*
X2896277Y-13541984D01*
X3096277Y-13541984D02*
X3096277Y-13408650D01*
X3096277Y-13446746D02*
X3105801Y-13427698D01*
X3105801Y-13427698D02*
X3115324Y-13418174D01*
X3115324Y-13418174D02*
X3134372Y-13408650D01*
X3134372Y-13408650D02*
X3153420Y-13408650D01*
X3220086Y-13541984D02*
X3220086Y-13408650D01*
X3220086Y-13341984D02*
X3210562Y-13351508D01*
X3210562Y-13351508D02*
X3220086Y-13361031D01*
X3220086Y-13361031D02*
X3229610Y-13351508D01*
X3229610Y-13351508D02*
X3220086Y-13341984D01*
X3220086Y-13341984D02*
X3220086Y-13361031D01*
X3343896Y-13541984D02*
X3324848Y-13532460D01*
X3324848Y-13532460D02*
X3315324Y-13513412D01*
X3315324Y-13513412D02*
X3315324Y-13341984D01*
X3448658Y-13541984D02*
X3429610Y-13532460D01*
X3429610Y-13532460D02*
X3420086Y-13513412D01*
X3420086Y-13513412D02*
X3420086Y-13341984D01*
X3677229Y-13541984D02*
X3677229Y-13341984D01*
X3677229Y-13341984D02*
X3743896Y-13484841D01*
X3743896Y-13484841D02*
X3810562Y-13341984D01*
X3810562Y-13341984D02*
X3810562Y-13541984D01*
X3991515Y-13541984D02*
X3991515Y-13437222D01*
X3991515Y-13437222D02*
X3981991Y-13418174D01*
X3981991Y-13418174D02*
X3962943Y-13408650D01*
X3962943Y-13408650D02*
X3924848Y-13408650D01*
X3924848Y-13408650D02*
X3905801Y-13418174D01*
X3991515Y-13532460D02*
X3972467Y-13541984D01*
X3972467Y-13541984D02*
X3924848Y-13541984D01*
X3924848Y-13541984D02*
X3905801Y-13532460D01*
X3905801Y-13532460D02*
X3896277Y-13513412D01*
X3896277Y-13513412D02*
X3896277Y-13494365D01*
X3896277Y-13494365D02*
X3905801Y-13475317D01*
X3905801Y-13475317D02*
X3924848Y-13465793D01*
X3924848Y-13465793D02*
X3972467Y-13465793D01*
X3972467Y-13465793D02*
X3991515Y-13456269D01*
X4086753Y-13408650D02*
X4086753Y-13608650D01*
X4086753Y-13418174D02*
X4105801Y-13408650D01*
X4105801Y-13408650D02*
X4143896Y-13408650D01*
X4143896Y-13408650D02*
X4162943Y-13418174D01*
X4162943Y-13418174D02*
X4172467Y-13427698D01*
X4172467Y-13427698D02*
X4181991Y-13446746D01*
X4181991Y-13446746D02*
X4181991Y-13503888D01*
X4181991Y-13503888D02*
X4172467Y-13522936D01*
X4172467Y-13522936D02*
X4162943Y-13532460D01*
X4162943Y-13532460D02*
X4143896Y-13541984D01*
X4143896Y-13541984D02*
X4105801Y-13541984D01*
X4105801Y-13541984D02*
X4086753Y-13532460D01*
X4267705Y-13522936D02*
X4277229Y-13532460D01*
X4277229Y-13532460D02*
X4267705Y-13541984D01*
X4267705Y-13541984D02*
X4258182Y-13532460D01*
X4258182Y-13532460D02*
X4267705Y-13522936D01*
X4267705Y-13522936D02*
X4267705Y-13541984D01*
X4267705Y-13418174D02*
X4277229Y-13427698D01*
X4277229Y-13427698D02*
X4267705Y-13437222D01*
X4267705Y-13437222D02*
X4258182Y-13427698D01*
X4258182Y-13427698D02*
X4267705Y-13418174D01*
X4267705Y-13418174D02*
X4267705Y-13437222D01*
X2435500Y-13770500D02*
X2635500Y-13970500D01*
X2635500Y-13770500D02*
X2435500Y-13970500D01*
X2886753Y-13781031D02*
X2896277Y-13771508D01*
X2896277Y-13771508D02*
X2915324Y-13761984D01*
X2915324Y-13761984D02*
X2962943Y-13761984D01*
X2962943Y-13761984D02*
X2981991Y-13771508D01*
X2981991Y-13771508D02*
X2991515Y-13781031D01*
X2991515Y-13781031D02*
X3001039Y-13800079D01*
X3001039Y-13800079D02*
X3001039Y-13819127D01*
X3001039Y-13819127D02*
X2991515Y-13847698D01*
X2991515Y-13847698D02*
X2877229Y-13961984D01*
X2877229Y-13961984D02*
X3001039Y-13961984D01*
X3086753Y-13942936D02*
X3096277Y-13952460D01*
X3096277Y-13952460D02*
X3086753Y-13961984D01*
X3086753Y-13961984D02*
X3077229Y-13952460D01*
X3077229Y-13952460D02*
X3086753Y-13942936D01*
X3086753Y-13942936D02*
X3086753Y-13961984D01*
X3286753Y-13961984D02*
X3172467Y-13961984D01*
X3229610Y-13961984D02*
X3229610Y-13761984D01*
X3229610Y-13761984D02*
X3210562Y-13790555D01*
X3210562Y-13790555D02*
X3191515Y-13809603D01*
X3191515Y-13809603D02*
X3172467Y-13819127D01*
X3410562Y-13761984D02*
X3429610Y-13761984D01*
X3429610Y-13761984D02*
X3448658Y-13771508D01*
X3448658Y-13771508D02*
X3458182Y-13781031D01*
X3458182Y-13781031D02*
X3467705Y-13800079D01*
X3467705Y-13800079D02*
X3477229Y-13838174D01*
X3477229Y-13838174D02*
X3477229Y-13885793D01*
X3477229Y-13885793D02*
X3467705Y-13923888D01*
X3467705Y-13923888D02*
X3458182Y-13942936D01*
X3458182Y-13942936D02*
X3448658Y-13952460D01*
X3448658Y-13952460D02*
X3429610Y-13961984D01*
X3429610Y-13961984D02*
X3410562Y-13961984D01*
X3410562Y-13961984D02*
X3391515Y-13952460D01*
X3391515Y-13952460D02*
X3381991Y-13942936D01*
X3381991Y-13942936D02*
X3372467Y-13923888D01*
X3372467Y-13923888D02*
X3362943Y-13885793D01*
X3362943Y-13885793D02*
X3362943Y-13838174D01*
X3362943Y-13838174D02*
X3372467Y-13800079D01*
X3372467Y-13800079D02*
X3381991Y-13781031D01*
X3381991Y-13781031D02*
X3391515Y-13771508D01*
X3391515Y-13771508D02*
X3410562Y-13761984D01*
X3601039Y-13761984D02*
X3620086Y-13761984D01*
X3620086Y-13761984D02*
X3639134Y-13771508D01*
X3639134Y-13771508D02*
X3648658Y-13781031D01*
X3648658Y-13781031D02*
X3658182Y-13800079D01*
X3658182Y-13800079D02*
X3667705Y-13838174D01*
X3667705Y-13838174D02*
X3667705Y-13885793D01*
X3667705Y-13885793D02*
X3658182Y-13923888D01*
X3658182Y-13923888D02*
X3648658Y-13942936D01*
X3648658Y-13942936D02*
X3639134Y-13952460D01*
X3639134Y-13952460D02*
X3620086Y-13961984D01*
X3620086Y-13961984D02*
X3601039Y-13961984D01*
X3601039Y-13961984D02*
X3581991Y-13952460D01*
X3581991Y-13952460D02*
X3572467Y-13942936D01*
X3572467Y-13942936D02*
X3562943Y-13923888D01*
X3562943Y-13923888D02*
X3553420Y-13885793D01*
X3553420Y-13885793D02*
X3553420Y-13838174D01*
X3553420Y-13838174D02*
X3562943Y-13800079D01*
X3562943Y-13800079D02*
X3572467Y-13781031D01*
X3572467Y-13781031D02*
X3581991Y-13771508D01*
X3581991Y-13771508D02*
X3601039Y-13761984D01*
X3753420Y-13961984D02*
X3753420Y-13828650D01*
X3753420Y-13847698D02*
X3762943Y-13838174D01*
X3762943Y-13838174D02*
X3781991Y-13828650D01*
X3781991Y-13828650D02*
X3810563Y-13828650D01*
X3810563Y-13828650D02*
X3829610Y-13838174D01*
X3829610Y-13838174D02*
X3839134Y-13857222D01*
X3839134Y-13857222D02*
X3839134Y-13961984D01*
X3839134Y-13857222D02*
X3848658Y-13838174D01*
X3848658Y-13838174D02*
X3867705Y-13828650D01*
X3867705Y-13828650D02*
X3896277Y-13828650D01*
X3896277Y-13828650D02*
X3915324Y-13838174D01*
X3915324Y-13838174D02*
X3924848Y-13857222D01*
X3924848Y-13857222D02*
X3924848Y-13961984D01*
X4020086Y-13961984D02*
X4020086Y-13828650D01*
X4020086Y-13847698D02*
X4029610Y-13838174D01*
X4029610Y-13838174D02*
X4048658Y-13828650D01*
X4048658Y-13828650D02*
X4077229Y-13828650D01*
X4077229Y-13828650D02*
X4096277Y-13838174D01*
X4096277Y-13838174D02*
X4105801Y-13857222D01*
X4105801Y-13857222D02*
X4105801Y-13961984D01*
X4105801Y-13857222D02*
X4115324Y-13838174D01*
X4115324Y-13838174D02*
X4134372Y-13828650D01*
X4134372Y-13828650D02*
X4162943Y-13828650D01*
X4162943Y-13828650D02*
X4181991Y-13838174D01*
X4181991Y-13838174D02*
X4191515Y-13857222D01*
X4191515Y-13857222D02*
X4191515Y-13961984D01*
X4581991Y-13752460D02*
X4410563Y-14009603D01*
X4839134Y-13761984D02*
X4858182Y-13761984D01*
X4858182Y-13761984D02*
X4877229Y-13771508D01*
X4877229Y-13771508D02*
X4886753Y-13781031D01*
X4886753Y-13781031D02*
X4896277Y-13800079D01*
X4896277Y-13800079D02*
X4905801Y-13838174D01*
X4905801Y-13838174D02*
X4905801Y-13885793D01*
X4905801Y-13885793D02*
X4896277Y-13923888D01*
X4896277Y-13923888D02*
X4886753Y-13942936D01*
X4886753Y-13942936D02*
X4877229Y-13952460D01*
X4877229Y-13952460D02*
X4858182Y-13961984D01*
X4858182Y-13961984D02*
X4839134Y-13961984D01*
X4839134Y-13961984D02*
X4820087Y-13952460D01*
X4820087Y-13952460D02*
X4810563Y-13942936D01*
X4810563Y-13942936D02*
X4801039Y-13923888D01*
X4801039Y-13923888D02*
X4791515Y-13885793D01*
X4791515Y-13885793D02*
X4791515Y-13838174D01*
X4791515Y-13838174D02*
X4801039Y-13800079D01*
X4801039Y-13800079D02*
X4810563Y-13781031D01*
X4810563Y-13781031D02*
X4820087Y-13771508D01*
X4820087Y-13771508D02*
X4839134Y-13761984D01*
X4991515Y-13942936D02*
X5001039Y-13952460D01*
X5001039Y-13952460D02*
X4991515Y-13961984D01*
X4991515Y-13961984D02*
X4981991Y-13952460D01*
X4981991Y-13952460D02*
X4991515Y-13942936D01*
X4991515Y-13942936D02*
X4991515Y-13961984D01*
X5124848Y-13761984D02*
X5143896Y-13761984D01*
X5143896Y-13761984D02*
X5162944Y-13771508D01*
X5162944Y-13771508D02*
X5172468Y-13781031D01*
X5172468Y-13781031D02*
X5181991Y-13800079D01*
X5181991Y-13800079D02*
X5191515Y-13838174D01*
X5191515Y-13838174D02*
X5191515Y-13885793D01*
X5191515Y-13885793D02*
X5181991Y-13923888D01*
X5181991Y-13923888D02*
X5172468Y-13942936D01*
X5172468Y-13942936D02*
X5162944Y-13952460D01*
X5162944Y-13952460D02*
X5143896Y-13961984D01*
X5143896Y-13961984D02*
X5124848Y-13961984D01*
X5124848Y-13961984D02*
X5105801Y-13952460D01*
X5105801Y-13952460D02*
X5096277Y-13942936D01*
X5096277Y-13942936D02*
X5086753Y-13923888D01*
X5086753Y-13923888D02*
X5077229Y-13885793D01*
X5077229Y-13885793D02*
X5077229Y-13838174D01*
X5077229Y-13838174D02*
X5086753Y-13800079D01*
X5086753Y-13800079D02*
X5096277Y-13781031D01*
X5096277Y-13781031D02*
X5105801Y-13771508D01*
X5105801Y-13771508D02*
X5124848Y-13761984D01*
X5305801Y-13847698D02*
X5286753Y-13838174D01*
X5286753Y-13838174D02*
X5277229Y-13828650D01*
X5277229Y-13828650D02*
X5267706Y-13809603D01*
X5267706Y-13809603D02*
X5267706Y-13800079D01*
X5267706Y-13800079D02*
X5277229Y-13781031D01*
X5277229Y-13781031D02*
X5286753Y-13771508D01*
X5286753Y-13771508D02*
X5305801Y-13761984D01*
X5305801Y-13761984D02*
X5343896Y-13761984D01*
X5343896Y-13761984D02*
X5362944Y-13771508D01*
X5362944Y-13771508D02*
X5372468Y-13781031D01*
X5372468Y-13781031D02*
X5381991Y-13800079D01*
X5381991Y-13800079D02*
X5381991Y-13809603D01*
X5381991Y-13809603D02*
X5372468Y-13828650D01*
X5372468Y-13828650D02*
X5362944Y-13838174D01*
X5362944Y-13838174D02*
X5343896Y-13847698D01*
X5343896Y-13847698D02*
X5305801Y-13847698D01*
X5305801Y-13847698D02*
X5286753Y-13857222D01*
X5286753Y-13857222D02*
X5277229Y-13866746D01*
X5277229Y-13866746D02*
X5267706Y-13885793D01*
X5267706Y-13885793D02*
X5267706Y-13923888D01*
X5267706Y-13923888D02*
X5277229Y-13942936D01*
X5277229Y-13942936D02*
X5286753Y-13952460D01*
X5286753Y-13952460D02*
X5305801Y-13961984D01*
X5305801Y-13961984D02*
X5343896Y-13961984D01*
X5343896Y-13961984D02*
X5362944Y-13952460D01*
X5362944Y-13952460D02*
X5372468Y-13942936D01*
X5372468Y-13942936D02*
X5381991Y-13923888D01*
X5381991Y-13923888D02*
X5381991Y-13885793D01*
X5381991Y-13885793D02*
X5372468Y-13866746D01*
X5372468Y-13866746D02*
X5362944Y-13857222D01*
X5362944Y-13857222D02*
X5343896Y-13847698D01*
X5458182Y-13781031D02*
X5467706Y-13771508D01*
X5467706Y-13771508D02*
X5486753Y-13761984D01*
X5486753Y-13761984D02*
X5534372Y-13761984D01*
X5534372Y-13761984D02*
X5553420Y-13771508D01*
X5553420Y-13771508D02*
X5562944Y-13781031D01*
X5562944Y-13781031D02*
X5572468Y-13800079D01*
X5572468Y-13800079D02*
X5572468Y-13819127D01*
X5572468Y-13819127D02*
X5562944Y-13847698D01*
X5562944Y-13847698D02*
X5448658Y-13961984D01*
X5448658Y-13961984D02*
X5572468Y-13961984D01*
X5639134Y-13761984D02*
X5772467Y-13761984D01*
X5772467Y-13761984D02*
X5686753Y-13961984D01*
X5839134Y-13761984D02*
X5839134Y-13800079D01*
X5915325Y-13761984D02*
X5915325Y-13800079D01*
X6210563Y-14038174D02*
X6201039Y-14028650D01*
X6201039Y-14028650D02*
X6181991Y-14000079D01*
X6181991Y-14000079D02*
X6172468Y-13981031D01*
X6172468Y-13981031D02*
X6162944Y-13952460D01*
X6162944Y-13952460D02*
X6153420Y-13904841D01*
X6153420Y-13904841D02*
X6153420Y-13866746D01*
X6153420Y-13866746D02*
X6162944Y-13819127D01*
X6162944Y-13819127D02*
X6172468Y-13790555D01*
X6172468Y-13790555D02*
X6181991Y-13771508D01*
X6181991Y-13771508D02*
X6201039Y-13742936D01*
X6201039Y-13742936D02*
X6210563Y-13733412D01*
X6372468Y-13828650D02*
X6372468Y-13961984D01*
X6324848Y-13752460D02*
X6277229Y-13895317D01*
X6277229Y-13895317D02*
X6401039Y-13895317D01*
X6629610Y-13961984D02*
X6629610Y-13761984D01*
X6715325Y-13961984D02*
X6715325Y-13857222D01*
X6715325Y-13857222D02*
X6705801Y-13838174D01*
X6705801Y-13838174D02*
X6686753Y-13828650D01*
X6686753Y-13828650D02*
X6658182Y-13828650D01*
X6658182Y-13828650D02*
X6639134Y-13838174D01*
X6639134Y-13838174D02*
X6629610Y-13847698D01*
X6839134Y-13961984D02*
X6820087Y-13952460D01*
X6820087Y-13952460D02*
X6810563Y-13942936D01*
X6810563Y-13942936D02*
X6801039Y-13923888D01*
X6801039Y-13923888D02*
X6801039Y-13866746D01*
X6801039Y-13866746D02*
X6810563Y-13847698D01*
X6810563Y-13847698D02*
X6820087Y-13838174D01*
X6820087Y-13838174D02*
X6839134Y-13828650D01*
X6839134Y-13828650D02*
X6867706Y-13828650D01*
X6867706Y-13828650D02*
X6886753Y-13838174D01*
X6886753Y-13838174D02*
X6896277Y-13847698D01*
X6896277Y-13847698D02*
X6905801Y-13866746D01*
X6905801Y-13866746D02*
X6905801Y-13923888D01*
X6905801Y-13923888D02*
X6896277Y-13942936D01*
X6896277Y-13942936D02*
X6886753Y-13952460D01*
X6886753Y-13952460D02*
X6867706Y-13961984D01*
X6867706Y-13961984D02*
X6839134Y-13961984D01*
X7020087Y-13961984D02*
X7001039Y-13952460D01*
X7001039Y-13952460D02*
X6991515Y-13933412D01*
X6991515Y-13933412D02*
X6991515Y-13761984D01*
X7172468Y-13952460D02*
X7153420Y-13961984D01*
X7153420Y-13961984D02*
X7115325Y-13961984D01*
X7115325Y-13961984D02*
X7096277Y-13952460D01*
X7096277Y-13952460D02*
X7086753Y-13933412D01*
X7086753Y-13933412D02*
X7086753Y-13857222D01*
X7086753Y-13857222D02*
X7096277Y-13838174D01*
X7096277Y-13838174D02*
X7115325Y-13828650D01*
X7115325Y-13828650D02*
X7153420Y-13828650D01*
X7153420Y-13828650D02*
X7172468Y-13838174D01*
X7172468Y-13838174D02*
X7181991Y-13857222D01*
X7181991Y-13857222D02*
X7181991Y-13876269D01*
X7181991Y-13876269D02*
X7086753Y-13895317D01*
X7258182Y-13952460D02*
X7277230Y-13961984D01*
X7277230Y-13961984D02*
X7315325Y-13961984D01*
X7315325Y-13961984D02*
X7334372Y-13952460D01*
X7334372Y-13952460D02*
X7343896Y-13933412D01*
X7343896Y-13933412D02*
X7343896Y-13923888D01*
X7343896Y-13923888D02*
X7334372Y-13904841D01*
X7334372Y-13904841D02*
X7315325Y-13895317D01*
X7315325Y-13895317D02*
X7286753Y-13895317D01*
X7286753Y-13895317D02*
X7267706Y-13885793D01*
X7267706Y-13885793D02*
X7258182Y-13866746D01*
X7258182Y-13866746D02*
X7258182Y-13857222D01*
X7258182Y-13857222D02*
X7267706Y-13838174D01*
X7267706Y-13838174D02*
X7286753Y-13828650D01*
X7286753Y-13828650D02*
X7315325Y-13828650D01*
X7315325Y-13828650D02*
X7334372Y-13838174D01*
X7410563Y-14038174D02*
X7420087Y-14028650D01*
X7420087Y-14028650D02*
X7439134Y-14000079D01*
X7439134Y-14000079D02*
X7448658Y-13981031D01*
X7448658Y-13981031D02*
X7458182Y-13952460D01*
X7458182Y-13952460D02*
X7467706Y-13904841D01*
X7467706Y-13904841D02*
X7467706Y-13866746D01*
X7467706Y-13866746D02*
X7458182Y-13819127D01*
X7458182Y-13819127D02*
X7448658Y-13790555D01*
X7448658Y-13790555D02*
X7439134Y-13771508D01*
X7439134Y-13771508D02*
X7420087Y-13742936D01*
X7420087Y-13742936D02*
X7410563Y-13733412D01*
X7772468Y-14038174D02*
X7762944Y-14028650D01*
X7762944Y-14028650D02*
X7743896Y-14000079D01*
X7743896Y-14000079D02*
X7734372Y-13981031D01*
X7734372Y-13981031D02*
X7724849Y-13952460D01*
X7724849Y-13952460D02*
X7715325Y-13904841D01*
X7715325Y-13904841D02*
X7715325Y-13866746D01*
X7715325Y-13866746D02*
X7724849Y-13819127D01*
X7724849Y-13819127D02*
X7734372Y-13790555D01*
X7734372Y-13790555D02*
X7743896Y-13771508D01*
X7743896Y-13771508D02*
X7762944Y-13742936D01*
X7762944Y-13742936D02*
X7772468Y-13733412D01*
X7848658Y-13828650D02*
X7848658Y-13961984D01*
X7848658Y-13847698D02*
X7858182Y-13838174D01*
X7858182Y-13838174D02*
X7877230Y-13828650D01*
X7877230Y-13828650D02*
X7905801Y-13828650D01*
X7905801Y-13828650D02*
X7924849Y-13838174D01*
X7924849Y-13838174D02*
X7934372Y-13857222D01*
X7934372Y-13857222D02*
X7934372Y-13961984D01*
X8058182Y-13961984D02*
X8039134Y-13952460D01*
X8039134Y-13952460D02*
X8029611Y-13942936D01*
X8029611Y-13942936D02*
X8020087Y-13923888D01*
X8020087Y-13923888D02*
X8020087Y-13866746D01*
X8020087Y-13866746D02*
X8029611Y-13847698D01*
X8029611Y-13847698D02*
X8039134Y-13838174D01*
X8039134Y-13838174D02*
X8058182Y-13828650D01*
X8058182Y-13828650D02*
X8086753Y-13828650D01*
X8086753Y-13828650D02*
X8105801Y-13838174D01*
X8105801Y-13838174D02*
X8115325Y-13847698D01*
X8115325Y-13847698D02*
X8124849Y-13866746D01*
X8124849Y-13866746D02*
X8124849Y-13923888D01*
X8124849Y-13923888D02*
X8115325Y-13942936D01*
X8115325Y-13942936D02*
X8105801Y-13952460D01*
X8105801Y-13952460D02*
X8086753Y-13961984D01*
X8086753Y-13961984D02*
X8058182Y-13961984D01*
X8181992Y-13828650D02*
X8258182Y-13828650D01*
X8210563Y-13761984D02*
X8210563Y-13933412D01*
X8210563Y-13933412D02*
X8220087Y-13952460D01*
X8220087Y-13952460D02*
X8239134Y-13961984D01*
X8239134Y-13961984D02*
X8258182Y-13961984D01*
X8477230Y-13828650D02*
X8477230Y-14028650D01*
X8477230Y-13838174D02*
X8496277Y-13828650D01*
X8496277Y-13828650D02*
X8534373Y-13828650D01*
X8534373Y-13828650D02*
X8553420Y-13838174D01*
X8553420Y-13838174D02*
X8562944Y-13847698D01*
X8562944Y-13847698D02*
X8572468Y-13866746D01*
X8572468Y-13866746D02*
X8572468Y-13923888D01*
X8572468Y-13923888D02*
X8562944Y-13942936D01*
X8562944Y-13942936D02*
X8553420Y-13952460D01*
X8553420Y-13952460D02*
X8534373Y-13961984D01*
X8534373Y-13961984D02*
X8496277Y-13961984D01*
X8496277Y-13961984D02*
X8477230Y-13952460D01*
X8686754Y-13961984D02*
X8667706Y-13952460D01*
X8667706Y-13952460D02*
X8658182Y-13933412D01*
X8658182Y-13933412D02*
X8658182Y-13761984D01*
X8848658Y-13961984D02*
X8848658Y-13857222D01*
X8848658Y-13857222D02*
X8839135Y-13838174D01*
X8839135Y-13838174D02*
X8820087Y-13828650D01*
X8820087Y-13828650D02*
X8781992Y-13828650D01*
X8781992Y-13828650D02*
X8762944Y-13838174D01*
X8848658Y-13952460D02*
X8829611Y-13961984D01*
X8829611Y-13961984D02*
X8781992Y-13961984D01*
X8781992Y-13961984D02*
X8762944Y-13952460D01*
X8762944Y-13952460D02*
X8753420Y-13933412D01*
X8753420Y-13933412D02*
X8753420Y-13914365D01*
X8753420Y-13914365D02*
X8762944Y-13895317D01*
X8762944Y-13895317D02*
X8781992Y-13885793D01*
X8781992Y-13885793D02*
X8829611Y-13885793D01*
X8829611Y-13885793D02*
X8848658Y-13876269D01*
X8915325Y-13828650D02*
X8991515Y-13828650D01*
X8943896Y-13761984D02*
X8943896Y-13933412D01*
X8943896Y-13933412D02*
X8953420Y-13952460D01*
X8953420Y-13952460D02*
X8972468Y-13961984D01*
X8972468Y-13961984D02*
X8991515Y-13961984D01*
X9134373Y-13952460D02*
X9115325Y-13961984D01*
X9115325Y-13961984D02*
X9077230Y-13961984D01*
X9077230Y-13961984D02*
X9058182Y-13952460D01*
X9058182Y-13952460D02*
X9048658Y-13933412D01*
X9048658Y-13933412D02*
X9048658Y-13857222D01*
X9048658Y-13857222D02*
X9058182Y-13838174D01*
X9058182Y-13838174D02*
X9077230Y-13828650D01*
X9077230Y-13828650D02*
X9115325Y-13828650D01*
X9115325Y-13828650D02*
X9134373Y-13838174D01*
X9134373Y-13838174D02*
X9143896Y-13857222D01*
X9143896Y-13857222D02*
X9143896Y-13876269D01*
X9143896Y-13876269D02*
X9048658Y-13895317D01*
X9315325Y-13961984D02*
X9315325Y-13761984D01*
X9315325Y-13952460D02*
X9296277Y-13961984D01*
X9296277Y-13961984D02*
X9258182Y-13961984D01*
X9258182Y-13961984D02*
X9239135Y-13952460D01*
X9239135Y-13952460D02*
X9229611Y-13942936D01*
X9229611Y-13942936D02*
X9220087Y-13923888D01*
X9220087Y-13923888D02*
X9220087Y-13866746D01*
X9220087Y-13866746D02*
X9229611Y-13847698D01*
X9229611Y-13847698D02*
X9239135Y-13838174D01*
X9239135Y-13838174D02*
X9258182Y-13828650D01*
X9258182Y-13828650D02*
X9296277Y-13828650D01*
X9296277Y-13828650D02*
X9315325Y-13838174D01*
X9391516Y-14038174D02*
X9401039Y-14028650D01*
X9401039Y-14028650D02*
X9420087Y-14000079D01*
X9420087Y-14000079D02*
X9429611Y-13981031D01*
X9429611Y-13981031D02*
X9439135Y-13952460D01*
X9439135Y-13952460D02*
X9448658Y-13904841D01*
X9448658Y-13904841D02*
X9448658Y-13866746D01*
X9448658Y-13866746D02*
X9439135Y-13819127D01*
X9439135Y-13819127D02*
X9429611Y-13790555D01*
X9429611Y-13790555D02*
X9420087Y-13771508D01*
X9420087Y-13771508D02*
X9401039Y-13742936D01*
X9401039Y-13742936D02*
X9391516Y-13733412D01*
M02*
