%TF.GenerationSoftware,KiCad,Pcbnew,8.0.3*%
%TF.CreationDate,2024-10-03T16:40:50-03:00*%
%TF.ProjectId,check_point_1,63686563-6b5f-4706-9f69-6e745f312e6b,rev?*%
%TF.SameCoordinates,Original*%
%TF.FileFunction,Drillmap*%
%TF.FilePolarity,Positive*%
%FSLAX45Y45*%
G04 Gerber Fmt 4.5, Leading zero omitted, Abs format (unit mm)*
G04 Created by KiCad (PCBNEW 8.0.3) date 2024-10-03 16:40:50*
%MOMM*%
%LPD*%
G01*
G04 APERTURE LIST*
%ADD10C,0.050000*%
%ADD11C,0.200000*%
%ADD12C,0.100000*%
%ADD13C,0.110000*%
%ADD14C,0.120000*%
G04 APERTURE END LIST*
D10*
X2638000Y-5092000D02*
X13308000Y-5092000D01*
X13308000Y-13228000D01*
X2638000Y-13228000D01*
X2638000Y-5092000D01*
D11*
D12*
X5446000Y-6502000D02*
X5516000Y-6572000D01*
X5516000Y-6502000D02*
X5446000Y-6572000D01*
X5446000Y-6752000D02*
X5516000Y-6822000D01*
X5516000Y-6752000D02*
X5446000Y-6822000D01*
X3055500Y-8571000D02*
G75*
G02*
X2980500Y-8571000I-37500J0D01*
G01*
X2980500Y-8571000D02*
G75*
G02*
X3055500Y-8571000I37500J0D01*
G01*
X3055500Y-8698000D02*
G75*
G02*
X2980500Y-8698000I-37500J0D01*
G01*
X2980500Y-8698000D02*
G75*
G02*
X3055500Y-8698000I37500J0D01*
G01*
X3055500Y-8825000D02*
G75*
G02*
X2980500Y-8825000I-37500J0D01*
G01*
X2980500Y-8825000D02*
G75*
G02*
X3055500Y-8825000I37500J0D01*
G01*
X3071500Y-9331000D02*
G75*
G02*
X2996500Y-9331000I-37500J0D01*
G01*
X2996500Y-9331000D02*
G75*
G02*
X3071500Y-9331000I37500J0D01*
G01*
X3198500Y-9331000D02*
G75*
G02*
X3123500Y-9331000I-37500J0D01*
G01*
X3123500Y-9331000D02*
G75*
G02*
X3198500Y-9331000I37500J0D01*
G01*
X3325500Y-9331000D02*
G75*
G02*
X3250500Y-9331000I-37500J0D01*
G01*
X3250500Y-9331000D02*
G75*
G02*
X3325500Y-9331000I37500J0D01*
G01*
X3786500Y-9841000D02*
G75*
G02*
X3711500Y-9841000I-37500J0D01*
G01*
X3711500Y-9841000D02*
G75*
G02*
X3786500Y-9841000I37500J0D01*
G01*
X3913500Y-9841000D02*
G75*
G02*
X3838500Y-9841000I-37500J0D01*
G01*
X3838500Y-9841000D02*
G75*
G02*
X3913500Y-9841000I37500J0D01*
G01*
X4040500Y-9841000D02*
G75*
G02*
X3965500Y-9841000I-37500J0D01*
G01*
X3965500Y-9841000D02*
G75*
G02*
X4040500Y-9841000I37500J0D01*
G01*
X4380500Y-9774000D02*
G75*
G02*
X4305500Y-9774000I-37500J0D01*
G01*
X4305500Y-9774000D02*
G75*
G02*
X4380500Y-9774000I37500J0D01*
G01*
X4507500Y-9774000D02*
G75*
G02*
X4432500Y-9774000I-37500J0D01*
G01*
X4432500Y-9774000D02*
G75*
G02*
X4507500Y-9774000I37500J0D01*
G01*
X4634500Y-9774000D02*
G75*
G02*
X4559500Y-9774000I-37500J0D01*
G01*
X4559500Y-9774000D02*
G75*
G02*
X4634500Y-9774000I37500J0D01*
G01*
X5146500Y-9304000D02*
G75*
G02*
X5071500Y-9304000I-37500J0D01*
G01*
X5071500Y-9304000D02*
G75*
G02*
X5146500Y-9304000I37500J0D01*
G01*
X5273500Y-9304000D02*
G75*
G02*
X5198500Y-9304000I-37500J0D01*
G01*
X5198500Y-9304000D02*
G75*
G02*
X5273500Y-9304000I37500J0D01*
G01*
X5400500Y-9304000D02*
G75*
G02*
X5325500Y-9304000I-37500J0D01*
G01*
X5325500Y-9304000D02*
G75*
G02*
X5400500Y-9304000I37500J0D01*
G01*
X5611500Y-8571000D02*
G75*
G02*
X5536500Y-8571000I-37500J0D01*
G01*
X5536500Y-8571000D02*
G75*
G02*
X5611500Y-8571000I37500J0D01*
G01*
X5611500Y-8698000D02*
G75*
G02*
X5536500Y-8698000I-37500J0D01*
G01*
X5536500Y-8698000D02*
G75*
G02*
X5611500Y-8698000I37500J0D01*
G01*
X5611500Y-8825000D02*
G75*
G02*
X5536500Y-8825000I-37500J0D01*
G01*
X5536500Y-8825000D02*
G75*
G02*
X5611500Y-8825000I37500J0D01*
G01*
X5783500Y-9355000D02*
G75*
G02*
X5708500Y-9355000I-37500J0D01*
G01*
X5708500Y-9355000D02*
G75*
G02*
X5783500Y-9355000I37500J0D01*
G01*
X5910500Y-9355000D02*
G75*
G02*
X5835500Y-9355000I-37500J0D01*
G01*
X5835500Y-9355000D02*
G75*
G02*
X5910500Y-9355000I37500J0D01*
G01*
X6037500Y-9355000D02*
G75*
G02*
X5962500Y-9355000I-37500J0D01*
G01*
X5962500Y-9355000D02*
G75*
G02*
X6037500Y-9355000I37500J0D01*
G01*
X6631500Y-8511000D02*
G75*
G02*
X6556500Y-8511000I-37500J0D01*
G01*
X6556500Y-8511000D02*
G75*
G02*
X6631500Y-8511000I37500J0D01*
G01*
X6758500Y-8511000D02*
G75*
G02*
X6683500Y-8511000I-37500J0D01*
G01*
X6683500Y-8511000D02*
G75*
G02*
X6758500Y-8511000I37500J0D01*
G01*
X6885500Y-8511000D02*
G75*
G02*
X6810500Y-8511000I-37500J0D01*
G01*
X6810500Y-8511000D02*
G75*
G02*
X6885500Y-8511000I37500J0D01*
G01*
X2914000Y-6153000D02*
X2914000Y-6233000D01*
X2874000Y-6193000D02*
X2954000Y-6193000D01*
X2964000Y-6756000D02*
X2964000Y-6836000D01*
X2924000Y-6796000D02*
X3004000Y-6796000D01*
X3585000Y-11028000D02*
X3585000Y-11108000D01*
X3545000Y-11068000D02*
X3625000Y-11068000D01*
X4287000Y-11026000D02*
X4287000Y-11106000D01*
X4247000Y-11066000D02*
X4327000Y-11066000D01*
X6602000Y-9997000D02*
X6602000Y-10077000D01*
X6562000Y-10037000D02*
X6642000Y-10037000D01*
X7659000Y-9997000D02*
X7659000Y-10077000D01*
X7619000Y-10037000D02*
X7699000Y-10037000D01*
X9267000Y-6297000D02*
X9267000Y-6377000D01*
X9227000Y-6337000D02*
X9307000Y-6337000D01*
X9267000Y-6972000D02*
X9267000Y-7052000D01*
X9227000Y-7012000D02*
X9307000Y-7012000D01*
X9275000Y-5317000D02*
X9275000Y-5397000D01*
X9235000Y-5357000D02*
X9315000Y-5357000D01*
X3187284Y-7769284D02*
X3187284Y-7712715D01*
X3130715Y-7712715D01*
X3130715Y-7769284D01*
X3187284Y-7769284D01*
X3246284Y-10004285D02*
X3246284Y-9947716D01*
X3189715Y-9947716D01*
X3189715Y-10004285D01*
X3246284Y-10004285D01*
X3246284Y-11020285D02*
X3246284Y-10963716D01*
X3189715Y-10963716D01*
X3189715Y-11020285D01*
X3246284Y-11020285D01*
X3304284Y-11451284D02*
X3304284Y-11394715D01*
X3247715Y-11394715D01*
X3247715Y-11451284D01*
X3304284Y-11451284D01*
X3754284Y-7455284D02*
X3754284Y-7398715D01*
X3697715Y-7398715D01*
X3697715Y-7455284D01*
X3754284Y-7455284D01*
X4054284Y-8334284D02*
X4054284Y-8277715D01*
X3997715Y-8277715D01*
X3997715Y-8334284D01*
X4054284Y-8334284D01*
X4054284Y-9350285D02*
X4054284Y-9293716D01*
X3997715Y-9293716D01*
X3997715Y-9350285D01*
X4054284Y-9350285D01*
X4203285Y-7769284D02*
X4203285Y-7712715D01*
X4146715Y-7712715D01*
X4146715Y-7769284D01*
X4203285Y-7769284D01*
X4254285Y-7455284D02*
X4254285Y-7398715D01*
X4197716Y-7398715D01*
X4197716Y-7455284D01*
X4254285Y-7455284D01*
X4320285Y-11451284D02*
X4320285Y-11394715D01*
X4263716Y-11394715D01*
X4263716Y-11451284D01*
X4320285Y-11451284D01*
X4421285Y-7769284D02*
X4421285Y-7712715D01*
X4364716Y-7712715D01*
X4364716Y-7769284D01*
X4421285Y-7769284D01*
X4484285Y-8623285D02*
X4484285Y-8566716D01*
X4427716Y-8566716D01*
X4427716Y-8623285D01*
X4484285Y-8623285D01*
X4685285Y-11390284D02*
X4685285Y-11333715D01*
X4628716Y-11333715D01*
X4628716Y-11390284D01*
X4685285Y-11390284D01*
X4685285Y-12406284D02*
X4685285Y-12349715D01*
X4628716Y-12349715D01*
X4628716Y-12406284D01*
X4685285Y-12406284D01*
X4738285Y-8623285D02*
X4738285Y-8566716D01*
X4681716Y-8566716D01*
X4681716Y-8623285D01*
X4738285Y-8623285D01*
X4985285Y-10162285D02*
X4985285Y-10105716D01*
X4928716Y-10105716D01*
X4928716Y-10162285D01*
X4985285Y-10162285D01*
X4985285Y-10662285D02*
X4985285Y-10605716D01*
X4928716Y-10605716D01*
X4928716Y-10662285D01*
X4985285Y-10662285D01*
X4992285Y-8623285D02*
X4992285Y-8566716D01*
X4935716Y-8566716D01*
X4935716Y-8623285D01*
X4992285Y-8623285D01*
X5365285Y-11015285D02*
X5365285Y-10958716D01*
X5308716Y-10958716D01*
X5308716Y-11015285D01*
X5365285Y-11015285D01*
X5365285Y-12031284D02*
X5365285Y-11974715D01*
X5308716Y-11974715D01*
X5308716Y-12031284D01*
X5365285Y-12031284D01*
X5408285Y-10512285D02*
X5408285Y-10455716D01*
X5351716Y-10455716D01*
X5351716Y-10512285D01*
X5408285Y-10512285D01*
X5437285Y-7769284D02*
X5437285Y-7712715D01*
X5380716Y-7712715D01*
X5380716Y-7769284D01*
X5437285Y-7769284D01*
X5724284Y-6116284D02*
X5724284Y-6059715D01*
X5667715Y-6059715D01*
X5667715Y-6116284D01*
X5724284Y-6116284D01*
X6204284Y-7338284D02*
X6204284Y-7281715D01*
X6147715Y-7281715D01*
X6147715Y-7338284D01*
X6204284Y-7338284D01*
X6297284Y-7828284D02*
X6297284Y-7771715D01*
X6240715Y-7771715D01*
X6240715Y-7828284D01*
X6297284Y-7828284D01*
X6424284Y-10512285D02*
X6424284Y-10455716D01*
X6367715Y-10455716D01*
X6367715Y-10512285D01*
X6424284Y-10512285D01*
X6704284Y-7338284D02*
X6704284Y-7281715D01*
X6647715Y-7281715D01*
X6647715Y-7338284D01*
X6704284Y-7338284D01*
X6740284Y-6116284D02*
X6740284Y-6059715D01*
X6683715Y-6059715D01*
X6683715Y-6116284D01*
X6740284Y-6116284D01*
X7014284Y-9539285D02*
X7014284Y-9482716D01*
X6957715Y-9482716D01*
X6957715Y-9539285D01*
X7014284Y-9539285D01*
X7014284Y-10555285D02*
X7014284Y-10498716D01*
X6957715Y-10498716D01*
X6957715Y-10555285D01*
X7014284Y-10555285D01*
X7313284Y-7828284D02*
X7313284Y-7771715D01*
X7256715Y-7771715D01*
X7256715Y-7828284D01*
X7313284Y-7828284D01*
X7392284Y-8241284D02*
X7392284Y-8184715D01*
X7335715Y-8184715D01*
X7335715Y-8241284D01*
X7392284Y-8241284D01*
X7392284Y-8741285D02*
X7392284Y-8684716D01*
X7335715Y-8684716D01*
X7335715Y-8741285D01*
X7392284Y-8741285D01*
X7605284Y-6612284D02*
X7605284Y-6555715D01*
X7548715Y-6555715D01*
X7548715Y-6612284D01*
X7605284Y-6612284D01*
X7605284Y-7628284D02*
X7605284Y-7571715D01*
X7548715Y-7571715D01*
X7548715Y-7628284D01*
X7605284Y-7628284D01*
X7809284Y-9554285D02*
X7809284Y-9497716D01*
X7752715Y-9497716D01*
X7752715Y-9554285D01*
X7809284Y-9554285D01*
X8144284Y-10061285D02*
X8144284Y-10004716D01*
X8087715Y-10004716D01*
X8087715Y-10061285D01*
X8144284Y-10061285D01*
X8144284Y-11077285D02*
X8144284Y-11020716D01*
X8087715Y-11020716D01*
X8087715Y-11077285D01*
X8144284Y-11077285D01*
X8289284Y-6438284D02*
X8289284Y-6381715D01*
X8232715Y-6381715D01*
X8232715Y-6438284D01*
X8289284Y-6438284D01*
X8289284Y-7962284D02*
X8289284Y-7905715D01*
X8232715Y-7905715D01*
X8232715Y-7962284D01*
X8289284Y-7962284D01*
X8309284Y-9554285D02*
X8309284Y-9497716D01*
X8252715Y-9497716D01*
X8252715Y-9554285D01*
X8309284Y-9554285D01*
X8720285Y-10979285D02*
X8720285Y-10922716D01*
X8663716Y-10922716D01*
X8663716Y-10979285D01*
X8720285Y-10979285D01*
X8720285Y-11229284D02*
X8720285Y-11172716D01*
X8663716Y-11172716D01*
X8663716Y-11229284D01*
X8720285Y-11229284D01*
X8743285Y-6347284D02*
X8743285Y-6290715D01*
X8686716Y-6290715D01*
X8686716Y-6347284D01*
X8743285Y-6347284D01*
X8743285Y-6855284D02*
X8743285Y-6798715D01*
X8686716Y-6798715D01*
X8686716Y-6855284D01*
X8743285Y-6855284D01*
X8743285Y-7147284D02*
X8743285Y-7090715D01*
X8686716Y-7090715D01*
X8686716Y-7147284D01*
X8743285Y-7147284D01*
X8743285Y-8163284D02*
X8743285Y-8106715D01*
X8686716Y-8106715D01*
X8686716Y-8163284D01*
X8743285Y-8163284D01*
X9143285Y-8463285D02*
X9143285Y-8406716D01*
X9086716Y-8406716D01*
X9086716Y-8463285D01*
X9143285Y-8463285D01*
X9143285Y-9479285D02*
X9143285Y-9422716D01*
X9086716Y-9422716D01*
X9086716Y-9479285D01*
X9143285Y-9479285D01*
X9173285Y-9772285D02*
X9173285Y-9715716D01*
X9116716Y-9715716D01*
X9116716Y-9772285D01*
X9173285Y-9772285D01*
X9173285Y-10788285D02*
X9173285Y-10731716D01*
X9116716Y-10731716D01*
X9116716Y-10788285D01*
X9173285Y-10788285D01*
X9467285Y-10783285D02*
X9467285Y-10726716D01*
X9410716Y-10726716D01*
X9410716Y-10783285D01*
X9467285Y-10783285D01*
X9593285Y-7152284D02*
X9593285Y-7095715D01*
X9536716Y-7095715D01*
X9536716Y-7152284D01*
X9593285Y-7152284D01*
X9593285Y-8168284D02*
X9593285Y-8111715D01*
X9536716Y-8111715D01*
X9536716Y-8168284D01*
X9593285Y-8168284D01*
X9593285Y-8580285D02*
X9593285Y-8523716D01*
X9536716Y-8523716D01*
X9536716Y-8580285D01*
X9593285Y-8580285D01*
X9593285Y-9080285D02*
X9593285Y-9023716D01*
X9536716Y-9023716D01*
X9536716Y-9080285D01*
X9593285Y-9080285D01*
X9742285Y-11185284D02*
X9742285Y-11128716D01*
X9685716Y-11128716D01*
X9685716Y-11185284D01*
X9742285Y-11185284D01*
X9742285Y-11947284D02*
X9742285Y-11890715D01*
X9685716Y-11890715D01*
X9685716Y-11947284D01*
X9742285Y-11947284D01*
X9989285Y-12695284D02*
X9989285Y-12638715D01*
X9932716Y-12638715D01*
X9932716Y-12695284D01*
X9989285Y-12695284D01*
X9996285Y-11185284D02*
X9996285Y-11128716D01*
X9939716Y-11128716D01*
X9939716Y-11185284D01*
X9996285Y-11185284D01*
X9996285Y-11947284D02*
X9996285Y-11890715D01*
X9939716Y-11890715D01*
X9939716Y-11947284D01*
X9996285Y-11947284D01*
X10053285Y-6974284D02*
X10053285Y-6917715D01*
X9996716Y-6917715D01*
X9996716Y-6974284D01*
X10053285Y-6974284D01*
X10053285Y-7990284D02*
X10053285Y-7933715D01*
X9996716Y-7933715D01*
X9996716Y-7990284D01*
X10053285Y-7990284D01*
X10250285Y-11185284D02*
X10250285Y-11128716D01*
X10193716Y-11128716D01*
X10193716Y-11185284D01*
X10250285Y-11185284D01*
X10250285Y-11947284D02*
X10250285Y-11890715D01*
X10193716Y-11890715D01*
X10193716Y-11947284D01*
X10250285Y-11947284D01*
X10469285Y-10216285D02*
X10469285Y-10159716D01*
X10412716Y-10159716D01*
X10412716Y-10216285D01*
X10469285Y-10216285D01*
X10483285Y-10783285D02*
X10483285Y-10726716D01*
X10426716Y-10726716D01*
X10426716Y-10783285D01*
X10483285Y-10783285D01*
X10497285Y-12286284D02*
X10497285Y-12229715D01*
X10440716Y-12229715D01*
X10440716Y-12286284D01*
X10497285Y-12286284D01*
X10504285Y-11185284D02*
X10504285Y-11128716D01*
X10447716Y-11128716D01*
X10447716Y-11185284D01*
X10504285Y-11185284D01*
X10504285Y-11947284D02*
X10504285Y-11890715D01*
X10447716Y-11890715D01*
X10447716Y-11947284D01*
X10504285Y-11947284D01*
X10505285Y-8048284D02*
X10505285Y-7991715D01*
X10448716Y-7991715D01*
X10448716Y-8048284D01*
X10505285Y-8048284D01*
X10505285Y-8810285D02*
X10505285Y-8753716D01*
X10448716Y-8753716D01*
X10448716Y-8810285D01*
X10505285Y-8810285D01*
X10758285Y-11185284D02*
X10758285Y-11128716D01*
X10701716Y-11128716D01*
X10701716Y-11185284D01*
X10758285Y-11185284D01*
X10758285Y-11947284D02*
X10758285Y-11890715D01*
X10701716Y-11890715D01*
X10701716Y-11947284D01*
X10758285Y-11947284D01*
X10759285Y-8048284D02*
X10759285Y-7991715D01*
X10702716Y-7991715D01*
X10702716Y-8048284D01*
X10759285Y-8048284D01*
X10759285Y-8810285D02*
X10759285Y-8753716D01*
X10702716Y-8753716D01*
X10702716Y-8810285D01*
X10759285Y-8810285D01*
X10997285Y-12286284D02*
X10997285Y-12229715D01*
X10940716Y-12229715D01*
X10940716Y-12286284D01*
X10997285Y-12286284D01*
X11005285Y-12695284D02*
X11005285Y-12638715D01*
X10948716Y-12638715D01*
X10948716Y-12695284D01*
X11005285Y-12695284D01*
X11012285Y-11185284D02*
X11012285Y-11128716D01*
X10955716Y-11128716D01*
X10955716Y-11185284D01*
X11012285Y-11185284D01*
X11012285Y-11947284D02*
X11012285Y-11890715D01*
X10955716Y-11890715D01*
X10955716Y-11947284D01*
X11012285Y-11947284D01*
X11013285Y-8048284D02*
X11013285Y-7991715D01*
X10956716Y-7991715D01*
X10956716Y-8048284D01*
X11013285Y-8048284D01*
X11013285Y-8810285D02*
X11013285Y-8753716D01*
X10956716Y-8753716D01*
X10956716Y-8810285D01*
X11013285Y-8810285D01*
X11055285Y-10621285D02*
X11055285Y-10564716D01*
X10998716Y-10564716D01*
X10998716Y-10621285D01*
X11055285Y-10621285D01*
X11255284Y-12275284D02*
X11255284Y-12218715D01*
X11198715Y-12218715D01*
X11198715Y-12275284D01*
X11255284Y-12275284D01*
X11266284Y-11185284D02*
X11266284Y-11128716D01*
X11209715Y-11128716D01*
X11209715Y-11185284D01*
X11266284Y-11185284D01*
X11266284Y-11947284D02*
X11266284Y-11890715D01*
X11209715Y-11890715D01*
X11209715Y-11947284D01*
X11266284Y-11947284D01*
X11267284Y-8048284D02*
X11267284Y-7991715D01*
X11210715Y-7991715D01*
X11210715Y-8048284D01*
X11267284Y-8048284D01*
X11267284Y-8810285D02*
X11267284Y-8753716D01*
X11210715Y-8753716D01*
X11210715Y-8810285D01*
X11267284Y-8810285D01*
X11300284Y-9138285D02*
X11300284Y-9081716D01*
X11243715Y-9081716D01*
X11243715Y-9138285D01*
X11300284Y-9138285D01*
X11485284Y-10216285D02*
X11485284Y-10159716D01*
X11428715Y-10159716D01*
X11428715Y-10216285D01*
X11485284Y-10216285D01*
X11521284Y-8048284D02*
X11521284Y-7991715D01*
X11464715Y-7991715D01*
X11464715Y-8048284D01*
X11521284Y-8048284D01*
X11521284Y-8810285D02*
X11521284Y-8753716D01*
X11464715Y-8753716D01*
X11464715Y-8810285D01*
X11521284Y-8810285D01*
X11540284Y-11716284D02*
X11540284Y-11659715D01*
X11483715Y-11659715D01*
X11483715Y-11716284D01*
X11540284Y-11716284D01*
X11775284Y-8048284D02*
X11775284Y-7991715D01*
X11718715Y-7991715D01*
X11718715Y-8048284D01*
X11775284Y-8048284D01*
X11775284Y-8810285D02*
X11775284Y-8753716D01*
X11718715Y-8753716D01*
X11718715Y-8810285D01*
X11775284Y-8810285D01*
X11800284Y-9138285D02*
X11800284Y-9081716D01*
X11743715Y-9081716D01*
X11743715Y-9138285D01*
X11800284Y-9138285D01*
X12029284Y-8048284D02*
X12029284Y-7991715D01*
X11972715Y-7991715D01*
X11972715Y-8048284D01*
X12029284Y-8048284D01*
X12029284Y-8810285D02*
X12029284Y-8753716D01*
X11972715Y-8753716D01*
X11972715Y-8810285D01*
X12029284Y-8810285D01*
X12071284Y-10621285D02*
X12071284Y-10564716D01*
X12014715Y-10564716D01*
X12014715Y-10621285D01*
X12071284Y-10621285D01*
X12271284Y-12275284D02*
X12271284Y-12218715D01*
X12214715Y-12218715D01*
X12214715Y-12275284D01*
X12271284Y-12275284D01*
X12556284Y-11716284D02*
X12556284Y-11659715D01*
X12499715Y-11659715D01*
X12499715Y-11716284D01*
X12556284Y-11716284D01*
X3304000Y-11900000D02*
X3354000Y-11850000D01*
X3304000Y-11800000D01*
X3254000Y-11850000D01*
X3304000Y-11900000D01*
X3304000Y-12154000D02*
X3354000Y-12104000D01*
X3304000Y-12054000D01*
X3254000Y-12104000D01*
X3304000Y-12154000D01*
X3864000Y-10553500D02*
X3914000Y-10503500D01*
X3864000Y-10453500D01*
X3814000Y-10503500D01*
X3864000Y-10553500D01*
X3864000Y-10807500D02*
X3914000Y-10757500D01*
X3864000Y-10707500D01*
X3814000Y-10757500D01*
X3864000Y-10807500D01*
X4417000Y-10553000D02*
X4467000Y-10503000D01*
X4417000Y-10453000D01*
X4367000Y-10503000D01*
X4417000Y-10553000D01*
X4417000Y-10807000D02*
X4467000Y-10757000D01*
X4417000Y-10707000D01*
X4367000Y-10757000D01*
X4417000Y-10807000D01*
X5692000Y-10009000D02*
X5742000Y-9959000D01*
X5692000Y-9909000D01*
X5642000Y-9959000D01*
X5692000Y-10009000D01*
X5738000Y-12260000D02*
X5788000Y-12210000D01*
X5738000Y-12160000D01*
X5688000Y-12210000D01*
X5738000Y-12260000D01*
X5738000Y-12514000D02*
X5788000Y-12464000D01*
X5738000Y-12414000D01*
X5688000Y-12464000D01*
X5738000Y-12514000D01*
X5946000Y-10009000D02*
X5996000Y-9959000D01*
X5946000Y-9909000D01*
X5896000Y-9959000D01*
X5946000Y-10009000D01*
X6138000Y-8425500D02*
X6188000Y-8375500D01*
X6138000Y-8325500D01*
X6088000Y-8375500D01*
X6138000Y-8425500D01*
X6138000Y-8679500D02*
X6188000Y-8629500D01*
X6138000Y-8579500D01*
X6088000Y-8629500D01*
X6138000Y-8679500D01*
X6200000Y-10009000D02*
X6250000Y-9959000D01*
X6200000Y-9909000D01*
X6150000Y-9959000D01*
X6200000Y-10009000D01*
X6953000Y-11330000D02*
X7003000Y-11280000D01*
X6953000Y-11230000D01*
X6903000Y-11280000D01*
X6953000Y-11330000D01*
X6953000Y-11584000D02*
X7003000Y-11534000D01*
X6953000Y-11484000D01*
X6903000Y-11534000D01*
X6953000Y-11584000D01*
X8675000Y-9623500D02*
X8725000Y-9573500D01*
X8675000Y-9523500D01*
X8625000Y-9573500D01*
X8675000Y-9623500D01*
X8675000Y-9877500D02*
X8725000Y-9827500D01*
X8675000Y-9777500D01*
X8625000Y-9827500D01*
X8675000Y-9877500D01*
X12074500Y-11056000D02*
X12124500Y-11006000D01*
X12074500Y-10956000D01*
X12024500Y-11006000D01*
X12074500Y-11056000D01*
X12225000Y-9616000D02*
X12275000Y-9566000D01*
X12225000Y-9516000D01*
X12175000Y-9566000D01*
X12225000Y-9616000D01*
X12225000Y-9870000D02*
X12275000Y-9820000D01*
X12225000Y-9770000D01*
X12175000Y-9820000D01*
X12225000Y-9870000D01*
X12328500Y-11056000D02*
X12378500Y-11006000D01*
X12328500Y-10956000D01*
X12278500Y-11006000D01*
X12328500Y-11056000D01*
D13*
X5853000Y-10895000D02*
X5963000Y-11005000D01*
X5963000Y-10895000D02*
X5853000Y-11005000D01*
X5963000Y-10950000D02*
G75*
G02*
X5853000Y-10950000I-55000J0D01*
G01*
X5853000Y-10950000D02*
G75*
G02*
X5963000Y-10950000I55000J0D01*
G01*
X6063000Y-6723000D02*
X6173000Y-6833000D01*
X6173000Y-6723000D02*
X6063000Y-6833000D01*
X6173000Y-6778000D02*
G75*
G02*
X6063000Y-6778000I-55000J0D01*
G01*
X6063000Y-6778000D02*
G75*
G02*
X6173000Y-6778000I55000J0D01*
G01*
X6107000Y-10895000D02*
X6217000Y-11005000D01*
X6217000Y-10895000D02*
X6107000Y-11005000D01*
X6217000Y-10950000D02*
G75*
G02*
X6107000Y-10950000I-55000J0D01*
G01*
X6107000Y-10950000D02*
G75*
G02*
X6217000Y-10950000I55000J0D01*
G01*
X6317000Y-6723000D02*
X6427000Y-6833000D01*
X6427000Y-6723000D02*
X6317000Y-6833000D01*
X6427000Y-6778000D02*
G75*
G02*
X6317000Y-6778000I-55000J0D01*
G01*
X6317000Y-6778000D02*
G75*
G02*
X6427000Y-6778000I55000J0D01*
G01*
X6361000Y-10895000D02*
X6471000Y-11005000D01*
X6471000Y-10895000D02*
X6361000Y-11005000D01*
X6471000Y-10950000D02*
G75*
G02*
X6361000Y-10950000I-55000J0D01*
G01*
X6361000Y-10950000D02*
G75*
G02*
X6471000Y-10950000I55000J0D01*
G01*
X6571000Y-6723000D02*
X6681000Y-6833000D01*
X6681000Y-6723000D02*
X6571000Y-6833000D01*
X6681000Y-6778000D02*
G75*
G02*
X6571000Y-6778000I-55000J0D01*
G01*
X6571000Y-6778000D02*
G75*
G02*
X6681000Y-6778000I55000J0D01*
G01*
D14*
X3364000Y-5813000D02*
X3484000Y-5933000D01*
X3484000Y-5813000D02*
X3364000Y-5933000D01*
X3424000Y-5813000D02*
X3424000Y-5933000D01*
X3364000Y-5873000D02*
X3484000Y-5873000D01*
X3864000Y-5813000D02*
X3984000Y-5933000D01*
X3984000Y-5813000D02*
X3864000Y-5933000D01*
X3924000Y-5813000D02*
X3924000Y-5933000D01*
X3864000Y-5873000D02*
X3984000Y-5873000D01*
X12846000Y-6545000D02*
X12966000Y-6665000D01*
X12966000Y-6545000D02*
X12846000Y-6665000D01*
X12906000Y-6545000D02*
X12906000Y-6665000D01*
X12846000Y-6605000D02*
X12966000Y-6605000D01*
X12846000Y-7045000D02*
X12966000Y-7165000D01*
X12966000Y-7045000D02*
X12846000Y-7165000D01*
X12906000Y-7045000D02*
X12906000Y-7165000D01*
X12846000Y-7105000D02*
X12966000Y-7105000D01*
D11*
X2896277Y-13541984D02*
X2896277Y-13341984D01*
X2896277Y-13341984D02*
X2943896Y-13341984D01*
X2943896Y-13341984D02*
X2972467Y-13351508D01*
X2972467Y-13351508D02*
X2991515Y-13370555D01*
X2991515Y-13370555D02*
X3001039Y-13389603D01*
X3001039Y-13389603D02*
X3010562Y-13427698D01*
X3010562Y-13427698D02*
X3010562Y-13456269D01*
X3010562Y-13456269D02*
X3001039Y-13494365D01*
X3001039Y-13494365D02*
X2991515Y-13513412D01*
X2991515Y-13513412D02*
X2972467Y-13532460D01*
X2972467Y-13532460D02*
X2943896Y-13541984D01*
X2943896Y-13541984D02*
X2896277Y-13541984D01*
X3096277Y-13541984D02*
X3096277Y-13408650D01*
X3096277Y-13446746D02*
X3105801Y-13427698D01*
X3105801Y-13427698D02*
X3115324Y-13418174D01*
X3115324Y-13418174D02*
X3134372Y-13408650D01*
X3134372Y-13408650D02*
X3153420Y-13408650D01*
X3220086Y-13541984D02*
X3220086Y-13408650D01*
X3220086Y-13341984D02*
X3210562Y-13351508D01*
X3210562Y-13351508D02*
X3220086Y-13361031D01*
X3220086Y-13361031D02*
X3229610Y-13351508D01*
X3229610Y-13351508D02*
X3220086Y-13341984D01*
X3220086Y-13341984D02*
X3220086Y-13361031D01*
X3343896Y-13541984D02*
X3324848Y-13532460D01*
X3324848Y-13532460D02*
X3315324Y-13513412D01*
X3315324Y-13513412D02*
X3315324Y-13341984D01*
X3448658Y-13541984D02*
X3429610Y-13532460D01*
X3429610Y-13532460D02*
X3420086Y-13513412D01*
X3420086Y-13513412D02*
X3420086Y-13341984D01*
X3677229Y-13541984D02*
X3677229Y-13341984D01*
X3677229Y-13341984D02*
X3743896Y-13484841D01*
X3743896Y-13484841D02*
X3810562Y-13341984D01*
X3810562Y-13341984D02*
X3810562Y-13541984D01*
X3991515Y-13541984D02*
X3991515Y-13437222D01*
X3991515Y-13437222D02*
X3981991Y-13418174D01*
X3981991Y-13418174D02*
X3962943Y-13408650D01*
X3962943Y-13408650D02*
X3924848Y-13408650D01*
X3924848Y-13408650D02*
X3905801Y-13418174D01*
X3991515Y-13532460D02*
X3972467Y-13541984D01*
X3972467Y-13541984D02*
X3924848Y-13541984D01*
X3924848Y-13541984D02*
X3905801Y-13532460D01*
X3905801Y-13532460D02*
X3896277Y-13513412D01*
X3896277Y-13513412D02*
X3896277Y-13494365D01*
X3896277Y-13494365D02*
X3905801Y-13475317D01*
X3905801Y-13475317D02*
X3924848Y-13465793D01*
X3924848Y-13465793D02*
X3972467Y-13465793D01*
X3972467Y-13465793D02*
X3991515Y-13456269D01*
X4086753Y-13408650D02*
X4086753Y-13608650D01*
X4086753Y-13418174D02*
X4105801Y-13408650D01*
X4105801Y-13408650D02*
X4143896Y-13408650D01*
X4143896Y-13408650D02*
X4162943Y-13418174D01*
X4162943Y-13418174D02*
X4172467Y-13427698D01*
X4172467Y-13427698D02*
X4181991Y-13446746D01*
X4181991Y-13446746D02*
X4181991Y-13503888D01*
X4181991Y-13503888D02*
X4172467Y-13522936D01*
X4172467Y-13522936D02*
X4162943Y-13532460D01*
X4162943Y-13532460D02*
X4143896Y-13541984D01*
X4143896Y-13541984D02*
X4105801Y-13541984D01*
X4105801Y-13541984D02*
X4086753Y-13532460D01*
X4267705Y-13522936D02*
X4277229Y-13532460D01*
X4277229Y-13532460D02*
X4267705Y-13541984D01*
X4267705Y-13541984D02*
X4258182Y-13532460D01*
X4258182Y-13532460D02*
X4267705Y-13522936D01*
X4267705Y-13522936D02*
X4267705Y-13541984D01*
X4267705Y-13418174D02*
X4277229Y-13427698D01*
X4277229Y-13427698D02*
X4267705Y-13437222D01*
X4267705Y-13437222D02*
X4258182Y-13427698D01*
X4258182Y-13427698D02*
X4267705Y-13418174D01*
X4267705Y-13418174D02*
X4267705Y-13437222D01*
D12*
X2565500Y-13835500D02*
X2635500Y-13905500D01*
X2635500Y-13835500D02*
X2565500Y-13905500D01*
D11*
X2934372Y-13761984D02*
X2953420Y-13761984D01*
X2953420Y-13761984D02*
X2972467Y-13771508D01*
X2972467Y-13771508D02*
X2981991Y-13781031D01*
X2981991Y-13781031D02*
X2991515Y-13800079D01*
X2991515Y-13800079D02*
X3001039Y-13838174D01*
X3001039Y-13838174D02*
X3001039Y-13885793D01*
X3001039Y-13885793D02*
X2991515Y-13923888D01*
X2991515Y-13923888D02*
X2981991Y-13942936D01*
X2981991Y-13942936D02*
X2972467Y-13952460D01*
X2972467Y-13952460D02*
X2953420Y-13961984D01*
X2953420Y-13961984D02*
X2934372Y-13961984D01*
X2934372Y-13961984D02*
X2915324Y-13952460D01*
X2915324Y-13952460D02*
X2905801Y-13942936D01*
X2905801Y-13942936D02*
X2896277Y-13923888D01*
X2896277Y-13923888D02*
X2886753Y-13885793D01*
X2886753Y-13885793D02*
X2886753Y-13838174D01*
X2886753Y-13838174D02*
X2896277Y-13800079D01*
X2896277Y-13800079D02*
X2905801Y-13781031D01*
X2905801Y-13781031D02*
X2915324Y-13771508D01*
X2915324Y-13771508D02*
X2934372Y-13761984D01*
X3086753Y-13942936D02*
X3096277Y-13952460D01*
X3096277Y-13952460D02*
X3086753Y-13961984D01*
X3086753Y-13961984D02*
X3077229Y-13952460D01*
X3077229Y-13952460D02*
X3086753Y-13942936D01*
X3086753Y-13942936D02*
X3086753Y-13961984D01*
X3162943Y-13761984D02*
X3296277Y-13761984D01*
X3296277Y-13761984D02*
X3210562Y-13961984D01*
X3410562Y-13761984D02*
X3429610Y-13761984D01*
X3429610Y-13761984D02*
X3448658Y-13771508D01*
X3448658Y-13771508D02*
X3458182Y-13781031D01*
X3458182Y-13781031D02*
X3467705Y-13800079D01*
X3467705Y-13800079D02*
X3477229Y-13838174D01*
X3477229Y-13838174D02*
X3477229Y-13885793D01*
X3477229Y-13885793D02*
X3467705Y-13923888D01*
X3467705Y-13923888D02*
X3458182Y-13942936D01*
X3458182Y-13942936D02*
X3448658Y-13952460D01*
X3448658Y-13952460D02*
X3429610Y-13961984D01*
X3429610Y-13961984D02*
X3410562Y-13961984D01*
X3410562Y-13961984D02*
X3391515Y-13952460D01*
X3391515Y-13952460D02*
X3381991Y-13942936D01*
X3381991Y-13942936D02*
X3372467Y-13923888D01*
X3372467Y-13923888D02*
X3362943Y-13885793D01*
X3362943Y-13885793D02*
X3362943Y-13838174D01*
X3362943Y-13838174D02*
X3372467Y-13800079D01*
X3372467Y-13800079D02*
X3381991Y-13781031D01*
X3381991Y-13781031D02*
X3391515Y-13771508D01*
X3391515Y-13771508D02*
X3410562Y-13761984D01*
X3601039Y-13761984D02*
X3620086Y-13761984D01*
X3620086Y-13761984D02*
X3639134Y-13771508D01*
X3639134Y-13771508D02*
X3648658Y-13781031D01*
X3648658Y-13781031D02*
X3658182Y-13800079D01*
X3658182Y-13800079D02*
X3667705Y-13838174D01*
X3667705Y-13838174D02*
X3667705Y-13885793D01*
X3667705Y-13885793D02*
X3658182Y-13923888D01*
X3658182Y-13923888D02*
X3648658Y-13942936D01*
X3648658Y-13942936D02*
X3639134Y-13952460D01*
X3639134Y-13952460D02*
X3620086Y-13961984D01*
X3620086Y-13961984D02*
X3601039Y-13961984D01*
X3601039Y-13961984D02*
X3581991Y-13952460D01*
X3581991Y-13952460D02*
X3572467Y-13942936D01*
X3572467Y-13942936D02*
X3562943Y-13923888D01*
X3562943Y-13923888D02*
X3553420Y-13885793D01*
X3553420Y-13885793D02*
X3553420Y-13838174D01*
X3553420Y-13838174D02*
X3562943Y-13800079D01*
X3562943Y-13800079D02*
X3572467Y-13781031D01*
X3572467Y-13781031D02*
X3581991Y-13771508D01*
X3581991Y-13771508D02*
X3601039Y-13761984D01*
X3753420Y-13961984D02*
X3753420Y-13828650D01*
X3753420Y-13847698D02*
X3762943Y-13838174D01*
X3762943Y-13838174D02*
X3781991Y-13828650D01*
X3781991Y-13828650D02*
X3810563Y-13828650D01*
X3810563Y-13828650D02*
X3829610Y-13838174D01*
X3829610Y-13838174D02*
X3839134Y-13857222D01*
X3839134Y-13857222D02*
X3839134Y-13961984D01*
X3839134Y-13857222D02*
X3848658Y-13838174D01*
X3848658Y-13838174D02*
X3867705Y-13828650D01*
X3867705Y-13828650D02*
X3896277Y-13828650D01*
X3896277Y-13828650D02*
X3915324Y-13838174D01*
X3915324Y-13838174D02*
X3924848Y-13857222D01*
X3924848Y-13857222D02*
X3924848Y-13961984D01*
X4020086Y-13961984D02*
X4020086Y-13828650D01*
X4020086Y-13847698D02*
X4029610Y-13838174D01*
X4029610Y-13838174D02*
X4048658Y-13828650D01*
X4048658Y-13828650D02*
X4077229Y-13828650D01*
X4077229Y-13828650D02*
X4096277Y-13838174D01*
X4096277Y-13838174D02*
X4105801Y-13857222D01*
X4105801Y-13857222D02*
X4105801Y-13961984D01*
X4105801Y-13857222D02*
X4115324Y-13838174D01*
X4115324Y-13838174D02*
X4134372Y-13828650D01*
X4134372Y-13828650D02*
X4162943Y-13828650D01*
X4162943Y-13828650D02*
X4181991Y-13838174D01*
X4181991Y-13838174D02*
X4191515Y-13857222D01*
X4191515Y-13857222D02*
X4191515Y-13961984D01*
X4581991Y-13752460D02*
X4410563Y-14009603D01*
X4839134Y-13761984D02*
X4858182Y-13761984D01*
X4858182Y-13761984D02*
X4877229Y-13771508D01*
X4877229Y-13771508D02*
X4886753Y-13781031D01*
X4886753Y-13781031D02*
X4896277Y-13800079D01*
X4896277Y-13800079D02*
X4905801Y-13838174D01*
X4905801Y-13838174D02*
X4905801Y-13885793D01*
X4905801Y-13885793D02*
X4896277Y-13923888D01*
X4896277Y-13923888D02*
X4886753Y-13942936D01*
X4886753Y-13942936D02*
X4877229Y-13952460D01*
X4877229Y-13952460D02*
X4858182Y-13961984D01*
X4858182Y-13961984D02*
X4839134Y-13961984D01*
X4839134Y-13961984D02*
X4820087Y-13952460D01*
X4820087Y-13952460D02*
X4810563Y-13942936D01*
X4810563Y-13942936D02*
X4801039Y-13923888D01*
X4801039Y-13923888D02*
X4791515Y-13885793D01*
X4791515Y-13885793D02*
X4791515Y-13838174D01*
X4791515Y-13838174D02*
X4801039Y-13800079D01*
X4801039Y-13800079D02*
X4810563Y-13781031D01*
X4810563Y-13781031D02*
X4820087Y-13771508D01*
X4820087Y-13771508D02*
X4839134Y-13761984D01*
X4991515Y-13942936D02*
X5001039Y-13952460D01*
X5001039Y-13952460D02*
X4991515Y-13961984D01*
X4991515Y-13961984D02*
X4981991Y-13952460D01*
X4981991Y-13952460D02*
X4991515Y-13942936D01*
X4991515Y-13942936D02*
X4991515Y-13961984D01*
X5124848Y-13761984D02*
X5143896Y-13761984D01*
X5143896Y-13761984D02*
X5162944Y-13771508D01*
X5162944Y-13771508D02*
X5172468Y-13781031D01*
X5172468Y-13781031D02*
X5181991Y-13800079D01*
X5181991Y-13800079D02*
X5191515Y-13838174D01*
X5191515Y-13838174D02*
X5191515Y-13885793D01*
X5191515Y-13885793D02*
X5181991Y-13923888D01*
X5181991Y-13923888D02*
X5172468Y-13942936D01*
X5172468Y-13942936D02*
X5162944Y-13952460D01*
X5162944Y-13952460D02*
X5143896Y-13961984D01*
X5143896Y-13961984D02*
X5124848Y-13961984D01*
X5124848Y-13961984D02*
X5105801Y-13952460D01*
X5105801Y-13952460D02*
X5096277Y-13942936D01*
X5096277Y-13942936D02*
X5086753Y-13923888D01*
X5086753Y-13923888D02*
X5077229Y-13885793D01*
X5077229Y-13885793D02*
X5077229Y-13838174D01*
X5077229Y-13838174D02*
X5086753Y-13800079D01*
X5086753Y-13800079D02*
X5096277Y-13781031D01*
X5096277Y-13781031D02*
X5105801Y-13771508D01*
X5105801Y-13771508D02*
X5124848Y-13761984D01*
X5267706Y-13781031D02*
X5277229Y-13771508D01*
X5277229Y-13771508D02*
X5296277Y-13761984D01*
X5296277Y-13761984D02*
X5343896Y-13761984D01*
X5343896Y-13761984D02*
X5362944Y-13771508D01*
X5362944Y-13771508D02*
X5372468Y-13781031D01*
X5372468Y-13781031D02*
X5381991Y-13800079D01*
X5381991Y-13800079D02*
X5381991Y-13819127D01*
X5381991Y-13819127D02*
X5372468Y-13847698D01*
X5372468Y-13847698D02*
X5258182Y-13961984D01*
X5258182Y-13961984D02*
X5381991Y-13961984D01*
X5448658Y-13761984D02*
X5581991Y-13761984D01*
X5581991Y-13761984D02*
X5496277Y-13961984D01*
X5743896Y-13761984D02*
X5705801Y-13761984D01*
X5705801Y-13761984D02*
X5686753Y-13771508D01*
X5686753Y-13771508D02*
X5677229Y-13781031D01*
X5677229Y-13781031D02*
X5658182Y-13809603D01*
X5658182Y-13809603D02*
X5648658Y-13847698D01*
X5648658Y-13847698D02*
X5648658Y-13923888D01*
X5648658Y-13923888D02*
X5658182Y-13942936D01*
X5658182Y-13942936D02*
X5667706Y-13952460D01*
X5667706Y-13952460D02*
X5686753Y-13961984D01*
X5686753Y-13961984D02*
X5724848Y-13961984D01*
X5724848Y-13961984D02*
X5743896Y-13952460D01*
X5743896Y-13952460D02*
X5753420Y-13942936D01*
X5753420Y-13942936D02*
X5762944Y-13923888D01*
X5762944Y-13923888D02*
X5762944Y-13876269D01*
X5762944Y-13876269D02*
X5753420Y-13857222D01*
X5753420Y-13857222D02*
X5743896Y-13847698D01*
X5743896Y-13847698D02*
X5724848Y-13838174D01*
X5724848Y-13838174D02*
X5686753Y-13838174D01*
X5686753Y-13838174D02*
X5667706Y-13847698D01*
X5667706Y-13847698D02*
X5658182Y-13857222D01*
X5658182Y-13857222D02*
X5648658Y-13876269D01*
X5839134Y-13761984D02*
X5839134Y-13800079D01*
X5915325Y-13761984D02*
X5915325Y-13800079D01*
X6210563Y-14038174D02*
X6201039Y-14028650D01*
X6201039Y-14028650D02*
X6181991Y-14000079D01*
X6181991Y-14000079D02*
X6172468Y-13981031D01*
X6172468Y-13981031D02*
X6162944Y-13952460D01*
X6162944Y-13952460D02*
X6153420Y-13904841D01*
X6153420Y-13904841D02*
X6153420Y-13866746D01*
X6153420Y-13866746D02*
X6162944Y-13819127D01*
X6162944Y-13819127D02*
X6172468Y-13790555D01*
X6172468Y-13790555D02*
X6181991Y-13771508D01*
X6181991Y-13771508D02*
X6201039Y-13742936D01*
X6201039Y-13742936D02*
X6210563Y-13733412D01*
X6277229Y-13781031D02*
X6286753Y-13771508D01*
X6286753Y-13771508D02*
X6305801Y-13761984D01*
X6305801Y-13761984D02*
X6353420Y-13761984D01*
X6353420Y-13761984D02*
X6372468Y-13771508D01*
X6372468Y-13771508D02*
X6381991Y-13781031D01*
X6381991Y-13781031D02*
X6391515Y-13800079D01*
X6391515Y-13800079D02*
X6391515Y-13819127D01*
X6391515Y-13819127D02*
X6381991Y-13847698D01*
X6381991Y-13847698D02*
X6267706Y-13961984D01*
X6267706Y-13961984D02*
X6391515Y-13961984D01*
X6629610Y-13961984D02*
X6629610Y-13761984D01*
X6715325Y-13961984D02*
X6715325Y-13857222D01*
X6715325Y-13857222D02*
X6705801Y-13838174D01*
X6705801Y-13838174D02*
X6686753Y-13828650D01*
X6686753Y-13828650D02*
X6658182Y-13828650D01*
X6658182Y-13828650D02*
X6639134Y-13838174D01*
X6639134Y-13838174D02*
X6629610Y-13847698D01*
X6839134Y-13961984D02*
X6820087Y-13952460D01*
X6820087Y-13952460D02*
X6810563Y-13942936D01*
X6810563Y-13942936D02*
X6801039Y-13923888D01*
X6801039Y-13923888D02*
X6801039Y-13866746D01*
X6801039Y-13866746D02*
X6810563Y-13847698D01*
X6810563Y-13847698D02*
X6820087Y-13838174D01*
X6820087Y-13838174D02*
X6839134Y-13828650D01*
X6839134Y-13828650D02*
X6867706Y-13828650D01*
X6867706Y-13828650D02*
X6886753Y-13838174D01*
X6886753Y-13838174D02*
X6896277Y-13847698D01*
X6896277Y-13847698D02*
X6905801Y-13866746D01*
X6905801Y-13866746D02*
X6905801Y-13923888D01*
X6905801Y-13923888D02*
X6896277Y-13942936D01*
X6896277Y-13942936D02*
X6886753Y-13952460D01*
X6886753Y-13952460D02*
X6867706Y-13961984D01*
X6867706Y-13961984D02*
X6839134Y-13961984D01*
X7020087Y-13961984D02*
X7001039Y-13952460D01*
X7001039Y-13952460D02*
X6991515Y-13933412D01*
X6991515Y-13933412D02*
X6991515Y-13761984D01*
X7172468Y-13952460D02*
X7153420Y-13961984D01*
X7153420Y-13961984D02*
X7115325Y-13961984D01*
X7115325Y-13961984D02*
X7096277Y-13952460D01*
X7096277Y-13952460D02*
X7086753Y-13933412D01*
X7086753Y-13933412D02*
X7086753Y-13857222D01*
X7086753Y-13857222D02*
X7096277Y-13838174D01*
X7096277Y-13838174D02*
X7115325Y-13828650D01*
X7115325Y-13828650D02*
X7153420Y-13828650D01*
X7153420Y-13828650D02*
X7172468Y-13838174D01*
X7172468Y-13838174D02*
X7181991Y-13857222D01*
X7181991Y-13857222D02*
X7181991Y-13876269D01*
X7181991Y-13876269D02*
X7086753Y-13895317D01*
X7258182Y-13952460D02*
X7277230Y-13961984D01*
X7277230Y-13961984D02*
X7315325Y-13961984D01*
X7315325Y-13961984D02*
X7334372Y-13952460D01*
X7334372Y-13952460D02*
X7343896Y-13933412D01*
X7343896Y-13933412D02*
X7343896Y-13923888D01*
X7343896Y-13923888D02*
X7334372Y-13904841D01*
X7334372Y-13904841D02*
X7315325Y-13895317D01*
X7315325Y-13895317D02*
X7286753Y-13895317D01*
X7286753Y-13895317D02*
X7267706Y-13885793D01*
X7267706Y-13885793D02*
X7258182Y-13866746D01*
X7258182Y-13866746D02*
X7258182Y-13857222D01*
X7258182Y-13857222D02*
X7267706Y-13838174D01*
X7267706Y-13838174D02*
X7286753Y-13828650D01*
X7286753Y-13828650D02*
X7315325Y-13828650D01*
X7315325Y-13828650D02*
X7334372Y-13838174D01*
X7410563Y-14038174D02*
X7420087Y-14028650D01*
X7420087Y-14028650D02*
X7439134Y-14000079D01*
X7439134Y-14000079D02*
X7448658Y-13981031D01*
X7448658Y-13981031D02*
X7458182Y-13952460D01*
X7458182Y-13952460D02*
X7467706Y-13904841D01*
X7467706Y-13904841D02*
X7467706Y-13866746D01*
X7467706Y-13866746D02*
X7458182Y-13819127D01*
X7458182Y-13819127D02*
X7448658Y-13790555D01*
X7448658Y-13790555D02*
X7439134Y-13771508D01*
X7439134Y-13771508D02*
X7420087Y-13742936D01*
X7420087Y-13742936D02*
X7410563Y-13733412D01*
D12*
X2635500Y-14134500D02*
G75*
G02*
X2560500Y-14134500I-37500J0D01*
G01*
X2560500Y-14134500D02*
G75*
G02*
X2635500Y-14134500I37500J0D01*
G01*
D11*
X2934372Y-14025984D02*
X2953420Y-14025984D01*
X2953420Y-14025984D02*
X2972467Y-14035508D01*
X2972467Y-14035508D02*
X2981991Y-14045031D01*
X2981991Y-14045031D02*
X2991515Y-14064079D01*
X2991515Y-14064079D02*
X3001039Y-14102174D01*
X3001039Y-14102174D02*
X3001039Y-14149793D01*
X3001039Y-14149793D02*
X2991515Y-14187888D01*
X2991515Y-14187888D02*
X2981991Y-14206936D01*
X2981991Y-14206936D02*
X2972467Y-14216460D01*
X2972467Y-14216460D02*
X2953420Y-14225984D01*
X2953420Y-14225984D02*
X2934372Y-14225984D01*
X2934372Y-14225984D02*
X2915324Y-14216460D01*
X2915324Y-14216460D02*
X2905801Y-14206936D01*
X2905801Y-14206936D02*
X2896277Y-14187888D01*
X2896277Y-14187888D02*
X2886753Y-14149793D01*
X2886753Y-14149793D02*
X2886753Y-14102174D01*
X2886753Y-14102174D02*
X2896277Y-14064079D01*
X2896277Y-14064079D02*
X2905801Y-14045031D01*
X2905801Y-14045031D02*
X2915324Y-14035508D01*
X2915324Y-14035508D02*
X2934372Y-14025984D01*
X3086753Y-14206936D02*
X3096277Y-14216460D01*
X3096277Y-14216460D02*
X3086753Y-14225984D01*
X3086753Y-14225984D02*
X3077229Y-14216460D01*
X3077229Y-14216460D02*
X3086753Y-14206936D01*
X3086753Y-14206936D02*
X3086753Y-14225984D01*
X3162943Y-14025984D02*
X3296277Y-14025984D01*
X3296277Y-14025984D02*
X3210562Y-14225984D01*
X3467705Y-14025984D02*
X3372467Y-14025984D01*
X3372467Y-14025984D02*
X3362943Y-14121222D01*
X3362943Y-14121222D02*
X3372467Y-14111698D01*
X3372467Y-14111698D02*
X3391515Y-14102174D01*
X3391515Y-14102174D02*
X3439134Y-14102174D01*
X3439134Y-14102174D02*
X3458182Y-14111698D01*
X3458182Y-14111698D02*
X3467705Y-14121222D01*
X3467705Y-14121222D02*
X3477229Y-14140269D01*
X3477229Y-14140269D02*
X3477229Y-14187888D01*
X3477229Y-14187888D02*
X3467705Y-14206936D01*
X3467705Y-14206936D02*
X3458182Y-14216460D01*
X3458182Y-14216460D02*
X3439134Y-14225984D01*
X3439134Y-14225984D02*
X3391515Y-14225984D01*
X3391515Y-14225984D02*
X3372467Y-14216460D01*
X3372467Y-14216460D02*
X3362943Y-14206936D01*
X3601039Y-14025984D02*
X3620086Y-14025984D01*
X3620086Y-14025984D02*
X3639134Y-14035508D01*
X3639134Y-14035508D02*
X3648658Y-14045031D01*
X3648658Y-14045031D02*
X3658182Y-14064079D01*
X3658182Y-14064079D02*
X3667705Y-14102174D01*
X3667705Y-14102174D02*
X3667705Y-14149793D01*
X3667705Y-14149793D02*
X3658182Y-14187888D01*
X3658182Y-14187888D02*
X3648658Y-14206936D01*
X3648658Y-14206936D02*
X3639134Y-14216460D01*
X3639134Y-14216460D02*
X3620086Y-14225984D01*
X3620086Y-14225984D02*
X3601039Y-14225984D01*
X3601039Y-14225984D02*
X3581991Y-14216460D01*
X3581991Y-14216460D02*
X3572467Y-14206936D01*
X3572467Y-14206936D02*
X3562943Y-14187888D01*
X3562943Y-14187888D02*
X3553420Y-14149793D01*
X3553420Y-14149793D02*
X3553420Y-14102174D01*
X3553420Y-14102174D02*
X3562943Y-14064079D01*
X3562943Y-14064079D02*
X3572467Y-14045031D01*
X3572467Y-14045031D02*
X3581991Y-14035508D01*
X3581991Y-14035508D02*
X3601039Y-14025984D01*
X3753420Y-14225984D02*
X3753420Y-14092650D01*
X3753420Y-14111698D02*
X3762943Y-14102174D01*
X3762943Y-14102174D02*
X3781991Y-14092650D01*
X3781991Y-14092650D02*
X3810563Y-14092650D01*
X3810563Y-14092650D02*
X3829610Y-14102174D01*
X3829610Y-14102174D02*
X3839134Y-14121222D01*
X3839134Y-14121222D02*
X3839134Y-14225984D01*
X3839134Y-14121222D02*
X3848658Y-14102174D01*
X3848658Y-14102174D02*
X3867705Y-14092650D01*
X3867705Y-14092650D02*
X3896277Y-14092650D01*
X3896277Y-14092650D02*
X3915324Y-14102174D01*
X3915324Y-14102174D02*
X3924848Y-14121222D01*
X3924848Y-14121222D02*
X3924848Y-14225984D01*
X4020086Y-14225984D02*
X4020086Y-14092650D01*
X4020086Y-14111698D02*
X4029610Y-14102174D01*
X4029610Y-14102174D02*
X4048658Y-14092650D01*
X4048658Y-14092650D02*
X4077229Y-14092650D01*
X4077229Y-14092650D02*
X4096277Y-14102174D01*
X4096277Y-14102174D02*
X4105801Y-14121222D01*
X4105801Y-14121222D02*
X4105801Y-14225984D01*
X4105801Y-14121222D02*
X4115324Y-14102174D01*
X4115324Y-14102174D02*
X4134372Y-14092650D01*
X4134372Y-14092650D02*
X4162943Y-14092650D01*
X4162943Y-14092650D02*
X4181991Y-14102174D01*
X4181991Y-14102174D02*
X4191515Y-14121222D01*
X4191515Y-14121222D02*
X4191515Y-14225984D01*
X4581991Y-14016460D02*
X4410563Y-14273603D01*
X4839134Y-14025984D02*
X4858182Y-14025984D01*
X4858182Y-14025984D02*
X4877229Y-14035508D01*
X4877229Y-14035508D02*
X4886753Y-14045031D01*
X4886753Y-14045031D02*
X4896277Y-14064079D01*
X4896277Y-14064079D02*
X4905801Y-14102174D01*
X4905801Y-14102174D02*
X4905801Y-14149793D01*
X4905801Y-14149793D02*
X4896277Y-14187888D01*
X4896277Y-14187888D02*
X4886753Y-14206936D01*
X4886753Y-14206936D02*
X4877229Y-14216460D01*
X4877229Y-14216460D02*
X4858182Y-14225984D01*
X4858182Y-14225984D02*
X4839134Y-14225984D01*
X4839134Y-14225984D02*
X4820087Y-14216460D01*
X4820087Y-14216460D02*
X4810563Y-14206936D01*
X4810563Y-14206936D02*
X4801039Y-14187888D01*
X4801039Y-14187888D02*
X4791515Y-14149793D01*
X4791515Y-14149793D02*
X4791515Y-14102174D01*
X4791515Y-14102174D02*
X4801039Y-14064079D01*
X4801039Y-14064079D02*
X4810563Y-14045031D01*
X4810563Y-14045031D02*
X4820087Y-14035508D01*
X4820087Y-14035508D02*
X4839134Y-14025984D01*
X4991515Y-14206936D02*
X5001039Y-14216460D01*
X5001039Y-14216460D02*
X4991515Y-14225984D01*
X4991515Y-14225984D02*
X4981991Y-14216460D01*
X4981991Y-14216460D02*
X4991515Y-14206936D01*
X4991515Y-14206936D02*
X4991515Y-14225984D01*
X5124848Y-14025984D02*
X5143896Y-14025984D01*
X5143896Y-14025984D02*
X5162944Y-14035508D01*
X5162944Y-14035508D02*
X5172468Y-14045031D01*
X5172468Y-14045031D02*
X5181991Y-14064079D01*
X5181991Y-14064079D02*
X5191515Y-14102174D01*
X5191515Y-14102174D02*
X5191515Y-14149793D01*
X5191515Y-14149793D02*
X5181991Y-14187888D01*
X5181991Y-14187888D02*
X5172468Y-14206936D01*
X5172468Y-14206936D02*
X5162944Y-14216460D01*
X5162944Y-14216460D02*
X5143896Y-14225984D01*
X5143896Y-14225984D02*
X5124848Y-14225984D01*
X5124848Y-14225984D02*
X5105801Y-14216460D01*
X5105801Y-14216460D02*
X5096277Y-14206936D01*
X5096277Y-14206936D02*
X5086753Y-14187888D01*
X5086753Y-14187888D02*
X5077229Y-14149793D01*
X5077229Y-14149793D02*
X5077229Y-14102174D01*
X5077229Y-14102174D02*
X5086753Y-14064079D01*
X5086753Y-14064079D02*
X5096277Y-14045031D01*
X5096277Y-14045031D02*
X5105801Y-14035508D01*
X5105801Y-14035508D02*
X5124848Y-14025984D01*
X5267706Y-14045031D02*
X5277229Y-14035508D01*
X5277229Y-14035508D02*
X5296277Y-14025984D01*
X5296277Y-14025984D02*
X5343896Y-14025984D01*
X5343896Y-14025984D02*
X5362944Y-14035508D01*
X5362944Y-14035508D02*
X5372468Y-14045031D01*
X5372468Y-14045031D02*
X5381991Y-14064079D01*
X5381991Y-14064079D02*
X5381991Y-14083127D01*
X5381991Y-14083127D02*
X5372468Y-14111698D01*
X5372468Y-14111698D02*
X5258182Y-14225984D01*
X5258182Y-14225984D02*
X5381991Y-14225984D01*
X5477229Y-14225984D02*
X5515325Y-14225984D01*
X5515325Y-14225984D02*
X5534372Y-14216460D01*
X5534372Y-14216460D02*
X5543896Y-14206936D01*
X5543896Y-14206936D02*
X5562944Y-14178365D01*
X5562944Y-14178365D02*
X5572468Y-14140269D01*
X5572468Y-14140269D02*
X5572468Y-14064079D01*
X5572468Y-14064079D02*
X5562944Y-14045031D01*
X5562944Y-14045031D02*
X5553420Y-14035508D01*
X5553420Y-14035508D02*
X5534372Y-14025984D01*
X5534372Y-14025984D02*
X5496277Y-14025984D01*
X5496277Y-14025984D02*
X5477229Y-14035508D01*
X5477229Y-14035508D02*
X5467706Y-14045031D01*
X5467706Y-14045031D02*
X5458182Y-14064079D01*
X5458182Y-14064079D02*
X5458182Y-14111698D01*
X5458182Y-14111698D02*
X5467706Y-14130746D01*
X5467706Y-14130746D02*
X5477229Y-14140269D01*
X5477229Y-14140269D02*
X5496277Y-14149793D01*
X5496277Y-14149793D02*
X5534372Y-14149793D01*
X5534372Y-14149793D02*
X5553420Y-14140269D01*
X5553420Y-14140269D02*
X5562944Y-14130746D01*
X5562944Y-14130746D02*
X5572468Y-14111698D01*
X5753420Y-14025984D02*
X5658182Y-14025984D01*
X5658182Y-14025984D02*
X5648658Y-14121222D01*
X5648658Y-14121222D02*
X5658182Y-14111698D01*
X5658182Y-14111698D02*
X5677229Y-14102174D01*
X5677229Y-14102174D02*
X5724848Y-14102174D01*
X5724848Y-14102174D02*
X5743896Y-14111698D01*
X5743896Y-14111698D02*
X5753420Y-14121222D01*
X5753420Y-14121222D02*
X5762944Y-14140269D01*
X5762944Y-14140269D02*
X5762944Y-14187888D01*
X5762944Y-14187888D02*
X5753420Y-14206936D01*
X5753420Y-14206936D02*
X5743896Y-14216460D01*
X5743896Y-14216460D02*
X5724848Y-14225984D01*
X5724848Y-14225984D02*
X5677229Y-14225984D01*
X5677229Y-14225984D02*
X5658182Y-14216460D01*
X5658182Y-14216460D02*
X5648658Y-14206936D01*
X5839134Y-14025984D02*
X5839134Y-14064079D01*
X5915325Y-14025984D02*
X5915325Y-14064079D01*
X6210563Y-14302174D02*
X6201039Y-14292650D01*
X6201039Y-14292650D02*
X6181991Y-14264079D01*
X6181991Y-14264079D02*
X6172468Y-14245031D01*
X6172468Y-14245031D02*
X6162944Y-14216460D01*
X6162944Y-14216460D02*
X6153420Y-14168841D01*
X6153420Y-14168841D02*
X6153420Y-14130746D01*
X6153420Y-14130746D02*
X6162944Y-14083127D01*
X6162944Y-14083127D02*
X6172468Y-14054555D01*
X6172468Y-14054555D02*
X6181991Y-14035508D01*
X6181991Y-14035508D02*
X6201039Y-14006936D01*
X6201039Y-14006936D02*
X6210563Y-13997412D01*
X6277229Y-14045031D02*
X6286753Y-14035508D01*
X6286753Y-14035508D02*
X6305801Y-14025984D01*
X6305801Y-14025984D02*
X6353420Y-14025984D01*
X6353420Y-14025984D02*
X6372468Y-14035508D01*
X6372468Y-14035508D02*
X6381991Y-14045031D01*
X6381991Y-14045031D02*
X6391515Y-14064079D01*
X6391515Y-14064079D02*
X6391515Y-14083127D01*
X6391515Y-14083127D02*
X6381991Y-14111698D01*
X6381991Y-14111698D02*
X6267706Y-14225984D01*
X6267706Y-14225984D02*
X6391515Y-14225984D01*
X6562944Y-14092650D02*
X6562944Y-14225984D01*
X6515325Y-14016460D02*
X6467706Y-14159317D01*
X6467706Y-14159317D02*
X6591515Y-14159317D01*
X6820087Y-14225984D02*
X6820087Y-14025984D01*
X6905801Y-14225984D02*
X6905801Y-14121222D01*
X6905801Y-14121222D02*
X6896277Y-14102174D01*
X6896277Y-14102174D02*
X6877230Y-14092650D01*
X6877230Y-14092650D02*
X6848658Y-14092650D01*
X6848658Y-14092650D02*
X6829610Y-14102174D01*
X6829610Y-14102174D02*
X6820087Y-14111698D01*
X7029610Y-14225984D02*
X7010563Y-14216460D01*
X7010563Y-14216460D02*
X7001039Y-14206936D01*
X7001039Y-14206936D02*
X6991515Y-14187888D01*
X6991515Y-14187888D02*
X6991515Y-14130746D01*
X6991515Y-14130746D02*
X7001039Y-14111698D01*
X7001039Y-14111698D02*
X7010563Y-14102174D01*
X7010563Y-14102174D02*
X7029610Y-14092650D01*
X7029610Y-14092650D02*
X7058182Y-14092650D01*
X7058182Y-14092650D02*
X7077230Y-14102174D01*
X7077230Y-14102174D02*
X7086753Y-14111698D01*
X7086753Y-14111698D02*
X7096277Y-14130746D01*
X7096277Y-14130746D02*
X7096277Y-14187888D01*
X7096277Y-14187888D02*
X7086753Y-14206936D01*
X7086753Y-14206936D02*
X7077230Y-14216460D01*
X7077230Y-14216460D02*
X7058182Y-14225984D01*
X7058182Y-14225984D02*
X7029610Y-14225984D01*
X7210563Y-14225984D02*
X7191515Y-14216460D01*
X7191515Y-14216460D02*
X7181991Y-14197412D01*
X7181991Y-14197412D02*
X7181991Y-14025984D01*
X7362944Y-14216460D02*
X7343896Y-14225984D01*
X7343896Y-14225984D02*
X7305801Y-14225984D01*
X7305801Y-14225984D02*
X7286753Y-14216460D01*
X7286753Y-14216460D02*
X7277230Y-14197412D01*
X7277230Y-14197412D02*
X7277230Y-14121222D01*
X7277230Y-14121222D02*
X7286753Y-14102174D01*
X7286753Y-14102174D02*
X7305801Y-14092650D01*
X7305801Y-14092650D02*
X7343896Y-14092650D01*
X7343896Y-14092650D02*
X7362944Y-14102174D01*
X7362944Y-14102174D02*
X7372468Y-14121222D01*
X7372468Y-14121222D02*
X7372468Y-14140269D01*
X7372468Y-14140269D02*
X7277230Y-14159317D01*
X7448658Y-14216460D02*
X7467706Y-14225984D01*
X7467706Y-14225984D02*
X7505801Y-14225984D01*
X7505801Y-14225984D02*
X7524849Y-14216460D01*
X7524849Y-14216460D02*
X7534372Y-14197412D01*
X7534372Y-14197412D02*
X7534372Y-14187888D01*
X7534372Y-14187888D02*
X7524849Y-14168841D01*
X7524849Y-14168841D02*
X7505801Y-14159317D01*
X7505801Y-14159317D02*
X7477230Y-14159317D01*
X7477230Y-14159317D02*
X7458182Y-14149793D01*
X7458182Y-14149793D02*
X7448658Y-14130746D01*
X7448658Y-14130746D02*
X7448658Y-14121222D01*
X7448658Y-14121222D02*
X7458182Y-14102174D01*
X7458182Y-14102174D02*
X7477230Y-14092650D01*
X7477230Y-14092650D02*
X7505801Y-14092650D01*
X7505801Y-14092650D02*
X7524849Y-14102174D01*
X7601039Y-14302174D02*
X7610563Y-14292650D01*
X7610563Y-14292650D02*
X7629611Y-14264079D01*
X7629611Y-14264079D02*
X7639134Y-14245031D01*
X7639134Y-14245031D02*
X7648658Y-14216460D01*
X7648658Y-14216460D02*
X7658182Y-14168841D01*
X7658182Y-14168841D02*
X7658182Y-14130746D01*
X7658182Y-14130746D02*
X7648658Y-14083127D01*
X7648658Y-14083127D02*
X7639134Y-14054555D01*
X7639134Y-14054555D02*
X7629611Y-14035508D01*
X7629611Y-14035508D02*
X7610563Y-14006936D01*
X7610563Y-14006936D02*
X7601039Y-13997412D01*
D12*
X2595500Y-14358500D02*
X2595500Y-14438500D01*
X2555500Y-14398500D02*
X2635500Y-14398500D01*
D11*
X2934372Y-14289984D02*
X2953420Y-14289984D01*
X2953420Y-14289984D02*
X2972467Y-14299508D01*
X2972467Y-14299508D02*
X2981991Y-14309031D01*
X2981991Y-14309031D02*
X2991515Y-14328079D01*
X2991515Y-14328079D02*
X3001039Y-14366174D01*
X3001039Y-14366174D02*
X3001039Y-14413793D01*
X3001039Y-14413793D02*
X2991515Y-14451888D01*
X2991515Y-14451888D02*
X2981991Y-14470936D01*
X2981991Y-14470936D02*
X2972467Y-14480460D01*
X2972467Y-14480460D02*
X2953420Y-14489984D01*
X2953420Y-14489984D02*
X2934372Y-14489984D01*
X2934372Y-14489984D02*
X2915324Y-14480460D01*
X2915324Y-14480460D02*
X2905801Y-14470936D01*
X2905801Y-14470936D02*
X2896277Y-14451888D01*
X2896277Y-14451888D02*
X2886753Y-14413793D01*
X2886753Y-14413793D02*
X2886753Y-14366174D01*
X2886753Y-14366174D02*
X2896277Y-14328079D01*
X2896277Y-14328079D02*
X2905801Y-14309031D01*
X2905801Y-14309031D02*
X2915324Y-14299508D01*
X2915324Y-14299508D02*
X2934372Y-14289984D01*
X3086753Y-14470936D02*
X3096277Y-14480460D01*
X3096277Y-14480460D02*
X3086753Y-14489984D01*
X3086753Y-14489984D02*
X3077229Y-14480460D01*
X3077229Y-14480460D02*
X3086753Y-14470936D01*
X3086753Y-14470936D02*
X3086753Y-14489984D01*
X3210562Y-14375698D02*
X3191515Y-14366174D01*
X3191515Y-14366174D02*
X3181991Y-14356650D01*
X3181991Y-14356650D02*
X3172467Y-14337603D01*
X3172467Y-14337603D02*
X3172467Y-14328079D01*
X3172467Y-14328079D02*
X3181991Y-14309031D01*
X3181991Y-14309031D02*
X3191515Y-14299508D01*
X3191515Y-14299508D02*
X3210562Y-14289984D01*
X3210562Y-14289984D02*
X3248658Y-14289984D01*
X3248658Y-14289984D02*
X3267705Y-14299508D01*
X3267705Y-14299508D02*
X3277229Y-14309031D01*
X3277229Y-14309031D02*
X3286753Y-14328079D01*
X3286753Y-14328079D02*
X3286753Y-14337603D01*
X3286753Y-14337603D02*
X3277229Y-14356650D01*
X3277229Y-14356650D02*
X3267705Y-14366174D01*
X3267705Y-14366174D02*
X3248658Y-14375698D01*
X3248658Y-14375698D02*
X3210562Y-14375698D01*
X3210562Y-14375698D02*
X3191515Y-14385222D01*
X3191515Y-14385222D02*
X3181991Y-14394746D01*
X3181991Y-14394746D02*
X3172467Y-14413793D01*
X3172467Y-14413793D02*
X3172467Y-14451888D01*
X3172467Y-14451888D02*
X3181991Y-14470936D01*
X3181991Y-14470936D02*
X3191515Y-14480460D01*
X3191515Y-14480460D02*
X3210562Y-14489984D01*
X3210562Y-14489984D02*
X3248658Y-14489984D01*
X3248658Y-14489984D02*
X3267705Y-14480460D01*
X3267705Y-14480460D02*
X3277229Y-14470936D01*
X3277229Y-14470936D02*
X3286753Y-14451888D01*
X3286753Y-14451888D02*
X3286753Y-14413793D01*
X3286753Y-14413793D02*
X3277229Y-14394746D01*
X3277229Y-14394746D02*
X3267705Y-14385222D01*
X3267705Y-14385222D02*
X3248658Y-14375698D01*
X3410562Y-14289984D02*
X3429610Y-14289984D01*
X3429610Y-14289984D02*
X3448658Y-14299508D01*
X3448658Y-14299508D02*
X3458182Y-14309031D01*
X3458182Y-14309031D02*
X3467705Y-14328079D01*
X3467705Y-14328079D02*
X3477229Y-14366174D01*
X3477229Y-14366174D02*
X3477229Y-14413793D01*
X3477229Y-14413793D02*
X3467705Y-14451888D01*
X3467705Y-14451888D02*
X3458182Y-14470936D01*
X3458182Y-14470936D02*
X3448658Y-14480460D01*
X3448658Y-14480460D02*
X3429610Y-14489984D01*
X3429610Y-14489984D02*
X3410562Y-14489984D01*
X3410562Y-14489984D02*
X3391515Y-14480460D01*
X3391515Y-14480460D02*
X3381991Y-14470936D01*
X3381991Y-14470936D02*
X3372467Y-14451888D01*
X3372467Y-14451888D02*
X3362943Y-14413793D01*
X3362943Y-14413793D02*
X3362943Y-14366174D01*
X3362943Y-14366174D02*
X3372467Y-14328079D01*
X3372467Y-14328079D02*
X3381991Y-14309031D01*
X3381991Y-14309031D02*
X3391515Y-14299508D01*
X3391515Y-14299508D02*
X3410562Y-14289984D01*
X3601039Y-14289984D02*
X3620086Y-14289984D01*
X3620086Y-14289984D02*
X3639134Y-14299508D01*
X3639134Y-14299508D02*
X3648658Y-14309031D01*
X3648658Y-14309031D02*
X3658182Y-14328079D01*
X3658182Y-14328079D02*
X3667705Y-14366174D01*
X3667705Y-14366174D02*
X3667705Y-14413793D01*
X3667705Y-14413793D02*
X3658182Y-14451888D01*
X3658182Y-14451888D02*
X3648658Y-14470936D01*
X3648658Y-14470936D02*
X3639134Y-14480460D01*
X3639134Y-14480460D02*
X3620086Y-14489984D01*
X3620086Y-14489984D02*
X3601039Y-14489984D01*
X3601039Y-14489984D02*
X3581991Y-14480460D01*
X3581991Y-14480460D02*
X3572467Y-14470936D01*
X3572467Y-14470936D02*
X3562943Y-14451888D01*
X3562943Y-14451888D02*
X3553420Y-14413793D01*
X3553420Y-14413793D02*
X3553420Y-14366174D01*
X3553420Y-14366174D02*
X3562943Y-14328079D01*
X3562943Y-14328079D02*
X3572467Y-14309031D01*
X3572467Y-14309031D02*
X3581991Y-14299508D01*
X3581991Y-14299508D02*
X3601039Y-14289984D01*
X3753420Y-14489984D02*
X3753420Y-14356650D01*
X3753420Y-14375698D02*
X3762943Y-14366174D01*
X3762943Y-14366174D02*
X3781991Y-14356650D01*
X3781991Y-14356650D02*
X3810563Y-14356650D01*
X3810563Y-14356650D02*
X3829610Y-14366174D01*
X3829610Y-14366174D02*
X3839134Y-14385222D01*
X3839134Y-14385222D02*
X3839134Y-14489984D01*
X3839134Y-14385222D02*
X3848658Y-14366174D01*
X3848658Y-14366174D02*
X3867705Y-14356650D01*
X3867705Y-14356650D02*
X3896277Y-14356650D01*
X3896277Y-14356650D02*
X3915324Y-14366174D01*
X3915324Y-14366174D02*
X3924848Y-14385222D01*
X3924848Y-14385222D02*
X3924848Y-14489984D01*
X4020086Y-14489984D02*
X4020086Y-14356650D01*
X4020086Y-14375698D02*
X4029610Y-14366174D01*
X4029610Y-14366174D02*
X4048658Y-14356650D01*
X4048658Y-14356650D02*
X4077229Y-14356650D01*
X4077229Y-14356650D02*
X4096277Y-14366174D01*
X4096277Y-14366174D02*
X4105801Y-14385222D01*
X4105801Y-14385222D02*
X4105801Y-14489984D01*
X4105801Y-14385222D02*
X4115324Y-14366174D01*
X4115324Y-14366174D02*
X4134372Y-14356650D01*
X4134372Y-14356650D02*
X4162943Y-14356650D01*
X4162943Y-14356650D02*
X4181991Y-14366174D01*
X4181991Y-14366174D02*
X4191515Y-14385222D01*
X4191515Y-14385222D02*
X4191515Y-14489984D01*
X4581991Y-14280460D02*
X4410563Y-14537603D01*
X4839134Y-14289984D02*
X4858182Y-14289984D01*
X4858182Y-14289984D02*
X4877229Y-14299508D01*
X4877229Y-14299508D02*
X4886753Y-14309031D01*
X4886753Y-14309031D02*
X4896277Y-14328079D01*
X4896277Y-14328079D02*
X4905801Y-14366174D01*
X4905801Y-14366174D02*
X4905801Y-14413793D01*
X4905801Y-14413793D02*
X4896277Y-14451888D01*
X4896277Y-14451888D02*
X4886753Y-14470936D01*
X4886753Y-14470936D02*
X4877229Y-14480460D01*
X4877229Y-14480460D02*
X4858182Y-14489984D01*
X4858182Y-14489984D02*
X4839134Y-14489984D01*
X4839134Y-14489984D02*
X4820087Y-14480460D01*
X4820087Y-14480460D02*
X4810563Y-14470936D01*
X4810563Y-14470936D02*
X4801039Y-14451888D01*
X4801039Y-14451888D02*
X4791515Y-14413793D01*
X4791515Y-14413793D02*
X4791515Y-14366174D01*
X4791515Y-14366174D02*
X4801039Y-14328079D01*
X4801039Y-14328079D02*
X4810563Y-14309031D01*
X4810563Y-14309031D02*
X4820087Y-14299508D01*
X4820087Y-14299508D02*
X4839134Y-14289984D01*
X4991515Y-14470936D02*
X5001039Y-14480460D01*
X5001039Y-14480460D02*
X4991515Y-14489984D01*
X4991515Y-14489984D02*
X4981991Y-14480460D01*
X4981991Y-14480460D02*
X4991515Y-14470936D01*
X4991515Y-14470936D02*
X4991515Y-14489984D01*
X5124848Y-14289984D02*
X5143896Y-14289984D01*
X5143896Y-14289984D02*
X5162944Y-14299508D01*
X5162944Y-14299508D02*
X5172468Y-14309031D01*
X5172468Y-14309031D02*
X5181991Y-14328079D01*
X5181991Y-14328079D02*
X5191515Y-14366174D01*
X5191515Y-14366174D02*
X5191515Y-14413793D01*
X5191515Y-14413793D02*
X5181991Y-14451888D01*
X5181991Y-14451888D02*
X5172468Y-14470936D01*
X5172468Y-14470936D02*
X5162944Y-14480460D01*
X5162944Y-14480460D02*
X5143896Y-14489984D01*
X5143896Y-14489984D02*
X5124848Y-14489984D01*
X5124848Y-14489984D02*
X5105801Y-14480460D01*
X5105801Y-14480460D02*
X5096277Y-14470936D01*
X5096277Y-14470936D02*
X5086753Y-14451888D01*
X5086753Y-14451888D02*
X5077229Y-14413793D01*
X5077229Y-14413793D02*
X5077229Y-14366174D01*
X5077229Y-14366174D02*
X5086753Y-14328079D01*
X5086753Y-14328079D02*
X5096277Y-14309031D01*
X5096277Y-14309031D02*
X5105801Y-14299508D01*
X5105801Y-14299508D02*
X5124848Y-14289984D01*
X5258182Y-14289984D02*
X5381991Y-14289984D01*
X5381991Y-14289984D02*
X5315325Y-14366174D01*
X5315325Y-14366174D02*
X5343896Y-14366174D01*
X5343896Y-14366174D02*
X5362944Y-14375698D01*
X5362944Y-14375698D02*
X5372468Y-14385222D01*
X5372468Y-14385222D02*
X5381991Y-14404269D01*
X5381991Y-14404269D02*
X5381991Y-14451888D01*
X5381991Y-14451888D02*
X5372468Y-14470936D01*
X5372468Y-14470936D02*
X5362944Y-14480460D01*
X5362944Y-14480460D02*
X5343896Y-14489984D01*
X5343896Y-14489984D02*
X5286753Y-14489984D01*
X5286753Y-14489984D02*
X5267706Y-14480460D01*
X5267706Y-14480460D02*
X5258182Y-14470936D01*
X5572468Y-14489984D02*
X5458182Y-14489984D01*
X5515325Y-14489984D02*
X5515325Y-14289984D01*
X5515325Y-14289984D02*
X5496277Y-14318555D01*
X5496277Y-14318555D02*
X5477229Y-14337603D01*
X5477229Y-14337603D02*
X5458182Y-14347127D01*
X5753420Y-14289984D02*
X5658182Y-14289984D01*
X5658182Y-14289984D02*
X5648658Y-14385222D01*
X5648658Y-14385222D02*
X5658182Y-14375698D01*
X5658182Y-14375698D02*
X5677229Y-14366174D01*
X5677229Y-14366174D02*
X5724848Y-14366174D01*
X5724848Y-14366174D02*
X5743896Y-14375698D01*
X5743896Y-14375698D02*
X5753420Y-14385222D01*
X5753420Y-14385222D02*
X5762944Y-14404269D01*
X5762944Y-14404269D02*
X5762944Y-14451888D01*
X5762944Y-14451888D02*
X5753420Y-14470936D01*
X5753420Y-14470936D02*
X5743896Y-14480460D01*
X5743896Y-14480460D02*
X5724848Y-14489984D01*
X5724848Y-14489984D02*
X5677229Y-14489984D01*
X5677229Y-14489984D02*
X5658182Y-14480460D01*
X5658182Y-14480460D02*
X5648658Y-14470936D01*
X5839134Y-14289984D02*
X5839134Y-14328079D01*
X5915325Y-14289984D02*
X5915325Y-14328079D01*
X6210563Y-14566174D02*
X6201039Y-14556650D01*
X6201039Y-14556650D02*
X6181991Y-14528079D01*
X6181991Y-14528079D02*
X6172468Y-14509031D01*
X6172468Y-14509031D02*
X6162944Y-14480460D01*
X6162944Y-14480460D02*
X6153420Y-14432841D01*
X6153420Y-14432841D02*
X6153420Y-14394746D01*
X6153420Y-14394746D02*
X6162944Y-14347127D01*
X6162944Y-14347127D02*
X6172468Y-14318555D01*
X6172468Y-14318555D02*
X6181991Y-14299508D01*
X6181991Y-14299508D02*
X6201039Y-14270936D01*
X6201039Y-14270936D02*
X6210563Y-14261412D01*
X6296277Y-14489984D02*
X6334372Y-14489984D01*
X6334372Y-14489984D02*
X6353420Y-14480460D01*
X6353420Y-14480460D02*
X6362944Y-14470936D01*
X6362944Y-14470936D02*
X6381991Y-14442365D01*
X6381991Y-14442365D02*
X6391515Y-14404269D01*
X6391515Y-14404269D02*
X6391515Y-14328079D01*
X6391515Y-14328079D02*
X6381991Y-14309031D01*
X6381991Y-14309031D02*
X6372468Y-14299508D01*
X6372468Y-14299508D02*
X6353420Y-14289984D01*
X6353420Y-14289984D02*
X6315325Y-14289984D01*
X6315325Y-14289984D02*
X6296277Y-14299508D01*
X6296277Y-14299508D02*
X6286753Y-14309031D01*
X6286753Y-14309031D02*
X6277229Y-14328079D01*
X6277229Y-14328079D02*
X6277229Y-14375698D01*
X6277229Y-14375698D02*
X6286753Y-14394746D01*
X6286753Y-14394746D02*
X6296277Y-14404269D01*
X6296277Y-14404269D02*
X6315325Y-14413793D01*
X6315325Y-14413793D02*
X6353420Y-14413793D01*
X6353420Y-14413793D02*
X6372468Y-14404269D01*
X6372468Y-14404269D02*
X6381991Y-14394746D01*
X6381991Y-14394746D02*
X6391515Y-14375698D01*
X6629610Y-14489984D02*
X6629610Y-14289984D01*
X6715325Y-14489984D02*
X6715325Y-14385222D01*
X6715325Y-14385222D02*
X6705801Y-14366174D01*
X6705801Y-14366174D02*
X6686753Y-14356650D01*
X6686753Y-14356650D02*
X6658182Y-14356650D01*
X6658182Y-14356650D02*
X6639134Y-14366174D01*
X6639134Y-14366174D02*
X6629610Y-14375698D01*
X6839134Y-14489984D02*
X6820087Y-14480460D01*
X6820087Y-14480460D02*
X6810563Y-14470936D01*
X6810563Y-14470936D02*
X6801039Y-14451888D01*
X6801039Y-14451888D02*
X6801039Y-14394746D01*
X6801039Y-14394746D02*
X6810563Y-14375698D01*
X6810563Y-14375698D02*
X6820087Y-14366174D01*
X6820087Y-14366174D02*
X6839134Y-14356650D01*
X6839134Y-14356650D02*
X6867706Y-14356650D01*
X6867706Y-14356650D02*
X6886753Y-14366174D01*
X6886753Y-14366174D02*
X6896277Y-14375698D01*
X6896277Y-14375698D02*
X6905801Y-14394746D01*
X6905801Y-14394746D02*
X6905801Y-14451888D01*
X6905801Y-14451888D02*
X6896277Y-14470936D01*
X6896277Y-14470936D02*
X6886753Y-14480460D01*
X6886753Y-14480460D02*
X6867706Y-14489984D01*
X6867706Y-14489984D02*
X6839134Y-14489984D01*
X7020087Y-14489984D02*
X7001039Y-14480460D01*
X7001039Y-14480460D02*
X6991515Y-14461412D01*
X6991515Y-14461412D02*
X6991515Y-14289984D01*
X7172468Y-14480460D02*
X7153420Y-14489984D01*
X7153420Y-14489984D02*
X7115325Y-14489984D01*
X7115325Y-14489984D02*
X7096277Y-14480460D01*
X7096277Y-14480460D02*
X7086753Y-14461412D01*
X7086753Y-14461412D02*
X7086753Y-14385222D01*
X7086753Y-14385222D02*
X7096277Y-14366174D01*
X7096277Y-14366174D02*
X7115325Y-14356650D01*
X7115325Y-14356650D02*
X7153420Y-14356650D01*
X7153420Y-14356650D02*
X7172468Y-14366174D01*
X7172468Y-14366174D02*
X7181991Y-14385222D01*
X7181991Y-14385222D02*
X7181991Y-14404269D01*
X7181991Y-14404269D02*
X7086753Y-14423317D01*
X7258182Y-14480460D02*
X7277230Y-14489984D01*
X7277230Y-14489984D02*
X7315325Y-14489984D01*
X7315325Y-14489984D02*
X7334372Y-14480460D01*
X7334372Y-14480460D02*
X7343896Y-14461412D01*
X7343896Y-14461412D02*
X7343896Y-14451888D01*
X7343896Y-14451888D02*
X7334372Y-14432841D01*
X7334372Y-14432841D02*
X7315325Y-14423317D01*
X7315325Y-14423317D02*
X7286753Y-14423317D01*
X7286753Y-14423317D02*
X7267706Y-14413793D01*
X7267706Y-14413793D02*
X7258182Y-14394746D01*
X7258182Y-14394746D02*
X7258182Y-14385222D01*
X7258182Y-14385222D02*
X7267706Y-14366174D01*
X7267706Y-14366174D02*
X7286753Y-14356650D01*
X7286753Y-14356650D02*
X7315325Y-14356650D01*
X7315325Y-14356650D02*
X7334372Y-14366174D01*
X7410563Y-14566174D02*
X7420087Y-14556650D01*
X7420087Y-14556650D02*
X7439134Y-14528079D01*
X7439134Y-14528079D02*
X7448658Y-14509031D01*
X7448658Y-14509031D02*
X7458182Y-14480460D01*
X7458182Y-14480460D02*
X7467706Y-14432841D01*
X7467706Y-14432841D02*
X7467706Y-14394746D01*
X7467706Y-14394746D02*
X7458182Y-14347127D01*
X7458182Y-14347127D02*
X7448658Y-14318555D01*
X7448658Y-14318555D02*
X7439134Y-14299508D01*
X7439134Y-14299508D02*
X7420087Y-14270936D01*
X7420087Y-14270936D02*
X7410563Y-14261412D01*
D12*
X2623785Y-14690784D02*
X2623785Y-14634215D01*
X2567216Y-14634215D01*
X2567216Y-14690784D01*
X2623785Y-14690784D01*
D11*
X2934372Y-14553984D02*
X2953420Y-14553984D01*
X2953420Y-14553984D02*
X2972467Y-14563508D01*
X2972467Y-14563508D02*
X2981991Y-14573031D01*
X2981991Y-14573031D02*
X2991515Y-14592079D01*
X2991515Y-14592079D02*
X3001039Y-14630174D01*
X3001039Y-14630174D02*
X3001039Y-14677793D01*
X3001039Y-14677793D02*
X2991515Y-14715888D01*
X2991515Y-14715888D02*
X2981991Y-14734936D01*
X2981991Y-14734936D02*
X2972467Y-14744460D01*
X2972467Y-14744460D02*
X2953420Y-14753984D01*
X2953420Y-14753984D02*
X2934372Y-14753984D01*
X2934372Y-14753984D02*
X2915324Y-14744460D01*
X2915324Y-14744460D02*
X2905801Y-14734936D01*
X2905801Y-14734936D02*
X2896277Y-14715888D01*
X2896277Y-14715888D02*
X2886753Y-14677793D01*
X2886753Y-14677793D02*
X2886753Y-14630174D01*
X2886753Y-14630174D02*
X2896277Y-14592079D01*
X2896277Y-14592079D02*
X2905801Y-14573031D01*
X2905801Y-14573031D02*
X2915324Y-14563508D01*
X2915324Y-14563508D02*
X2934372Y-14553984D01*
X3086753Y-14734936D02*
X3096277Y-14744460D01*
X3096277Y-14744460D02*
X3086753Y-14753984D01*
X3086753Y-14753984D02*
X3077229Y-14744460D01*
X3077229Y-14744460D02*
X3086753Y-14734936D01*
X3086753Y-14734936D02*
X3086753Y-14753984D01*
X3210562Y-14639698D02*
X3191515Y-14630174D01*
X3191515Y-14630174D02*
X3181991Y-14620650D01*
X3181991Y-14620650D02*
X3172467Y-14601603D01*
X3172467Y-14601603D02*
X3172467Y-14592079D01*
X3172467Y-14592079D02*
X3181991Y-14573031D01*
X3181991Y-14573031D02*
X3191515Y-14563508D01*
X3191515Y-14563508D02*
X3210562Y-14553984D01*
X3210562Y-14553984D02*
X3248658Y-14553984D01*
X3248658Y-14553984D02*
X3267705Y-14563508D01*
X3267705Y-14563508D02*
X3277229Y-14573031D01*
X3277229Y-14573031D02*
X3286753Y-14592079D01*
X3286753Y-14592079D02*
X3286753Y-14601603D01*
X3286753Y-14601603D02*
X3277229Y-14620650D01*
X3277229Y-14620650D02*
X3267705Y-14630174D01*
X3267705Y-14630174D02*
X3248658Y-14639698D01*
X3248658Y-14639698D02*
X3210562Y-14639698D01*
X3210562Y-14639698D02*
X3191515Y-14649222D01*
X3191515Y-14649222D02*
X3181991Y-14658746D01*
X3181991Y-14658746D02*
X3172467Y-14677793D01*
X3172467Y-14677793D02*
X3172467Y-14715888D01*
X3172467Y-14715888D02*
X3181991Y-14734936D01*
X3181991Y-14734936D02*
X3191515Y-14744460D01*
X3191515Y-14744460D02*
X3210562Y-14753984D01*
X3210562Y-14753984D02*
X3248658Y-14753984D01*
X3248658Y-14753984D02*
X3267705Y-14744460D01*
X3267705Y-14744460D02*
X3277229Y-14734936D01*
X3277229Y-14734936D02*
X3286753Y-14715888D01*
X3286753Y-14715888D02*
X3286753Y-14677793D01*
X3286753Y-14677793D02*
X3277229Y-14658746D01*
X3277229Y-14658746D02*
X3267705Y-14649222D01*
X3267705Y-14649222D02*
X3248658Y-14639698D01*
X3410562Y-14553984D02*
X3429610Y-14553984D01*
X3429610Y-14553984D02*
X3448658Y-14563508D01*
X3448658Y-14563508D02*
X3458182Y-14573031D01*
X3458182Y-14573031D02*
X3467705Y-14592079D01*
X3467705Y-14592079D02*
X3477229Y-14630174D01*
X3477229Y-14630174D02*
X3477229Y-14677793D01*
X3477229Y-14677793D02*
X3467705Y-14715888D01*
X3467705Y-14715888D02*
X3458182Y-14734936D01*
X3458182Y-14734936D02*
X3448658Y-14744460D01*
X3448658Y-14744460D02*
X3429610Y-14753984D01*
X3429610Y-14753984D02*
X3410562Y-14753984D01*
X3410562Y-14753984D02*
X3391515Y-14744460D01*
X3391515Y-14744460D02*
X3381991Y-14734936D01*
X3381991Y-14734936D02*
X3372467Y-14715888D01*
X3372467Y-14715888D02*
X3362943Y-14677793D01*
X3362943Y-14677793D02*
X3362943Y-14630174D01*
X3362943Y-14630174D02*
X3372467Y-14592079D01*
X3372467Y-14592079D02*
X3381991Y-14573031D01*
X3381991Y-14573031D02*
X3391515Y-14563508D01*
X3391515Y-14563508D02*
X3410562Y-14553984D01*
X3601039Y-14553984D02*
X3620086Y-14553984D01*
X3620086Y-14553984D02*
X3639134Y-14563508D01*
X3639134Y-14563508D02*
X3648658Y-14573031D01*
X3648658Y-14573031D02*
X3658182Y-14592079D01*
X3658182Y-14592079D02*
X3667705Y-14630174D01*
X3667705Y-14630174D02*
X3667705Y-14677793D01*
X3667705Y-14677793D02*
X3658182Y-14715888D01*
X3658182Y-14715888D02*
X3648658Y-14734936D01*
X3648658Y-14734936D02*
X3639134Y-14744460D01*
X3639134Y-14744460D02*
X3620086Y-14753984D01*
X3620086Y-14753984D02*
X3601039Y-14753984D01*
X3601039Y-14753984D02*
X3581991Y-14744460D01*
X3581991Y-14744460D02*
X3572467Y-14734936D01*
X3572467Y-14734936D02*
X3562943Y-14715888D01*
X3562943Y-14715888D02*
X3553420Y-14677793D01*
X3553420Y-14677793D02*
X3553420Y-14630174D01*
X3553420Y-14630174D02*
X3562943Y-14592079D01*
X3562943Y-14592079D02*
X3572467Y-14573031D01*
X3572467Y-14573031D02*
X3581991Y-14563508D01*
X3581991Y-14563508D02*
X3601039Y-14553984D01*
X3753420Y-14753984D02*
X3753420Y-14620650D01*
X3753420Y-14639698D02*
X3762943Y-14630174D01*
X3762943Y-14630174D02*
X3781991Y-14620650D01*
X3781991Y-14620650D02*
X3810563Y-14620650D01*
X3810563Y-14620650D02*
X3829610Y-14630174D01*
X3829610Y-14630174D02*
X3839134Y-14649222D01*
X3839134Y-14649222D02*
X3839134Y-14753984D01*
X3839134Y-14649222D02*
X3848658Y-14630174D01*
X3848658Y-14630174D02*
X3867705Y-14620650D01*
X3867705Y-14620650D02*
X3896277Y-14620650D01*
X3896277Y-14620650D02*
X3915324Y-14630174D01*
X3915324Y-14630174D02*
X3924848Y-14649222D01*
X3924848Y-14649222D02*
X3924848Y-14753984D01*
X4020086Y-14753984D02*
X4020086Y-14620650D01*
X4020086Y-14639698D02*
X4029610Y-14630174D01*
X4029610Y-14630174D02*
X4048658Y-14620650D01*
X4048658Y-14620650D02*
X4077229Y-14620650D01*
X4077229Y-14620650D02*
X4096277Y-14630174D01*
X4096277Y-14630174D02*
X4105801Y-14649222D01*
X4105801Y-14649222D02*
X4105801Y-14753984D01*
X4105801Y-14649222D02*
X4115324Y-14630174D01*
X4115324Y-14630174D02*
X4134372Y-14620650D01*
X4134372Y-14620650D02*
X4162943Y-14620650D01*
X4162943Y-14620650D02*
X4181991Y-14630174D01*
X4181991Y-14630174D02*
X4191515Y-14649222D01*
X4191515Y-14649222D02*
X4191515Y-14753984D01*
X4581991Y-14544460D02*
X4410563Y-14801603D01*
X4839134Y-14553984D02*
X4858182Y-14553984D01*
X4858182Y-14553984D02*
X4877229Y-14563508D01*
X4877229Y-14563508D02*
X4886753Y-14573031D01*
X4886753Y-14573031D02*
X4896277Y-14592079D01*
X4896277Y-14592079D02*
X4905801Y-14630174D01*
X4905801Y-14630174D02*
X4905801Y-14677793D01*
X4905801Y-14677793D02*
X4896277Y-14715888D01*
X4896277Y-14715888D02*
X4886753Y-14734936D01*
X4886753Y-14734936D02*
X4877229Y-14744460D01*
X4877229Y-14744460D02*
X4858182Y-14753984D01*
X4858182Y-14753984D02*
X4839134Y-14753984D01*
X4839134Y-14753984D02*
X4820087Y-14744460D01*
X4820087Y-14744460D02*
X4810563Y-14734936D01*
X4810563Y-14734936D02*
X4801039Y-14715888D01*
X4801039Y-14715888D02*
X4791515Y-14677793D01*
X4791515Y-14677793D02*
X4791515Y-14630174D01*
X4791515Y-14630174D02*
X4801039Y-14592079D01*
X4801039Y-14592079D02*
X4810563Y-14573031D01*
X4810563Y-14573031D02*
X4820087Y-14563508D01*
X4820087Y-14563508D02*
X4839134Y-14553984D01*
X4991515Y-14734936D02*
X5001039Y-14744460D01*
X5001039Y-14744460D02*
X4991515Y-14753984D01*
X4991515Y-14753984D02*
X4981991Y-14744460D01*
X4981991Y-14744460D02*
X4991515Y-14734936D01*
X4991515Y-14734936D02*
X4991515Y-14753984D01*
X5124848Y-14553984D02*
X5143896Y-14553984D01*
X5143896Y-14553984D02*
X5162944Y-14563508D01*
X5162944Y-14563508D02*
X5172468Y-14573031D01*
X5172468Y-14573031D02*
X5181991Y-14592079D01*
X5181991Y-14592079D02*
X5191515Y-14630174D01*
X5191515Y-14630174D02*
X5191515Y-14677793D01*
X5191515Y-14677793D02*
X5181991Y-14715888D01*
X5181991Y-14715888D02*
X5172468Y-14734936D01*
X5172468Y-14734936D02*
X5162944Y-14744460D01*
X5162944Y-14744460D02*
X5143896Y-14753984D01*
X5143896Y-14753984D02*
X5124848Y-14753984D01*
X5124848Y-14753984D02*
X5105801Y-14744460D01*
X5105801Y-14744460D02*
X5096277Y-14734936D01*
X5096277Y-14734936D02*
X5086753Y-14715888D01*
X5086753Y-14715888D02*
X5077229Y-14677793D01*
X5077229Y-14677793D02*
X5077229Y-14630174D01*
X5077229Y-14630174D02*
X5086753Y-14592079D01*
X5086753Y-14592079D02*
X5096277Y-14573031D01*
X5096277Y-14573031D02*
X5105801Y-14563508D01*
X5105801Y-14563508D02*
X5124848Y-14553984D01*
X5258182Y-14553984D02*
X5381991Y-14553984D01*
X5381991Y-14553984D02*
X5315325Y-14630174D01*
X5315325Y-14630174D02*
X5343896Y-14630174D01*
X5343896Y-14630174D02*
X5362944Y-14639698D01*
X5362944Y-14639698D02*
X5372468Y-14649222D01*
X5372468Y-14649222D02*
X5381991Y-14668269D01*
X5381991Y-14668269D02*
X5381991Y-14715888D01*
X5381991Y-14715888D02*
X5372468Y-14734936D01*
X5372468Y-14734936D02*
X5362944Y-14744460D01*
X5362944Y-14744460D02*
X5343896Y-14753984D01*
X5343896Y-14753984D02*
X5286753Y-14753984D01*
X5286753Y-14753984D02*
X5267706Y-14744460D01*
X5267706Y-14744460D02*
X5258182Y-14734936D01*
X5572468Y-14753984D02*
X5458182Y-14753984D01*
X5515325Y-14753984D02*
X5515325Y-14553984D01*
X5515325Y-14553984D02*
X5496277Y-14582555D01*
X5496277Y-14582555D02*
X5477229Y-14601603D01*
X5477229Y-14601603D02*
X5458182Y-14611127D01*
X5753420Y-14553984D02*
X5658182Y-14553984D01*
X5658182Y-14553984D02*
X5648658Y-14649222D01*
X5648658Y-14649222D02*
X5658182Y-14639698D01*
X5658182Y-14639698D02*
X5677229Y-14630174D01*
X5677229Y-14630174D02*
X5724848Y-14630174D01*
X5724848Y-14630174D02*
X5743896Y-14639698D01*
X5743896Y-14639698D02*
X5753420Y-14649222D01*
X5753420Y-14649222D02*
X5762944Y-14668269D01*
X5762944Y-14668269D02*
X5762944Y-14715888D01*
X5762944Y-14715888D02*
X5753420Y-14734936D01*
X5753420Y-14734936D02*
X5743896Y-14744460D01*
X5743896Y-14744460D02*
X5724848Y-14753984D01*
X5724848Y-14753984D02*
X5677229Y-14753984D01*
X5677229Y-14753984D02*
X5658182Y-14744460D01*
X5658182Y-14744460D02*
X5648658Y-14734936D01*
X5839134Y-14553984D02*
X5839134Y-14592079D01*
X5915325Y-14553984D02*
X5915325Y-14592079D01*
X6210563Y-14830174D02*
X6201039Y-14820650D01*
X6201039Y-14820650D02*
X6181991Y-14792079D01*
X6181991Y-14792079D02*
X6172468Y-14773031D01*
X6172468Y-14773031D02*
X6162944Y-14744460D01*
X6162944Y-14744460D02*
X6153420Y-14696841D01*
X6153420Y-14696841D02*
X6153420Y-14658746D01*
X6153420Y-14658746D02*
X6162944Y-14611127D01*
X6162944Y-14611127D02*
X6172468Y-14582555D01*
X6172468Y-14582555D02*
X6181991Y-14563508D01*
X6181991Y-14563508D02*
X6201039Y-14534936D01*
X6201039Y-14534936D02*
X6210563Y-14525412D01*
X6391515Y-14753984D02*
X6277229Y-14753984D01*
X6334372Y-14753984D02*
X6334372Y-14553984D01*
X6334372Y-14553984D02*
X6315325Y-14582555D01*
X6315325Y-14582555D02*
X6296277Y-14601603D01*
X6296277Y-14601603D02*
X6277229Y-14611127D01*
X6515325Y-14553984D02*
X6534372Y-14553984D01*
X6534372Y-14553984D02*
X6553420Y-14563508D01*
X6553420Y-14563508D02*
X6562944Y-14573031D01*
X6562944Y-14573031D02*
X6572468Y-14592079D01*
X6572468Y-14592079D02*
X6581991Y-14630174D01*
X6581991Y-14630174D02*
X6581991Y-14677793D01*
X6581991Y-14677793D02*
X6572468Y-14715888D01*
X6572468Y-14715888D02*
X6562944Y-14734936D01*
X6562944Y-14734936D02*
X6553420Y-14744460D01*
X6553420Y-14744460D02*
X6534372Y-14753984D01*
X6534372Y-14753984D02*
X6515325Y-14753984D01*
X6515325Y-14753984D02*
X6496277Y-14744460D01*
X6496277Y-14744460D02*
X6486753Y-14734936D01*
X6486753Y-14734936D02*
X6477229Y-14715888D01*
X6477229Y-14715888D02*
X6467706Y-14677793D01*
X6467706Y-14677793D02*
X6467706Y-14630174D01*
X6467706Y-14630174D02*
X6477229Y-14592079D01*
X6477229Y-14592079D02*
X6486753Y-14573031D01*
X6486753Y-14573031D02*
X6496277Y-14563508D01*
X6496277Y-14563508D02*
X6515325Y-14553984D01*
X6772468Y-14753984D02*
X6658182Y-14753984D01*
X6715325Y-14753984D02*
X6715325Y-14553984D01*
X6715325Y-14553984D02*
X6696277Y-14582555D01*
X6696277Y-14582555D02*
X6677229Y-14601603D01*
X6677229Y-14601603D02*
X6658182Y-14611127D01*
X7010563Y-14753984D02*
X7010563Y-14553984D01*
X7096277Y-14753984D02*
X7096277Y-14649222D01*
X7096277Y-14649222D02*
X7086753Y-14630174D01*
X7086753Y-14630174D02*
X7067706Y-14620650D01*
X7067706Y-14620650D02*
X7039134Y-14620650D01*
X7039134Y-14620650D02*
X7020087Y-14630174D01*
X7020087Y-14630174D02*
X7010563Y-14639698D01*
X7220087Y-14753984D02*
X7201039Y-14744460D01*
X7201039Y-14744460D02*
X7191515Y-14734936D01*
X7191515Y-14734936D02*
X7181991Y-14715888D01*
X7181991Y-14715888D02*
X7181991Y-14658746D01*
X7181991Y-14658746D02*
X7191515Y-14639698D01*
X7191515Y-14639698D02*
X7201039Y-14630174D01*
X7201039Y-14630174D02*
X7220087Y-14620650D01*
X7220087Y-14620650D02*
X7248658Y-14620650D01*
X7248658Y-14620650D02*
X7267706Y-14630174D01*
X7267706Y-14630174D02*
X7277230Y-14639698D01*
X7277230Y-14639698D02*
X7286753Y-14658746D01*
X7286753Y-14658746D02*
X7286753Y-14715888D01*
X7286753Y-14715888D02*
X7277230Y-14734936D01*
X7277230Y-14734936D02*
X7267706Y-14744460D01*
X7267706Y-14744460D02*
X7248658Y-14753984D01*
X7248658Y-14753984D02*
X7220087Y-14753984D01*
X7401039Y-14753984D02*
X7381991Y-14744460D01*
X7381991Y-14744460D02*
X7372468Y-14725412D01*
X7372468Y-14725412D02*
X7372468Y-14553984D01*
X7553420Y-14744460D02*
X7534372Y-14753984D01*
X7534372Y-14753984D02*
X7496277Y-14753984D01*
X7496277Y-14753984D02*
X7477230Y-14744460D01*
X7477230Y-14744460D02*
X7467706Y-14725412D01*
X7467706Y-14725412D02*
X7467706Y-14649222D01*
X7467706Y-14649222D02*
X7477230Y-14630174D01*
X7477230Y-14630174D02*
X7496277Y-14620650D01*
X7496277Y-14620650D02*
X7534372Y-14620650D01*
X7534372Y-14620650D02*
X7553420Y-14630174D01*
X7553420Y-14630174D02*
X7562944Y-14649222D01*
X7562944Y-14649222D02*
X7562944Y-14668269D01*
X7562944Y-14668269D02*
X7467706Y-14687317D01*
X7639134Y-14744460D02*
X7658182Y-14753984D01*
X7658182Y-14753984D02*
X7696277Y-14753984D01*
X7696277Y-14753984D02*
X7715325Y-14744460D01*
X7715325Y-14744460D02*
X7724849Y-14725412D01*
X7724849Y-14725412D02*
X7724849Y-14715888D01*
X7724849Y-14715888D02*
X7715325Y-14696841D01*
X7715325Y-14696841D02*
X7696277Y-14687317D01*
X7696277Y-14687317D02*
X7667706Y-14687317D01*
X7667706Y-14687317D02*
X7648658Y-14677793D01*
X7648658Y-14677793D02*
X7639134Y-14658746D01*
X7639134Y-14658746D02*
X7639134Y-14649222D01*
X7639134Y-14649222D02*
X7648658Y-14630174D01*
X7648658Y-14630174D02*
X7667706Y-14620650D01*
X7667706Y-14620650D02*
X7696277Y-14620650D01*
X7696277Y-14620650D02*
X7715325Y-14630174D01*
X7791515Y-14830174D02*
X7801039Y-14820650D01*
X7801039Y-14820650D02*
X7820087Y-14792079D01*
X7820087Y-14792079D02*
X7829611Y-14773031D01*
X7829611Y-14773031D02*
X7839134Y-14744460D01*
X7839134Y-14744460D02*
X7848658Y-14696841D01*
X7848658Y-14696841D02*
X7848658Y-14658746D01*
X7848658Y-14658746D02*
X7839134Y-14611127D01*
X7839134Y-14611127D02*
X7829611Y-14582555D01*
X7829611Y-14582555D02*
X7820087Y-14563508D01*
X7820087Y-14563508D02*
X7801039Y-14534936D01*
X7801039Y-14534936D02*
X7791515Y-14525412D01*
D12*
X2585500Y-14976500D02*
X2635500Y-14926500D01*
X2585500Y-14876500D01*
X2535500Y-14926500D01*
X2585500Y-14976500D01*
D11*
X3001039Y-15017984D02*
X2886753Y-15017984D01*
X2943896Y-15017984D02*
X2943896Y-14817984D01*
X2943896Y-14817984D02*
X2924848Y-14846555D01*
X2924848Y-14846555D02*
X2905801Y-14865603D01*
X2905801Y-14865603D02*
X2886753Y-14875127D01*
X3086753Y-14998936D02*
X3096277Y-15008460D01*
X3096277Y-15008460D02*
X3086753Y-15017984D01*
X3086753Y-15017984D02*
X3077229Y-15008460D01*
X3077229Y-15008460D02*
X3086753Y-14998936D01*
X3086753Y-14998936D02*
X3086753Y-15017984D01*
X3220086Y-14817984D02*
X3239134Y-14817984D01*
X3239134Y-14817984D02*
X3258182Y-14827508D01*
X3258182Y-14827508D02*
X3267705Y-14837031D01*
X3267705Y-14837031D02*
X3277229Y-14856079D01*
X3277229Y-14856079D02*
X3286753Y-14894174D01*
X3286753Y-14894174D02*
X3286753Y-14941793D01*
X3286753Y-14941793D02*
X3277229Y-14979888D01*
X3277229Y-14979888D02*
X3267705Y-14998936D01*
X3267705Y-14998936D02*
X3258182Y-15008460D01*
X3258182Y-15008460D02*
X3239134Y-15017984D01*
X3239134Y-15017984D02*
X3220086Y-15017984D01*
X3220086Y-15017984D02*
X3201039Y-15008460D01*
X3201039Y-15008460D02*
X3191515Y-14998936D01*
X3191515Y-14998936D02*
X3181991Y-14979888D01*
X3181991Y-14979888D02*
X3172467Y-14941793D01*
X3172467Y-14941793D02*
X3172467Y-14894174D01*
X3172467Y-14894174D02*
X3181991Y-14856079D01*
X3181991Y-14856079D02*
X3191515Y-14837031D01*
X3191515Y-14837031D02*
X3201039Y-14827508D01*
X3201039Y-14827508D02*
X3220086Y-14817984D01*
X3410562Y-14817984D02*
X3429610Y-14817984D01*
X3429610Y-14817984D02*
X3448658Y-14827508D01*
X3448658Y-14827508D02*
X3458182Y-14837031D01*
X3458182Y-14837031D02*
X3467705Y-14856079D01*
X3467705Y-14856079D02*
X3477229Y-14894174D01*
X3477229Y-14894174D02*
X3477229Y-14941793D01*
X3477229Y-14941793D02*
X3467705Y-14979888D01*
X3467705Y-14979888D02*
X3458182Y-14998936D01*
X3458182Y-14998936D02*
X3448658Y-15008460D01*
X3448658Y-15008460D02*
X3429610Y-15017984D01*
X3429610Y-15017984D02*
X3410562Y-15017984D01*
X3410562Y-15017984D02*
X3391515Y-15008460D01*
X3391515Y-15008460D02*
X3381991Y-14998936D01*
X3381991Y-14998936D02*
X3372467Y-14979888D01*
X3372467Y-14979888D02*
X3362943Y-14941793D01*
X3362943Y-14941793D02*
X3362943Y-14894174D01*
X3362943Y-14894174D02*
X3372467Y-14856079D01*
X3372467Y-14856079D02*
X3381991Y-14837031D01*
X3381991Y-14837031D02*
X3391515Y-14827508D01*
X3391515Y-14827508D02*
X3410562Y-14817984D01*
X3601039Y-14817984D02*
X3620086Y-14817984D01*
X3620086Y-14817984D02*
X3639134Y-14827508D01*
X3639134Y-14827508D02*
X3648658Y-14837031D01*
X3648658Y-14837031D02*
X3658182Y-14856079D01*
X3658182Y-14856079D02*
X3667705Y-14894174D01*
X3667705Y-14894174D02*
X3667705Y-14941793D01*
X3667705Y-14941793D02*
X3658182Y-14979888D01*
X3658182Y-14979888D02*
X3648658Y-14998936D01*
X3648658Y-14998936D02*
X3639134Y-15008460D01*
X3639134Y-15008460D02*
X3620086Y-15017984D01*
X3620086Y-15017984D02*
X3601039Y-15017984D01*
X3601039Y-15017984D02*
X3581991Y-15008460D01*
X3581991Y-15008460D02*
X3572467Y-14998936D01*
X3572467Y-14998936D02*
X3562943Y-14979888D01*
X3562943Y-14979888D02*
X3553420Y-14941793D01*
X3553420Y-14941793D02*
X3553420Y-14894174D01*
X3553420Y-14894174D02*
X3562943Y-14856079D01*
X3562943Y-14856079D02*
X3572467Y-14837031D01*
X3572467Y-14837031D02*
X3581991Y-14827508D01*
X3581991Y-14827508D02*
X3601039Y-14817984D01*
X3753420Y-15017984D02*
X3753420Y-14884650D01*
X3753420Y-14903698D02*
X3762943Y-14894174D01*
X3762943Y-14894174D02*
X3781991Y-14884650D01*
X3781991Y-14884650D02*
X3810563Y-14884650D01*
X3810563Y-14884650D02*
X3829610Y-14894174D01*
X3829610Y-14894174D02*
X3839134Y-14913222D01*
X3839134Y-14913222D02*
X3839134Y-15017984D01*
X3839134Y-14913222D02*
X3848658Y-14894174D01*
X3848658Y-14894174D02*
X3867705Y-14884650D01*
X3867705Y-14884650D02*
X3896277Y-14884650D01*
X3896277Y-14884650D02*
X3915324Y-14894174D01*
X3915324Y-14894174D02*
X3924848Y-14913222D01*
X3924848Y-14913222D02*
X3924848Y-15017984D01*
X4020086Y-15017984D02*
X4020086Y-14884650D01*
X4020086Y-14903698D02*
X4029610Y-14894174D01*
X4029610Y-14894174D02*
X4048658Y-14884650D01*
X4048658Y-14884650D02*
X4077229Y-14884650D01*
X4077229Y-14884650D02*
X4096277Y-14894174D01*
X4096277Y-14894174D02*
X4105801Y-14913222D01*
X4105801Y-14913222D02*
X4105801Y-15017984D01*
X4105801Y-14913222D02*
X4115324Y-14894174D01*
X4115324Y-14894174D02*
X4134372Y-14884650D01*
X4134372Y-14884650D02*
X4162943Y-14884650D01*
X4162943Y-14884650D02*
X4181991Y-14894174D01*
X4181991Y-14894174D02*
X4191515Y-14913222D01*
X4191515Y-14913222D02*
X4191515Y-15017984D01*
X4581991Y-14808460D02*
X4410563Y-15065603D01*
X4839134Y-14817984D02*
X4858182Y-14817984D01*
X4858182Y-14817984D02*
X4877229Y-14827508D01*
X4877229Y-14827508D02*
X4886753Y-14837031D01*
X4886753Y-14837031D02*
X4896277Y-14856079D01*
X4896277Y-14856079D02*
X4905801Y-14894174D01*
X4905801Y-14894174D02*
X4905801Y-14941793D01*
X4905801Y-14941793D02*
X4896277Y-14979888D01*
X4896277Y-14979888D02*
X4886753Y-14998936D01*
X4886753Y-14998936D02*
X4877229Y-15008460D01*
X4877229Y-15008460D02*
X4858182Y-15017984D01*
X4858182Y-15017984D02*
X4839134Y-15017984D01*
X4839134Y-15017984D02*
X4820087Y-15008460D01*
X4820087Y-15008460D02*
X4810563Y-14998936D01*
X4810563Y-14998936D02*
X4801039Y-14979888D01*
X4801039Y-14979888D02*
X4791515Y-14941793D01*
X4791515Y-14941793D02*
X4791515Y-14894174D01*
X4791515Y-14894174D02*
X4801039Y-14856079D01*
X4801039Y-14856079D02*
X4810563Y-14837031D01*
X4810563Y-14837031D02*
X4820087Y-14827508D01*
X4820087Y-14827508D02*
X4839134Y-14817984D01*
X4991515Y-14998936D02*
X5001039Y-15008460D01*
X5001039Y-15008460D02*
X4991515Y-15017984D01*
X4991515Y-15017984D02*
X4981991Y-15008460D01*
X4981991Y-15008460D02*
X4991515Y-14998936D01*
X4991515Y-14998936D02*
X4991515Y-15017984D01*
X5124848Y-14817984D02*
X5143896Y-14817984D01*
X5143896Y-14817984D02*
X5162944Y-14827508D01*
X5162944Y-14827508D02*
X5172468Y-14837031D01*
X5172468Y-14837031D02*
X5181991Y-14856079D01*
X5181991Y-14856079D02*
X5191515Y-14894174D01*
X5191515Y-14894174D02*
X5191515Y-14941793D01*
X5191515Y-14941793D02*
X5181991Y-14979888D01*
X5181991Y-14979888D02*
X5172468Y-14998936D01*
X5172468Y-14998936D02*
X5162944Y-15008460D01*
X5162944Y-15008460D02*
X5143896Y-15017984D01*
X5143896Y-15017984D02*
X5124848Y-15017984D01*
X5124848Y-15017984D02*
X5105801Y-15008460D01*
X5105801Y-15008460D02*
X5096277Y-14998936D01*
X5096277Y-14998936D02*
X5086753Y-14979888D01*
X5086753Y-14979888D02*
X5077229Y-14941793D01*
X5077229Y-14941793D02*
X5077229Y-14894174D01*
X5077229Y-14894174D02*
X5086753Y-14856079D01*
X5086753Y-14856079D02*
X5096277Y-14837031D01*
X5096277Y-14837031D02*
X5105801Y-14827508D01*
X5105801Y-14827508D02*
X5124848Y-14817984D01*
X5258182Y-14817984D02*
X5381991Y-14817984D01*
X5381991Y-14817984D02*
X5315325Y-14894174D01*
X5315325Y-14894174D02*
X5343896Y-14894174D01*
X5343896Y-14894174D02*
X5362944Y-14903698D01*
X5362944Y-14903698D02*
X5372468Y-14913222D01*
X5372468Y-14913222D02*
X5381991Y-14932269D01*
X5381991Y-14932269D02*
X5381991Y-14979888D01*
X5381991Y-14979888D02*
X5372468Y-14998936D01*
X5372468Y-14998936D02*
X5362944Y-15008460D01*
X5362944Y-15008460D02*
X5343896Y-15017984D01*
X5343896Y-15017984D02*
X5286753Y-15017984D01*
X5286753Y-15017984D02*
X5267706Y-15008460D01*
X5267706Y-15008460D02*
X5258182Y-14998936D01*
X5477229Y-15017984D02*
X5515325Y-15017984D01*
X5515325Y-15017984D02*
X5534372Y-15008460D01*
X5534372Y-15008460D02*
X5543896Y-14998936D01*
X5543896Y-14998936D02*
X5562944Y-14970365D01*
X5562944Y-14970365D02*
X5572468Y-14932269D01*
X5572468Y-14932269D02*
X5572468Y-14856079D01*
X5572468Y-14856079D02*
X5562944Y-14837031D01*
X5562944Y-14837031D02*
X5553420Y-14827508D01*
X5553420Y-14827508D02*
X5534372Y-14817984D01*
X5534372Y-14817984D02*
X5496277Y-14817984D01*
X5496277Y-14817984D02*
X5477229Y-14827508D01*
X5477229Y-14827508D02*
X5467706Y-14837031D01*
X5467706Y-14837031D02*
X5458182Y-14856079D01*
X5458182Y-14856079D02*
X5458182Y-14903698D01*
X5458182Y-14903698D02*
X5467706Y-14922746D01*
X5467706Y-14922746D02*
X5477229Y-14932269D01*
X5477229Y-14932269D02*
X5496277Y-14941793D01*
X5496277Y-14941793D02*
X5534372Y-14941793D01*
X5534372Y-14941793D02*
X5553420Y-14932269D01*
X5553420Y-14932269D02*
X5562944Y-14922746D01*
X5562944Y-14922746D02*
X5572468Y-14903698D01*
X5743896Y-14884650D02*
X5743896Y-15017984D01*
X5696277Y-14808460D02*
X5648658Y-14951317D01*
X5648658Y-14951317D02*
X5772467Y-14951317D01*
X5839134Y-14817984D02*
X5839134Y-14856079D01*
X5915325Y-14817984D02*
X5915325Y-14856079D01*
X6210563Y-15094174D02*
X6201039Y-15084650D01*
X6201039Y-15084650D02*
X6181991Y-15056079D01*
X6181991Y-15056079D02*
X6172468Y-15037031D01*
X6172468Y-15037031D02*
X6162944Y-15008460D01*
X6162944Y-15008460D02*
X6153420Y-14960841D01*
X6153420Y-14960841D02*
X6153420Y-14922746D01*
X6153420Y-14922746D02*
X6162944Y-14875127D01*
X6162944Y-14875127D02*
X6172468Y-14846555D01*
X6172468Y-14846555D02*
X6181991Y-14827508D01*
X6181991Y-14827508D02*
X6201039Y-14798936D01*
X6201039Y-14798936D02*
X6210563Y-14789412D01*
X6277229Y-14837031D02*
X6286753Y-14827508D01*
X6286753Y-14827508D02*
X6305801Y-14817984D01*
X6305801Y-14817984D02*
X6353420Y-14817984D01*
X6353420Y-14817984D02*
X6372468Y-14827508D01*
X6372468Y-14827508D02*
X6381991Y-14837031D01*
X6381991Y-14837031D02*
X6391515Y-14856079D01*
X6391515Y-14856079D02*
X6391515Y-14875127D01*
X6391515Y-14875127D02*
X6381991Y-14903698D01*
X6381991Y-14903698D02*
X6267706Y-15017984D01*
X6267706Y-15017984D02*
X6391515Y-15017984D01*
X6581991Y-15017984D02*
X6467706Y-15017984D01*
X6524848Y-15017984D02*
X6524848Y-14817984D01*
X6524848Y-14817984D02*
X6505801Y-14846555D01*
X6505801Y-14846555D02*
X6486753Y-14865603D01*
X6486753Y-14865603D02*
X6467706Y-14875127D01*
X6820087Y-15017984D02*
X6820087Y-14817984D01*
X6905801Y-15017984D02*
X6905801Y-14913222D01*
X6905801Y-14913222D02*
X6896277Y-14894174D01*
X6896277Y-14894174D02*
X6877230Y-14884650D01*
X6877230Y-14884650D02*
X6848658Y-14884650D01*
X6848658Y-14884650D02*
X6829610Y-14894174D01*
X6829610Y-14894174D02*
X6820087Y-14903698D01*
X7029610Y-15017984D02*
X7010563Y-15008460D01*
X7010563Y-15008460D02*
X7001039Y-14998936D01*
X7001039Y-14998936D02*
X6991515Y-14979888D01*
X6991515Y-14979888D02*
X6991515Y-14922746D01*
X6991515Y-14922746D02*
X7001039Y-14903698D01*
X7001039Y-14903698D02*
X7010563Y-14894174D01*
X7010563Y-14894174D02*
X7029610Y-14884650D01*
X7029610Y-14884650D02*
X7058182Y-14884650D01*
X7058182Y-14884650D02*
X7077230Y-14894174D01*
X7077230Y-14894174D02*
X7086753Y-14903698D01*
X7086753Y-14903698D02*
X7096277Y-14922746D01*
X7096277Y-14922746D02*
X7096277Y-14979888D01*
X7096277Y-14979888D02*
X7086753Y-14998936D01*
X7086753Y-14998936D02*
X7077230Y-15008460D01*
X7077230Y-15008460D02*
X7058182Y-15017984D01*
X7058182Y-15017984D02*
X7029610Y-15017984D01*
X7210563Y-15017984D02*
X7191515Y-15008460D01*
X7191515Y-15008460D02*
X7181991Y-14989412D01*
X7181991Y-14989412D02*
X7181991Y-14817984D01*
X7362944Y-15008460D02*
X7343896Y-15017984D01*
X7343896Y-15017984D02*
X7305801Y-15017984D01*
X7305801Y-15017984D02*
X7286753Y-15008460D01*
X7286753Y-15008460D02*
X7277230Y-14989412D01*
X7277230Y-14989412D02*
X7277230Y-14913222D01*
X7277230Y-14913222D02*
X7286753Y-14894174D01*
X7286753Y-14894174D02*
X7305801Y-14884650D01*
X7305801Y-14884650D02*
X7343896Y-14884650D01*
X7343896Y-14884650D02*
X7362944Y-14894174D01*
X7362944Y-14894174D02*
X7372468Y-14913222D01*
X7372468Y-14913222D02*
X7372468Y-14932269D01*
X7372468Y-14932269D02*
X7277230Y-14951317D01*
X7448658Y-15008460D02*
X7467706Y-15017984D01*
X7467706Y-15017984D02*
X7505801Y-15017984D01*
X7505801Y-15017984D02*
X7524849Y-15008460D01*
X7524849Y-15008460D02*
X7534372Y-14989412D01*
X7534372Y-14989412D02*
X7534372Y-14979888D01*
X7534372Y-14979888D02*
X7524849Y-14960841D01*
X7524849Y-14960841D02*
X7505801Y-14951317D01*
X7505801Y-14951317D02*
X7477230Y-14951317D01*
X7477230Y-14951317D02*
X7458182Y-14941793D01*
X7458182Y-14941793D02*
X7448658Y-14922746D01*
X7448658Y-14922746D02*
X7448658Y-14913222D01*
X7448658Y-14913222D02*
X7458182Y-14894174D01*
X7458182Y-14894174D02*
X7477230Y-14884650D01*
X7477230Y-14884650D02*
X7505801Y-14884650D01*
X7505801Y-14884650D02*
X7524849Y-14894174D01*
X7601039Y-15094174D02*
X7610563Y-15084650D01*
X7610563Y-15084650D02*
X7629611Y-15056079D01*
X7629611Y-15056079D02*
X7639134Y-15037031D01*
X7639134Y-15037031D02*
X7648658Y-15008460D01*
X7648658Y-15008460D02*
X7658182Y-14960841D01*
X7658182Y-14960841D02*
X7658182Y-14922746D01*
X7658182Y-14922746D02*
X7648658Y-14875127D01*
X7648658Y-14875127D02*
X7639134Y-14846555D01*
X7639134Y-14846555D02*
X7629611Y-14827508D01*
X7629611Y-14827508D02*
X7610563Y-14798936D01*
X7610563Y-14798936D02*
X7601039Y-14789412D01*
D13*
X2525500Y-15135500D02*
X2635500Y-15245500D01*
X2635500Y-15135500D02*
X2525500Y-15245500D01*
X2635500Y-15190500D02*
G75*
G02*
X2525500Y-15190500I-55000J0D01*
G01*
X2525500Y-15190500D02*
G75*
G02*
X2635500Y-15190500I55000J0D01*
G01*
D11*
X3001039Y-15281984D02*
X2886753Y-15281984D01*
X2943896Y-15281984D02*
X2943896Y-15081984D01*
X2943896Y-15081984D02*
X2924848Y-15110555D01*
X2924848Y-15110555D02*
X2905801Y-15129603D01*
X2905801Y-15129603D02*
X2886753Y-15139127D01*
X3086753Y-15262936D02*
X3096277Y-15272460D01*
X3096277Y-15272460D02*
X3086753Y-15281984D01*
X3086753Y-15281984D02*
X3077229Y-15272460D01*
X3077229Y-15272460D02*
X3086753Y-15262936D01*
X3086753Y-15262936D02*
X3086753Y-15281984D01*
X3286753Y-15281984D02*
X3172467Y-15281984D01*
X3229610Y-15281984D02*
X3229610Y-15081984D01*
X3229610Y-15081984D02*
X3210562Y-15110555D01*
X3210562Y-15110555D02*
X3191515Y-15129603D01*
X3191515Y-15129603D02*
X3172467Y-15139127D01*
X3410562Y-15081984D02*
X3429610Y-15081984D01*
X3429610Y-15081984D02*
X3448658Y-15091508D01*
X3448658Y-15091508D02*
X3458182Y-15101031D01*
X3458182Y-15101031D02*
X3467705Y-15120079D01*
X3467705Y-15120079D02*
X3477229Y-15158174D01*
X3477229Y-15158174D02*
X3477229Y-15205793D01*
X3477229Y-15205793D02*
X3467705Y-15243888D01*
X3467705Y-15243888D02*
X3458182Y-15262936D01*
X3458182Y-15262936D02*
X3448658Y-15272460D01*
X3448658Y-15272460D02*
X3429610Y-15281984D01*
X3429610Y-15281984D02*
X3410562Y-15281984D01*
X3410562Y-15281984D02*
X3391515Y-15272460D01*
X3391515Y-15272460D02*
X3381991Y-15262936D01*
X3381991Y-15262936D02*
X3372467Y-15243888D01*
X3372467Y-15243888D02*
X3362943Y-15205793D01*
X3362943Y-15205793D02*
X3362943Y-15158174D01*
X3362943Y-15158174D02*
X3372467Y-15120079D01*
X3372467Y-15120079D02*
X3381991Y-15101031D01*
X3381991Y-15101031D02*
X3391515Y-15091508D01*
X3391515Y-15091508D02*
X3410562Y-15081984D01*
X3601039Y-15081984D02*
X3620086Y-15081984D01*
X3620086Y-15081984D02*
X3639134Y-15091508D01*
X3639134Y-15091508D02*
X3648658Y-15101031D01*
X3648658Y-15101031D02*
X3658182Y-15120079D01*
X3658182Y-15120079D02*
X3667705Y-15158174D01*
X3667705Y-15158174D02*
X3667705Y-15205793D01*
X3667705Y-15205793D02*
X3658182Y-15243888D01*
X3658182Y-15243888D02*
X3648658Y-15262936D01*
X3648658Y-15262936D02*
X3639134Y-15272460D01*
X3639134Y-15272460D02*
X3620086Y-15281984D01*
X3620086Y-15281984D02*
X3601039Y-15281984D01*
X3601039Y-15281984D02*
X3581991Y-15272460D01*
X3581991Y-15272460D02*
X3572467Y-15262936D01*
X3572467Y-15262936D02*
X3562943Y-15243888D01*
X3562943Y-15243888D02*
X3553420Y-15205793D01*
X3553420Y-15205793D02*
X3553420Y-15158174D01*
X3553420Y-15158174D02*
X3562943Y-15120079D01*
X3562943Y-15120079D02*
X3572467Y-15101031D01*
X3572467Y-15101031D02*
X3581991Y-15091508D01*
X3581991Y-15091508D02*
X3601039Y-15081984D01*
X3753420Y-15281984D02*
X3753420Y-15148650D01*
X3753420Y-15167698D02*
X3762943Y-15158174D01*
X3762943Y-15158174D02*
X3781991Y-15148650D01*
X3781991Y-15148650D02*
X3810563Y-15148650D01*
X3810563Y-15148650D02*
X3829610Y-15158174D01*
X3829610Y-15158174D02*
X3839134Y-15177222D01*
X3839134Y-15177222D02*
X3839134Y-15281984D01*
X3839134Y-15177222D02*
X3848658Y-15158174D01*
X3848658Y-15158174D02*
X3867705Y-15148650D01*
X3867705Y-15148650D02*
X3896277Y-15148650D01*
X3896277Y-15148650D02*
X3915324Y-15158174D01*
X3915324Y-15158174D02*
X3924848Y-15177222D01*
X3924848Y-15177222D02*
X3924848Y-15281984D01*
X4020086Y-15281984D02*
X4020086Y-15148650D01*
X4020086Y-15167698D02*
X4029610Y-15158174D01*
X4029610Y-15158174D02*
X4048658Y-15148650D01*
X4048658Y-15148650D02*
X4077229Y-15148650D01*
X4077229Y-15148650D02*
X4096277Y-15158174D01*
X4096277Y-15158174D02*
X4105801Y-15177222D01*
X4105801Y-15177222D02*
X4105801Y-15281984D01*
X4105801Y-15177222D02*
X4115324Y-15158174D01*
X4115324Y-15158174D02*
X4134372Y-15148650D01*
X4134372Y-15148650D02*
X4162943Y-15148650D01*
X4162943Y-15148650D02*
X4181991Y-15158174D01*
X4181991Y-15158174D02*
X4191515Y-15177222D01*
X4191515Y-15177222D02*
X4191515Y-15281984D01*
X4581991Y-15072460D02*
X4410563Y-15329603D01*
X4839134Y-15081984D02*
X4858182Y-15081984D01*
X4858182Y-15081984D02*
X4877229Y-15091508D01*
X4877229Y-15091508D02*
X4886753Y-15101031D01*
X4886753Y-15101031D02*
X4896277Y-15120079D01*
X4896277Y-15120079D02*
X4905801Y-15158174D01*
X4905801Y-15158174D02*
X4905801Y-15205793D01*
X4905801Y-15205793D02*
X4896277Y-15243888D01*
X4896277Y-15243888D02*
X4886753Y-15262936D01*
X4886753Y-15262936D02*
X4877229Y-15272460D01*
X4877229Y-15272460D02*
X4858182Y-15281984D01*
X4858182Y-15281984D02*
X4839134Y-15281984D01*
X4839134Y-15281984D02*
X4820087Y-15272460D01*
X4820087Y-15272460D02*
X4810563Y-15262936D01*
X4810563Y-15262936D02*
X4801039Y-15243888D01*
X4801039Y-15243888D02*
X4791515Y-15205793D01*
X4791515Y-15205793D02*
X4791515Y-15158174D01*
X4791515Y-15158174D02*
X4801039Y-15120079D01*
X4801039Y-15120079D02*
X4810563Y-15101031D01*
X4810563Y-15101031D02*
X4820087Y-15091508D01*
X4820087Y-15091508D02*
X4839134Y-15081984D01*
X4991515Y-15262936D02*
X5001039Y-15272460D01*
X5001039Y-15272460D02*
X4991515Y-15281984D01*
X4991515Y-15281984D02*
X4981991Y-15272460D01*
X4981991Y-15272460D02*
X4991515Y-15262936D01*
X4991515Y-15262936D02*
X4991515Y-15281984D01*
X5124848Y-15081984D02*
X5143896Y-15081984D01*
X5143896Y-15081984D02*
X5162944Y-15091508D01*
X5162944Y-15091508D02*
X5172468Y-15101031D01*
X5172468Y-15101031D02*
X5181991Y-15120079D01*
X5181991Y-15120079D02*
X5191515Y-15158174D01*
X5191515Y-15158174D02*
X5191515Y-15205793D01*
X5191515Y-15205793D02*
X5181991Y-15243888D01*
X5181991Y-15243888D02*
X5172468Y-15262936D01*
X5172468Y-15262936D02*
X5162944Y-15272460D01*
X5162944Y-15272460D02*
X5143896Y-15281984D01*
X5143896Y-15281984D02*
X5124848Y-15281984D01*
X5124848Y-15281984D02*
X5105801Y-15272460D01*
X5105801Y-15272460D02*
X5096277Y-15262936D01*
X5096277Y-15262936D02*
X5086753Y-15243888D01*
X5086753Y-15243888D02*
X5077229Y-15205793D01*
X5077229Y-15205793D02*
X5077229Y-15158174D01*
X5077229Y-15158174D02*
X5086753Y-15120079D01*
X5086753Y-15120079D02*
X5096277Y-15101031D01*
X5096277Y-15101031D02*
X5105801Y-15091508D01*
X5105801Y-15091508D02*
X5124848Y-15081984D01*
X5362944Y-15148650D02*
X5362944Y-15281984D01*
X5315325Y-15072460D02*
X5267706Y-15215317D01*
X5267706Y-15215317D02*
X5391515Y-15215317D01*
X5448658Y-15081984D02*
X5572468Y-15081984D01*
X5572468Y-15081984D02*
X5505801Y-15158174D01*
X5505801Y-15158174D02*
X5534372Y-15158174D01*
X5534372Y-15158174D02*
X5553420Y-15167698D01*
X5553420Y-15167698D02*
X5562944Y-15177222D01*
X5562944Y-15177222D02*
X5572468Y-15196269D01*
X5572468Y-15196269D02*
X5572468Y-15243888D01*
X5572468Y-15243888D02*
X5562944Y-15262936D01*
X5562944Y-15262936D02*
X5553420Y-15272460D01*
X5553420Y-15272460D02*
X5534372Y-15281984D01*
X5534372Y-15281984D02*
X5477229Y-15281984D01*
X5477229Y-15281984D02*
X5458182Y-15272460D01*
X5458182Y-15272460D02*
X5448658Y-15262936D01*
X5639134Y-15081984D02*
X5762944Y-15081984D01*
X5762944Y-15081984D02*
X5696277Y-15158174D01*
X5696277Y-15158174D02*
X5724848Y-15158174D01*
X5724848Y-15158174D02*
X5743896Y-15167698D01*
X5743896Y-15167698D02*
X5753420Y-15177222D01*
X5753420Y-15177222D02*
X5762944Y-15196269D01*
X5762944Y-15196269D02*
X5762944Y-15243888D01*
X5762944Y-15243888D02*
X5753420Y-15262936D01*
X5753420Y-15262936D02*
X5743896Y-15272460D01*
X5743896Y-15272460D02*
X5724848Y-15281984D01*
X5724848Y-15281984D02*
X5667706Y-15281984D01*
X5667706Y-15281984D02*
X5648658Y-15272460D01*
X5648658Y-15272460D02*
X5639134Y-15262936D01*
X5839134Y-15081984D02*
X5839134Y-15120079D01*
X5915325Y-15081984D02*
X5915325Y-15120079D01*
X6210563Y-15358174D02*
X6201039Y-15348650D01*
X6201039Y-15348650D02*
X6181991Y-15320079D01*
X6181991Y-15320079D02*
X6172468Y-15301031D01*
X6172468Y-15301031D02*
X6162944Y-15272460D01*
X6162944Y-15272460D02*
X6153420Y-15224841D01*
X6153420Y-15224841D02*
X6153420Y-15186746D01*
X6153420Y-15186746D02*
X6162944Y-15139127D01*
X6162944Y-15139127D02*
X6172468Y-15110555D01*
X6172468Y-15110555D02*
X6181991Y-15091508D01*
X6181991Y-15091508D02*
X6201039Y-15062936D01*
X6201039Y-15062936D02*
X6210563Y-15053412D01*
X6372468Y-15081984D02*
X6334372Y-15081984D01*
X6334372Y-15081984D02*
X6315325Y-15091508D01*
X6315325Y-15091508D02*
X6305801Y-15101031D01*
X6305801Y-15101031D02*
X6286753Y-15129603D01*
X6286753Y-15129603D02*
X6277229Y-15167698D01*
X6277229Y-15167698D02*
X6277229Y-15243888D01*
X6277229Y-15243888D02*
X6286753Y-15262936D01*
X6286753Y-15262936D02*
X6296277Y-15272460D01*
X6296277Y-15272460D02*
X6315325Y-15281984D01*
X6315325Y-15281984D02*
X6353420Y-15281984D01*
X6353420Y-15281984D02*
X6372468Y-15272460D01*
X6372468Y-15272460D02*
X6381991Y-15262936D01*
X6381991Y-15262936D02*
X6391515Y-15243888D01*
X6391515Y-15243888D02*
X6391515Y-15196269D01*
X6391515Y-15196269D02*
X6381991Y-15177222D01*
X6381991Y-15177222D02*
X6372468Y-15167698D01*
X6372468Y-15167698D02*
X6353420Y-15158174D01*
X6353420Y-15158174D02*
X6315325Y-15158174D01*
X6315325Y-15158174D02*
X6296277Y-15167698D01*
X6296277Y-15167698D02*
X6286753Y-15177222D01*
X6286753Y-15177222D02*
X6277229Y-15196269D01*
X6629610Y-15281984D02*
X6629610Y-15081984D01*
X6715325Y-15281984D02*
X6715325Y-15177222D01*
X6715325Y-15177222D02*
X6705801Y-15158174D01*
X6705801Y-15158174D02*
X6686753Y-15148650D01*
X6686753Y-15148650D02*
X6658182Y-15148650D01*
X6658182Y-15148650D02*
X6639134Y-15158174D01*
X6639134Y-15158174D02*
X6629610Y-15167698D01*
X6839134Y-15281984D02*
X6820087Y-15272460D01*
X6820087Y-15272460D02*
X6810563Y-15262936D01*
X6810563Y-15262936D02*
X6801039Y-15243888D01*
X6801039Y-15243888D02*
X6801039Y-15186746D01*
X6801039Y-15186746D02*
X6810563Y-15167698D01*
X6810563Y-15167698D02*
X6820087Y-15158174D01*
X6820087Y-15158174D02*
X6839134Y-15148650D01*
X6839134Y-15148650D02*
X6867706Y-15148650D01*
X6867706Y-15148650D02*
X6886753Y-15158174D01*
X6886753Y-15158174D02*
X6896277Y-15167698D01*
X6896277Y-15167698D02*
X6905801Y-15186746D01*
X6905801Y-15186746D02*
X6905801Y-15243888D01*
X6905801Y-15243888D02*
X6896277Y-15262936D01*
X6896277Y-15262936D02*
X6886753Y-15272460D01*
X6886753Y-15272460D02*
X6867706Y-15281984D01*
X6867706Y-15281984D02*
X6839134Y-15281984D01*
X7020087Y-15281984D02*
X7001039Y-15272460D01*
X7001039Y-15272460D02*
X6991515Y-15253412D01*
X6991515Y-15253412D02*
X6991515Y-15081984D01*
X7172468Y-15272460D02*
X7153420Y-15281984D01*
X7153420Y-15281984D02*
X7115325Y-15281984D01*
X7115325Y-15281984D02*
X7096277Y-15272460D01*
X7096277Y-15272460D02*
X7086753Y-15253412D01*
X7086753Y-15253412D02*
X7086753Y-15177222D01*
X7086753Y-15177222D02*
X7096277Y-15158174D01*
X7096277Y-15158174D02*
X7115325Y-15148650D01*
X7115325Y-15148650D02*
X7153420Y-15148650D01*
X7153420Y-15148650D02*
X7172468Y-15158174D01*
X7172468Y-15158174D02*
X7181991Y-15177222D01*
X7181991Y-15177222D02*
X7181991Y-15196269D01*
X7181991Y-15196269D02*
X7086753Y-15215317D01*
X7258182Y-15272460D02*
X7277230Y-15281984D01*
X7277230Y-15281984D02*
X7315325Y-15281984D01*
X7315325Y-15281984D02*
X7334372Y-15272460D01*
X7334372Y-15272460D02*
X7343896Y-15253412D01*
X7343896Y-15253412D02*
X7343896Y-15243888D01*
X7343896Y-15243888D02*
X7334372Y-15224841D01*
X7334372Y-15224841D02*
X7315325Y-15215317D01*
X7315325Y-15215317D02*
X7286753Y-15215317D01*
X7286753Y-15215317D02*
X7267706Y-15205793D01*
X7267706Y-15205793D02*
X7258182Y-15186746D01*
X7258182Y-15186746D02*
X7258182Y-15177222D01*
X7258182Y-15177222D02*
X7267706Y-15158174D01*
X7267706Y-15158174D02*
X7286753Y-15148650D01*
X7286753Y-15148650D02*
X7315325Y-15148650D01*
X7315325Y-15148650D02*
X7334372Y-15158174D01*
X7410563Y-15358174D02*
X7420087Y-15348650D01*
X7420087Y-15348650D02*
X7439134Y-15320079D01*
X7439134Y-15320079D02*
X7448658Y-15301031D01*
X7448658Y-15301031D02*
X7458182Y-15272460D01*
X7458182Y-15272460D02*
X7467706Y-15224841D01*
X7467706Y-15224841D02*
X7467706Y-15186746D01*
X7467706Y-15186746D02*
X7458182Y-15139127D01*
X7458182Y-15139127D02*
X7448658Y-15110555D01*
X7448658Y-15110555D02*
X7439134Y-15091508D01*
X7439134Y-15091508D02*
X7420087Y-15062936D01*
X7420087Y-15062936D02*
X7410563Y-15053412D01*
D14*
X2515500Y-15394500D02*
X2635500Y-15514500D01*
X2635500Y-15394500D02*
X2515500Y-15514500D01*
X2575500Y-15394500D02*
X2575500Y-15514500D01*
X2515500Y-15454500D02*
X2635500Y-15454500D01*
D11*
X3001039Y-15545984D02*
X2886753Y-15545984D01*
X2943896Y-15545984D02*
X2943896Y-15345984D01*
X2943896Y-15345984D02*
X2924848Y-15374555D01*
X2924848Y-15374555D02*
X2905801Y-15393603D01*
X2905801Y-15393603D02*
X2886753Y-15403127D01*
X3086753Y-15526936D02*
X3096277Y-15536460D01*
X3096277Y-15536460D02*
X3086753Y-15545984D01*
X3086753Y-15545984D02*
X3077229Y-15536460D01*
X3077229Y-15536460D02*
X3086753Y-15526936D01*
X3086753Y-15526936D02*
X3086753Y-15545984D01*
X3172467Y-15365031D02*
X3181991Y-15355508D01*
X3181991Y-15355508D02*
X3201039Y-15345984D01*
X3201039Y-15345984D02*
X3248658Y-15345984D01*
X3248658Y-15345984D02*
X3267705Y-15355508D01*
X3267705Y-15355508D02*
X3277229Y-15365031D01*
X3277229Y-15365031D02*
X3286753Y-15384079D01*
X3286753Y-15384079D02*
X3286753Y-15403127D01*
X3286753Y-15403127D02*
X3277229Y-15431698D01*
X3277229Y-15431698D02*
X3162943Y-15545984D01*
X3162943Y-15545984D02*
X3286753Y-15545984D01*
X3410562Y-15345984D02*
X3429610Y-15345984D01*
X3429610Y-15345984D02*
X3448658Y-15355508D01*
X3448658Y-15355508D02*
X3458182Y-15365031D01*
X3458182Y-15365031D02*
X3467705Y-15384079D01*
X3467705Y-15384079D02*
X3477229Y-15422174D01*
X3477229Y-15422174D02*
X3477229Y-15469793D01*
X3477229Y-15469793D02*
X3467705Y-15507888D01*
X3467705Y-15507888D02*
X3458182Y-15526936D01*
X3458182Y-15526936D02*
X3448658Y-15536460D01*
X3448658Y-15536460D02*
X3429610Y-15545984D01*
X3429610Y-15545984D02*
X3410562Y-15545984D01*
X3410562Y-15545984D02*
X3391515Y-15536460D01*
X3391515Y-15536460D02*
X3381991Y-15526936D01*
X3381991Y-15526936D02*
X3372467Y-15507888D01*
X3372467Y-15507888D02*
X3362943Y-15469793D01*
X3362943Y-15469793D02*
X3362943Y-15422174D01*
X3362943Y-15422174D02*
X3372467Y-15384079D01*
X3372467Y-15384079D02*
X3381991Y-15365031D01*
X3381991Y-15365031D02*
X3391515Y-15355508D01*
X3391515Y-15355508D02*
X3410562Y-15345984D01*
X3601039Y-15345984D02*
X3620086Y-15345984D01*
X3620086Y-15345984D02*
X3639134Y-15355508D01*
X3639134Y-15355508D02*
X3648658Y-15365031D01*
X3648658Y-15365031D02*
X3658182Y-15384079D01*
X3658182Y-15384079D02*
X3667705Y-15422174D01*
X3667705Y-15422174D02*
X3667705Y-15469793D01*
X3667705Y-15469793D02*
X3658182Y-15507888D01*
X3658182Y-15507888D02*
X3648658Y-15526936D01*
X3648658Y-15526936D02*
X3639134Y-15536460D01*
X3639134Y-15536460D02*
X3620086Y-15545984D01*
X3620086Y-15545984D02*
X3601039Y-15545984D01*
X3601039Y-15545984D02*
X3581991Y-15536460D01*
X3581991Y-15536460D02*
X3572467Y-15526936D01*
X3572467Y-15526936D02*
X3562943Y-15507888D01*
X3562943Y-15507888D02*
X3553420Y-15469793D01*
X3553420Y-15469793D02*
X3553420Y-15422174D01*
X3553420Y-15422174D02*
X3562943Y-15384079D01*
X3562943Y-15384079D02*
X3572467Y-15365031D01*
X3572467Y-15365031D02*
X3581991Y-15355508D01*
X3581991Y-15355508D02*
X3601039Y-15345984D01*
X3753420Y-15545984D02*
X3753420Y-15412650D01*
X3753420Y-15431698D02*
X3762943Y-15422174D01*
X3762943Y-15422174D02*
X3781991Y-15412650D01*
X3781991Y-15412650D02*
X3810563Y-15412650D01*
X3810563Y-15412650D02*
X3829610Y-15422174D01*
X3829610Y-15422174D02*
X3839134Y-15441222D01*
X3839134Y-15441222D02*
X3839134Y-15545984D01*
X3839134Y-15441222D02*
X3848658Y-15422174D01*
X3848658Y-15422174D02*
X3867705Y-15412650D01*
X3867705Y-15412650D02*
X3896277Y-15412650D01*
X3896277Y-15412650D02*
X3915324Y-15422174D01*
X3915324Y-15422174D02*
X3924848Y-15441222D01*
X3924848Y-15441222D02*
X3924848Y-15545984D01*
X4020086Y-15545984D02*
X4020086Y-15412650D01*
X4020086Y-15431698D02*
X4029610Y-15422174D01*
X4029610Y-15422174D02*
X4048658Y-15412650D01*
X4048658Y-15412650D02*
X4077229Y-15412650D01*
X4077229Y-15412650D02*
X4096277Y-15422174D01*
X4096277Y-15422174D02*
X4105801Y-15441222D01*
X4105801Y-15441222D02*
X4105801Y-15545984D01*
X4105801Y-15441222D02*
X4115324Y-15422174D01*
X4115324Y-15422174D02*
X4134372Y-15412650D01*
X4134372Y-15412650D02*
X4162943Y-15412650D01*
X4162943Y-15412650D02*
X4181991Y-15422174D01*
X4181991Y-15422174D02*
X4191515Y-15441222D01*
X4191515Y-15441222D02*
X4191515Y-15545984D01*
X4581991Y-15336460D02*
X4410563Y-15593603D01*
X4839134Y-15345984D02*
X4858182Y-15345984D01*
X4858182Y-15345984D02*
X4877229Y-15355508D01*
X4877229Y-15355508D02*
X4886753Y-15365031D01*
X4886753Y-15365031D02*
X4896277Y-15384079D01*
X4896277Y-15384079D02*
X4905801Y-15422174D01*
X4905801Y-15422174D02*
X4905801Y-15469793D01*
X4905801Y-15469793D02*
X4896277Y-15507888D01*
X4896277Y-15507888D02*
X4886753Y-15526936D01*
X4886753Y-15526936D02*
X4877229Y-15536460D01*
X4877229Y-15536460D02*
X4858182Y-15545984D01*
X4858182Y-15545984D02*
X4839134Y-15545984D01*
X4839134Y-15545984D02*
X4820087Y-15536460D01*
X4820087Y-15536460D02*
X4810563Y-15526936D01*
X4810563Y-15526936D02*
X4801039Y-15507888D01*
X4801039Y-15507888D02*
X4791515Y-15469793D01*
X4791515Y-15469793D02*
X4791515Y-15422174D01*
X4791515Y-15422174D02*
X4801039Y-15384079D01*
X4801039Y-15384079D02*
X4810563Y-15365031D01*
X4810563Y-15365031D02*
X4820087Y-15355508D01*
X4820087Y-15355508D02*
X4839134Y-15345984D01*
X4991515Y-15526936D02*
X5001039Y-15536460D01*
X5001039Y-15536460D02*
X4991515Y-15545984D01*
X4991515Y-15545984D02*
X4981991Y-15536460D01*
X4981991Y-15536460D02*
X4991515Y-15526936D01*
X4991515Y-15526936D02*
X4991515Y-15545984D01*
X5124848Y-15345984D02*
X5143896Y-15345984D01*
X5143896Y-15345984D02*
X5162944Y-15355508D01*
X5162944Y-15355508D02*
X5172468Y-15365031D01*
X5172468Y-15365031D02*
X5181991Y-15384079D01*
X5181991Y-15384079D02*
X5191515Y-15422174D01*
X5191515Y-15422174D02*
X5191515Y-15469793D01*
X5191515Y-15469793D02*
X5181991Y-15507888D01*
X5181991Y-15507888D02*
X5172468Y-15526936D01*
X5172468Y-15526936D02*
X5162944Y-15536460D01*
X5162944Y-15536460D02*
X5143896Y-15545984D01*
X5143896Y-15545984D02*
X5124848Y-15545984D01*
X5124848Y-15545984D02*
X5105801Y-15536460D01*
X5105801Y-15536460D02*
X5096277Y-15526936D01*
X5096277Y-15526936D02*
X5086753Y-15507888D01*
X5086753Y-15507888D02*
X5077229Y-15469793D01*
X5077229Y-15469793D02*
X5077229Y-15422174D01*
X5077229Y-15422174D02*
X5086753Y-15384079D01*
X5086753Y-15384079D02*
X5096277Y-15365031D01*
X5096277Y-15365031D02*
X5105801Y-15355508D01*
X5105801Y-15355508D02*
X5124848Y-15345984D01*
X5362944Y-15412650D02*
X5362944Y-15545984D01*
X5315325Y-15336460D02*
X5267706Y-15479317D01*
X5267706Y-15479317D02*
X5391515Y-15479317D01*
X5448658Y-15345984D02*
X5581991Y-15345984D01*
X5581991Y-15345984D02*
X5496277Y-15545984D01*
X5648658Y-15365031D02*
X5658182Y-15355508D01*
X5658182Y-15355508D02*
X5677229Y-15345984D01*
X5677229Y-15345984D02*
X5724848Y-15345984D01*
X5724848Y-15345984D02*
X5743896Y-15355508D01*
X5743896Y-15355508D02*
X5753420Y-15365031D01*
X5753420Y-15365031D02*
X5762944Y-15384079D01*
X5762944Y-15384079D02*
X5762944Y-15403127D01*
X5762944Y-15403127D02*
X5753420Y-15431698D01*
X5753420Y-15431698D02*
X5639134Y-15545984D01*
X5639134Y-15545984D02*
X5762944Y-15545984D01*
X5839134Y-15345984D02*
X5839134Y-15384079D01*
X5915325Y-15345984D02*
X5915325Y-15384079D01*
X6210563Y-15622174D02*
X6201039Y-15612650D01*
X6201039Y-15612650D02*
X6181991Y-15584079D01*
X6181991Y-15584079D02*
X6172468Y-15565031D01*
X6172468Y-15565031D02*
X6162944Y-15536460D01*
X6162944Y-15536460D02*
X6153420Y-15488841D01*
X6153420Y-15488841D02*
X6153420Y-15450746D01*
X6153420Y-15450746D02*
X6162944Y-15403127D01*
X6162944Y-15403127D02*
X6172468Y-15374555D01*
X6172468Y-15374555D02*
X6181991Y-15355508D01*
X6181991Y-15355508D02*
X6201039Y-15326936D01*
X6201039Y-15326936D02*
X6210563Y-15317412D01*
X6372468Y-15412650D02*
X6372468Y-15545984D01*
X6324848Y-15336460D02*
X6277229Y-15479317D01*
X6277229Y-15479317D02*
X6401039Y-15479317D01*
X6629610Y-15545984D02*
X6629610Y-15345984D01*
X6715325Y-15545984D02*
X6715325Y-15441222D01*
X6715325Y-15441222D02*
X6705801Y-15422174D01*
X6705801Y-15422174D02*
X6686753Y-15412650D01*
X6686753Y-15412650D02*
X6658182Y-15412650D01*
X6658182Y-15412650D02*
X6639134Y-15422174D01*
X6639134Y-15422174D02*
X6629610Y-15431698D01*
X6839134Y-15545984D02*
X6820087Y-15536460D01*
X6820087Y-15536460D02*
X6810563Y-15526936D01*
X6810563Y-15526936D02*
X6801039Y-15507888D01*
X6801039Y-15507888D02*
X6801039Y-15450746D01*
X6801039Y-15450746D02*
X6810563Y-15431698D01*
X6810563Y-15431698D02*
X6820087Y-15422174D01*
X6820087Y-15422174D02*
X6839134Y-15412650D01*
X6839134Y-15412650D02*
X6867706Y-15412650D01*
X6867706Y-15412650D02*
X6886753Y-15422174D01*
X6886753Y-15422174D02*
X6896277Y-15431698D01*
X6896277Y-15431698D02*
X6905801Y-15450746D01*
X6905801Y-15450746D02*
X6905801Y-15507888D01*
X6905801Y-15507888D02*
X6896277Y-15526936D01*
X6896277Y-15526936D02*
X6886753Y-15536460D01*
X6886753Y-15536460D02*
X6867706Y-15545984D01*
X6867706Y-15545984D02*
X6839134Y-15545984D01*
X7020087Y-15545984D02*
X7001039Y-15536460D01*
X7001039Y-15536460D02*
X6991515Y-15517412D01*
X6991515Y-15517412D02*
X6991515Y-15345984D01*
X7172468Y-15536460D02*
X7153420Y-15545984D01*
X7153420Y-15545984D02*
X7115325Y-15545984D01*
X7115325Y-15545984D02*
X7096277Y-15536460D01*
X7096277Y-15536460D02*
X7086753Y-15517412D01*
X7086753Y-15517412D02*
X7086753Y-15441222D01*
X7086753Y-15441222D02*
X7096277Y-15422174D01*
X7096277Y-15422174D02*
X7115325Y-15412650D01*
X7115325Y-15412650D02*
X7153420Y-15412650D01*
X7153420Y-15412650D02*
X7172468Y-15422174D01*
X7172468Y-15422174D02*
X7181991Y-15441222D01*
X7181991Y-15441222D02*
X7181991Y-15460269D01*
X7181991Y-15460269D02*
X7086753Y-15479317D01*
X7258182Y-15536460D02*
X7277230Y-15545984D01*
X7277230Y-15545984D02*
X7315325Y-15545984D01*
X7315325Y-15545984D02*
X7334372Y-15536460D01*
X7334372Y-15536460D02*
X7343896Y-15517412D01*
X7343896Y-15517412D02*
X7343896Y-15507888D01*
X7343896Y-15507888D02*
X7334372Y-15488841D01*
X7334372Y-15488841D02*
X7315325Y-15479317D01*
X7315325Y-15479317D02*
X7286753Y-15479317D01*
X7286753Y-15479317D02*
X7267706Y-15469793D01*
X7267706Y-15469793D02*
X7258182Y-15450746D01*
X7258182Y-15450746D02*
X7258182Y-15441222D01*
X7258182Y-15441222D02*
X7267706Y-15422174D01*
X7267706Y-15422174D02*
X7286753Y-15412650D01*
X7286753Y-15412650D02*
X7315325Y-15412650D01*
X7315325Y-15412650D02*
X7334372Y-15422174D01*
X7410563Y-15622174D02*
X7420087Y-15612650D01*
X7420087Y-15612650D02*
X7439134Y-15584079D01*
X7439134Y-15584079D02*
X7448658Y-15565031D01*
X7448658Y-15565031D02*
X7458182Y-15536460D01*
X7458182Y-15536460D02*
X7467706Y-15488841D01*
X7467706Y-15488841D02*
X7467706Y-15450746D01*
X7467706Y-15450746D02*
X7458182Y-15403127D01*
X7458182Y-15403127D02*
X7448658Y-15374555D01*
X7448658Y-15374555D02*
X7439134Y-15355508D01*
X7439134Y-15355508D02*
X7420087Y-15326936D01*
X7420087Y-15326936D02*
X7410563Y-15317412D01*
M02*
